<svg xmlns="http://www.w3.org/2000/svg" viewBox="0 0 120 120"><defs><style>.cls-1{fill:#fff;}</style></defs><title>ICON</title><g id="圖層_1" data-name="圖層 1"><path class="cls-1" d="M89.31.15h1.87A4.4,4.4,0,0,1,94,5c-.11,1.5,0,3,0,4.55,3.76,0,7.34,0,10.92,0a15.37,15.37,0,0,1,14.43,10.35c.37,1.05.6,2.15.9,3.23v83.44a5.62,5.62,0,0,0-.23.77,15.41,15.41,0,0,1-15,12.81q-44.74,0-89.5,0A15.35,15.35,0,0,1,.26,104.88q0-40.06,0-80.13A15.46,15.46,0,0,1,10.49,10.42c2.79-1,5.67-.9,8.56-.9H26.5c0-1.59.08-3.08,0-4.54A4.36,4.36,0,0,1,29.31.15h1.87A4.4,4.4,0,0,1,34,5c-.11,1.5,0,3,0,4.48H86.5c0-1.54.08-3,0-4.48A4.36,4.36,0,0,1,89.31.15ZM60.25,41.4H9.87c-1.94,0-2.12.19-2.12,2.15v60.34c0,5.49,3.25,8.76,8.73,8.76H104c5.47,0,8.75-3.27,8.75-8.74V43.56c0-2-.17-2.16-2.23-2.16Z"/></g></svg>