<svg id="圖層_1" data-name="圖層 1" xmlns="http://www.w3.org/2000/svg" viewBox="0 0 210.42 215.83"><defs><style>.cls-1{fill:#ad8047;}.cls-2{fill:#f9f9f9;}</style></defs><title>cs_new</title><path class="cls-1" d="M161.33,22.36l-2.76,1.57c-.22-3.64-6.17-2.78-5.07-7.23A82.45,82.45,0,0,0,110.76,3l-2.3-.07h-5.92l-2.3.07a42.25,42.25,0,0,0-4.48.12C67.35,6.78,45.24,20.54,29.63,44.59a85.3,85.3,0,0,0-13.1,37.07c2.76-.48,3.76,1.07,3.79,3.82h3.87c.6-3.55,1.06-7.13,1.81-10.65C35.42,31.05,79.07,3,122.69,12.59c10,2.19,19,6.38,27.79,11.46,2.48-.89,3.24-.35,3,2.19a88.81,88.81,0,0,1,27,33.76l8.63.41A84,84,0,0,0,161.33,22.36Z"/><path class="cls-1" d="M16.53,81.67,14.77,90l4.09.65c-1.26,1-2.13,1.59-3,2.27-.67.55-1.27,1.18-1.92,1.77-1,.91-2.26,2.72-3,2.53-1.2-.32-2.07-1.92-3.07-3C3,98.71.18,104.14.11,110.8,0,119-.1,127.24.15,135.46a22.72,22.72,0,0,0,19.1,22c-.77-2.22-3-4.77,1.79-6.07l-1.23,2.85,5.44.26,0,0L23,150.06c-10.65-2.25-14.86-7.38-14.87-18.16,0-6.25,0-12.49,0-18.74.06-10.6,6.45-16.88,17.12-16.89h4.43V145.5a20.26,20.26,0,0,1,1.65-2c.92-.88,1.93-1.65,2.91-2.47l-1.53-3.16.73-.51,3.85,2.95c.09-15.93.19-31.87.23-47.8,0-2.66-1.47-4.16-4.19-4.22a60.58,60.58,0,0,0-6.35,0c-2.19.18-2.9-.81-2.8-2.77H20.32C20.29,82.74,19.29,81.18,16.53,81.67Z"/><path class="cls-1" d="M32.59,147c.52,3.5-.55,5.62-4.34,5.26q0,.38,0,.76c.67,3.85-1.91,1.16-3,1.48l0,0,.05,3.38c2.56.05,5.13.24,7.68.11,2.15-.11,4.13-.78,4.31-3.49L36.5,147Z"/><path class="cls-1" d="M11,97.25c.72.19,2-1.61,3-2.53.64-.58,1.25-1.21,1.92-1.77.83-.69,1.7-1.31,3-2.27L14.77,90,7.93,94.28C8.94,95.34,9.8,96.93,11,97.25Z"/><path class="cls-1" d="M185.14,66.27l5.14-2.54-.78-2.23-.39-1,0-.07L180.51,60l1.25,3.06,1,1Z"/><path class="cls-1" d="M34.25,141c-1,.82-2,1.59-2.91,2.47a20.26,20.26,0,0,0-1.65,2l-1.44,4.56q0,1.09,0,2.18c3.79.37,4.86-1.76,4.34-5.26H36.5l.83-.77v-1.45l-4.75.38Z"/><path class="cls-1" d="M19.8,154.25,21,151.4c-4.78,1.3-2.55,3.85-1.79,6.07l2.19.21,1.46-1.54.83,1.73,1.56,0-.05-3.38Z"/><path class="cls-1" d="M158.57,23.93l2.76-1.57-7.84-5.65C152.4,21.16,158.34,20.3,158.57,23.93Z"/><path class="cls-1" d="M32.57,145.15l4.75-.38,0-2.29L34.25,141Z"/><path class="cls-1" d="M32.72,137.84,34.25,141l3.05,1.48q0-1.1,0-2.21l-3.85-2.95Z"/><path class="cls-1" d="M37.28,154.51l.05-8.29-.83.77Z"/><path class="cls-1" d="M150.48,24.05l3,2.19C153.72,23.7,153,23.16,150.48,24.05Z"/><path class="cls-1" d="M21.43,157.68l2.29.19-.83-1.73Z"/><path class="cls-1" d="M177.13,141.67,181.3,144q.1-19.23.2-38.45c0-2.86,0-5.72,0-8.5,10.23-3.48,20.2,3.15,21.33,14,.1,1,.14,2,.21,3l3.47.68.91-7.24,3-.19a21.08,21.08,0,0,0-11.86-16.19c-3.08-1.52-3.41-3.46-3.89-6.3-1.19-7.05-2.89-14-4.38-21l-5.14,2.54L182.8,64l-1-1c2.44,8.15,5.13,16.27,4.83,25.21-3.35,0-6.22,0-9.08,0-2.55.05-4,1.49-4,4,0,16.49.11,33,.18,49.45l2.62,1.81Z"/><path class="cls-1" d="M210.64,114l0-2.2-2,.82Z"/><path class="cls-2" d="M181.5,97c0,2.79,0,5.64,0,8.5q-.1,19.23-.2,38.45l.49,5.71c14.93,1,21.07-4.75,21.1-19.31,0-5.47.11-10.93.17-16.4-.07-1-.11-2-.21-3C201.71,100.19,191.74,93.57,181.5,97Z"/><path class="cls-2" d="M28.25,150.07l1.44-4.56V96.26H25.25c-10.68,0-17.07,6.29-17.12,16.89,0,6.25,0,12.49,0,18.74,0,10.78,4.22,15.92,14.87,18.16h2.26Z"/><path class="cls-1" d="M28.25,153l-3-3H23l2.26,4.43C26.34,154.17,28.92,156.85,28.25,153Z"/><path class="cls-1" d="M28.25,153q0-.38,0-.76,0-1.09,0-2.18l-3,0Z"/><path class="cls-1" d="M210.64,114l-2.07-1.38,2-.82h0l-.18-4.5-3,.19-.91,7.24L203,114c-.06,5.47-.16,10.93-.17,16.4,0,14.56-6.16,20.3-21.1,19.31L181.3,144l-4.16-2.33-.82,1.86-2.62-1.81c-.1,3.61-.27,7.22-.28,10.83,0,4,1.35,5.38,5.38,5.49,2.67.08,5.35,0,8,0,1.34,17.86-7.94,30.87-24.74,33.26-9.68,1.38-19.68.56-29.54.54-.77,0-1.81-1.37-2.26-2.32-3.35-7.13-8.82-11-16.77-11q-7.87,0-15.74,0c-10.3,0-18.14,7.6-18.1,17.43s7.51,17.22,17.72,17.41c5.62.1,11.25.15,16.87,0,7.44-.22,12.85-3.85,15.75-10.67.94-2.21,2.1-2.61,4.17-2.59,7.87.08,15.74.06,23.62,0a36.31,36.31,0,0,0,19.54-5.47c12.5-7.88,18.14-19.49,18-34,0-2.68.6-4.13,3.19-5.44,6.87-3.47,11.43-9.23,12-16.93C211.11,130.2,210.63,122.06,210.64,114Z"/></svg>