<svg xmlns="http://www.w3.org/2000/svg" xmlns:xlink="http://www.w3.org/1999/xlink" viewBox="0 0 120 120"><defs><style>.cls-1{fill:url(#未命名漸層_8);}.cls-2{fill:url(#未命名漸層_8-2);}</style><linearGradient id="未命名漸層_8" x1="62.07" y1="129.72" x2="57.94" y2="9.73" gradientUnits="userSpaceOnUse"><stop offset="0.04" stop-color="#bc9c64"/><stop offset="0.93" stop-color="#f3d197"/></linearGradient><linearGradient id="未命名漸層_8-2" x1="63.97" y1="129.65" x2="59.84" y2="9.66" xlink:href="#未命名漸層_8"/></defs><title>ICON</title><g id="圖層_1" data-name="圖層 1"><path class="cls-1" d="M0,73.35v-14a5.36,5.36,0,0,0,.25-.62L3.52,42.4,6.65,26.78H113.23c0,.2.1.34.13.49,1.49,7.49,2.83,15,4.53,22.46a75.14,75.14,0,0,1,2,20.75c0,.58,0,1.17,0,1.75,0,.34,0,.68-.08,1.12h-6.57V112.2c0,.62,0,1.13-.87,1.12-4,0-8,0-11.94,0a2.42,2.42,0,0,1-.56-.17V73.42H73.25v39.83c-.47,0-.85,0-1.23,0q-32,0-64,0c-1.1,0-1.35-.33-1.34-1.38q0-18.49,0-37v-1.6ZM59.87,99.93V73.42H20.07V99.93Z"/><path class="cls-2" d="M113.26,20H6.71c0-.45-.06-.86-.06-1.27,0-3.55,0-7.11,0-10.65C6.6,7,6.9,6.67,8,6.67q35.88,0,71.75,0c10.73,0,21.46,0,32.19,0,1.07,0,1.39.28,1.37,1.36-.07,3.55,0,7.1,0,10.65Z"/></g></svg>