<svg xmlns="http://www.w3.org/2000/svg" xmlns:xlink="http://www.w3.org/1999/xlink" viewBox="0 0 120 120"><defs><style>.cls-1{fill:url(#未命名漸層_8);}.cls-2{fill:url(#未命名漸層_8-2);}.cls-3{fill:url(#未命名漸層_8-3);}.cls-4{fill:url(#未命名漸層_8-4);}</style><linearGradient id="未命名漸層_8" x1="63.04" y1="124.87" x2="58.91" y2="4.88" gradientUnits="userSpaceOnUse"><stop offset="0.04" stop-color="#101010"/><stop offset="0.93" stop-color="#101010"/></linearGradient><linearGradient id="未命名漸層_8-2" x1="61.39" y1="124.92" x2="57.26" y2="4.93" xlink:href="#未命名漸層_8"/><linearGradient id="未命名漸層_8-3" x1="60.29" y1="124.96" x2="56.16" y2="4.97" xlink:href="#未命名漸層_8"/><linearGradient id="未命名漸層_8-4" x1="52.79" y1="125.22" x2="48.66" y2="5.23" xlink:href="#未命名漸層_8"/></defs><title>ICON</title><g id="圖層_1" data-name="圖層 1"><path class="cls-1" d="M89.3,0a12.7,12.7,0,0,1,5.36,2.41,10.6,10.6,0,0,1,4,8.38q.06,26.07,0,52.13c0,.15,0,.3,0,.5H21.42c0-.3-.06-.64-.06-1q0-25.59,0-51.19A10.8,10.8,0,0,1,29.29.39c.47-.14,1-.26,1.44-.39ZM63.53,28.46q0-5.09,0-10.19c0-2.59-1.39-4-4-4H39.4c-2.59,0-4,1.39-4,4q0,10.08,0,20.15c0,2.59,1.39,4,4,4H59.54c2.59,0,4-1.39,4-4Q63.54,33.44,63.53,28.46Zm-14.15,28H59.56c2.38,0,4-1.45,4-3.54s-1.61-3.48-4-3.49H39.37c-2.37,0-4,1.45-3.95,3.54s1.61,3.48,4,3.49ZM77.6,14.3c-1.17,0-2.34,0-3.51,0a3.52,3.52,0,0,0-3.53,3.49,3.48,3.48,0,0,0,3.49,3.51c2.34.05,4.69.05,7,0a3.5,3.5,0,1,0,0-7C79.94,14.26,78.77,14.3,77.6,14.3Zm0,14.05c-1.17,0-2.34,0-3.51,0a3.5,3.5,0,1,0-.06,7c2.34,0,4.69,0,7,0a3.5,3.5,0,1,0-.06-7C79.87,28.33,78.74,28.35,77.61,28.35Zm0,24.5a3.51,3.51,0,1,0,3.6-3.41A3.54,3.54,0,0,0,77.59,52.85Z"/><path class="cls-2" d="M98.58,98.81H21.42V70.61H98.58Z"/><path class="cls-3" d="M60,120c-13.58,0-27.16-.09-40.74,0-4.19,0-5.68-2.24-4.55-6.21,1.43-5,5.36-7.89,10.71-7.89q14.46,0,28.92,0H94.5c4.53,0,8,1.82,10,6a13.54,13.54,0,0,1,1.1,4.6,3.34,3.34,0,0,1-3.14,3.46,13,13,0,0,1-1.4,0Z"/><path class="cls-4" d="M56.41,35.32H42.5V21.41H56.41Z"/></g></svg>