<svg xmlns="http://www.w3.org/2000/svg" xmlns:xlink="http://www.w3.org/1999/xlink" viewBox="0 0 120 120"><defs><style>.cls-1{fill:url(#未命名漸層_8);}.cls-2{fill:url(#未命名漸層_8-2);}</style><linearGradient id="未命名漸層_8" x1="61.94" y1="115.27" x2="57.81" y2="-4.72" gradientUnits="userSpaceOnUse"><stop offset="0.04" stop-color="#bc9c64"/><stop offset="0.93" stop-color="#f3d197"/></linearGradient><linearGradient id="未命名漸層_8-2" x1="61.9" y1="115.27" x2="57.77" y2="-4.66" xlink:href="#未命名漸層_8"/></defs><title>ICON</title><g id="圖層_1" data-name="圖層 1"><path class="cls-1" d="M67.2,52.56V62.8H52.4V52.58C38,53.24,27.2,55.72,27.2,58.8c0,3.6,14.8,6.4,32.8,6.4s32.8-2.8,32.8-6.4C92.8,55.69,81.78,53.19,67.2,52.56Z"/><path class="cls-2" d="M60,0a60,60,0,1,0,60,60A60,60,0,0,0,60,0Zm7.2,67.44V96H52.4V67.42c-16.39-.77-28.8-4-28.8-7.82S36,52.55,52.4,51.78V43.2H32v-14H87.6v14H67.2v8.56c16.59.74,29.2,4,29.2,7.84S83.79,66.7,67.2,67.44Z"/></g></svg>