<svg xmlns="http://www.w3.org/2000/svg" xmlns:xlink="http://www.w3.org/1999/xlink" viewBox="0 0 120 120"><defs><style>.cls-1{fill:url(#未命名漸層_8);}.cls-2{fill:url(#未命名漸層_8-2);}.cls-3{fill:url(#未命名漸層_8-3);}.cls-4{fill:url(#未命名漸層_8-4);}</style><linearGradient id="未命名漸層_8" x1="69.72" y1="119.82" x2="65.59" y2="-0.17" gradientUnits="userSpaceOnUse"><stop offset="0.04" stop-color="#101010"/><stop offset="0.93" stop-color="#101010"/></linearGradient><linearGradient id="未命名漸層_8-2" x1="48.95" y1="120.53" x2="44.82" y2="0.54" xlink:href="#未命名漸層_8"/><linearGradient id="未命名漸層_8-3" x1="49.8" y1="120.5" x2="45.68" y2="0.51" xlink:href="#未命名漸層_8"/><linearGradient id="未命名漸層_8-4" x1="50.37" y1="120.48" x2="46.24" y2="0.49" xlink:href="#未命名漸層_8"/></defs><title>ICON</title><g id="圖層_1" data-name="圖層 1"><path class="cls-1" d="M120,69.09c-.11.32-.24.63-.34,1a9,9,0,0,1-6.93,6.6c-3.15.7-6.34,1.18-9.73,1.8V77c0-7.93,0-15.86,0-23.78S98,38.71,90.43,36.91a18.71,18.71,0,0,0-4.29-.44q-34.68,0-69.36,0c-1.05,0-1.54-.21-1.63-1.34-.16-2.13-.78-4.27-.63-6.37a9,9,0,0,1,7.66-8.16q25.65-4.5,51.3-9c9-1.56,17.9-3.15,26.86-4.66a8.9,8.9,0,0,1,10.27,6.92c1,4.69,1.74,9.43,2.57,14.16q3.31,18.72,6.6,37.45a6.61,6.61,0,0,0,.22.76Z"/><path class="cls-2" d="M0,82.41H96v1.3c0,6.45,0,12.89,0,19.34,0,6.21-3.9,10.1-10.09,10.1H10.2c-6.34,0-10.2-3.87-10.2-10.23V82.41Zm19.85,22.3c2.58,0,5.15,0,7.73,0a3.52,3.52,0,1,0,0-7q-7.66,0-15.34,0a3.52,3.52,0,1,0,0,7C14.77,104.73,17.31,104.71,19.85,104.71Z"/><path class="cls-3" d="M.06,75.21V59.45H95.88V75.21Z"/><path class="cls-4" d="M95.92,52.3H.12C0,48.68,3,44.81,6.84,43.82A12.54,12.54,0,0,1,10,43.48q38,0,76.05,0c5,0,8.68,2.75,9.72,7.28A11.52,11.52,0,0,1,95.92,52.3Z"/></g></svg>