<?xml version="1.0" encoding="utf-8"?>
<!-- Generator: Adobe Illustrator 25.3.1, SVG Export Plug-In . SVG Version: 6.00 Build 0)  -->
<svg version="1.1" id="圖層_1" xmlns="http://www.w3.org/2000/svg" xmlns:xlink="http://www.w3.org/1999/xlink" x="0px" y="0px"
	 viewBox="0 0 22 16" style="enable-background:new 0 0 22 16;" xml:space="preserve">
<style type="text/css">
	.st0{fill:#BC1111;}
</style>
<g id="home">
	<path class="st0" d="M12.1,6.8h1.6c0.3,0,0.4,0.1,0.4,0.4c0,0.2,0,0.3,0,0.5C14.1,7.9,14,8,13.7,8h-2.1v1.2h2.1
		c0.3,0,0.4,0.1,0.4,0.4c0,0.2,0,0.3,0,0.5c0,0.3-0.1,0.4-0.4,0.4h-2.1V12c0,0.2-0.1,0.4-0.4,0.4h-0.5c-0.3,0-0.4-0.1-0.4-0.4v-1.5
		h-2c-0.3,0-0.4-0.1-0.4-0.4V9.6c0-0.2,0.1-0.4,0.4-0.4h2.1V8H8.3C8.1,8,8,7.9,8,7.6V7.2c0-0.2,0.1-0.3,0.4-0.3H10L9.8,6.6L8.2,4.8
		c-0.2-0.3-0.2-0.4,0-0.6l0.3-0.3c0.2-0.2,0.3-0.2,0.5,0l1.5,1.6L11,6.2l0.9-0.9l1.2-1.4c0.2-0.2,0.3-0.2,0.6,0l0.2,0.3
		c0.2,0.1,0.2,0.3,0.1,0.5c0,0,0,0.1-0.1,0.1l-1.7,1.8L12.1,6.8z"/>
	<path class="st0" d="M9.5,14.8H1.9c-0.3,0-0.6-0.3-0.6-0.6c0,0,0,0,0,0c0-0.8,0-1.7,0-2.5c0-0.1,0.1-0.2,0.1-0.2
		C3.1,10.7,4.1,8.8,3.5,7c-0.3-1.1-1-2-2.1-2.4c-0.2,0-0.3-0.2-0.2-0.3c0-0.8,0-1.5,0-2.3c0-0.5,0.2-0.8,0.8-0.8h7.5V0H1.1
		C1,0,0.8,0.1,0.7,0.2C0.3,0.4,0.1,0.7,0,1.2v4c0.1,0.3,0.4,0.5,0.7,0.6c1,0.3,1.7,1.2,1.7,2.3c0,1.1-0.7,2-1.8,2.3
		C0.4,10.4,0.1,10.7,0,11v4c0.1,0.2,0.2,0.4,0.3,0.6C0.5,15.8,0.7,15.9,1,16h8.5V14.8z"/>
	<path class="st0" d="M21.4,5.7c0.3-0.1,0.6-0.3,0.7-0.6V1c-0.1-0.4-0.4-0.7-0.7-0.9L20.9,0h-8.4v1.2h7.5c0.4,0,0.6,0.1,0.7,0.5
		c0,0.1,0,0.2,0,0.3c0,0.8,0,1.6,0,2.4c0,0.1-0.1,0.2-0.2,0.3c-1.9,0.8-2.8,2.9-2,4.8c0.4,0.9,1.1,1.6,2,2c0.1,0,0.2,0.1,0.2,0.2
		c0,0.8,0,1.6,0,2.4c0,0.5-0.2,0.8-0.8,0.8h-7.5V16h8.5c0.2-0.1,0.4-0.2,0.5-0.3c0.2-0.2,0.3-0.4,0.4-0.7v-4.1
		c-0.1-0.3-0.4-0.5-0.7-0.6c-1.3-0.4-2.1-1.7-1.7-3C19.9,6.5,20.6,5.9,21.4,5.7L21.4,5.7z"/>
</g>
</svg>
