<svg xmlns="http://www.w3.org/2000/svg" viewBox="0 0 120 120"><defs><style>.cls-1{fill:#fed792;}</style></defs><title>ICON</title><g id="圖層_1" data-name="圖層 1"><path class="cls-1" d="M92.79.14a6,6,0,0,1,2.94,2.53Q107.29,19.37,118.91,36c.18.26.37.51.54.77a3.52,3.52,0,0,1,.36,3.76,3.57,3.57,0,0,1-3.36,2c-3,0-5.94,0-8.91,0h-1.36V106H78.07V42.54h-10a3.74,3.74,0,0,1-3.71-2,3.69,3.69,0,0,1,.56-4q12-17.21,24-34.4a11.2,11.2,0,0,1,2.49-2Z"/><path class="cls-1" d="M.21,115.69c.87-2,2.42-2.64,4.57-2.64q55.43.06,110.85,0a8.1,8.1,0,0,1,2.09.18,3.39,3.39,0,0,1,2.48,3.42,3.45,3.45,0,0,1-2.7,3.27,7.77,7.77,0,0,1-1.74.15q-55.54,0-111.08,0c-2.17,0-3.71-.71-4.47-2.8Z"/><path class="cls-1" d="M71,106H42.4V60.74c0-2.84,1.31-4.14,4.16-4.14H66.82c2.85,0,4.17,1.3,4.17,4.13V106Z"/><path class="cls-1" d="M35.37,106H7.24V81.83c0-2.83,1.32-4.13,4.17-4.14H31.19c2.86,0,4.17,1.31,4.17,4.13q0,11.48,0,23Z"/></g></svg>