<svg xmlns="http://www.w3.org/2000/svg" viewBox="0 0 120 120"><defs><style>.cls-1{fill:#fed792;}</style></defs><title>ICON</title><g id="圖層_1" data-name="圖層 1"><path class="cls-1" d="M20.22,75.07c-.49-6.67,5.7-14.85,14.92-15q2.47-19.86,5-39.82c-.51-.14-1-.23-1.38-.39a5.1,5.1,0,0,1-3.54-4.28,52.59,52.59,0,0,1,0-5.34h50.1a37.5,37.5,0,0,1-.48,6.31c-.51,2.12-2.28,3.27-4.64,3.64,1.66,13.28,3.32,26.54,5,39.89,5,.2,9.14,2,12.14,6.06a14.9,14.9,0,0,1,2.86,8.92Z"/><path class="cls-1" d="M55.18,85.22h9.87c0,.42.06.8.06,1.18,0,6.09,0,12.18,0,18.27a5,5,0,0,1-1.32,3.64,4.54,4.54,0,0,1-4.93,1.6,5.1,5.1,0,0,1-3.67-4.41C55.14,98.79,55.18,92.07,55.18,85.22Z"/></g></svg>