<svg xmlns="http://www.w3.org/2000/svg" viewBox="0 0 120 120"><defs><style>.cls-1{fill:#fed792;}</style></defs><title>ICON</title><g id="圖層_1" data-name="圖層 1"><path class="cls-1" d="M120.29,63.19c-.29,2.08-.52,4.17-.87,6.24a63.44,63.44,0,0,1-11.8,27.11c-.83,1.13-1.7,2.23-2.6,3.41,2,2,4,4.06,6.08,6a3.8,3.8,0,0,1,1.35,4c-.47,1.61-1.73,2.28-3.29,2.6l-35,7.28c-3,.63-5.09-1.4-4.47-4.44Q73.29,97.71,77,80a3.59,3.59,0,0,1,2.5-3,3.53,3.53,0,0,1,3.72,1.07q2.64,2.66,5.3,5.3c.27.27.56.52.9.83a35.39,35.39,0,0,0,7-12.43C103,51,90.13,28.07,68.86,23.29c-23-5.17-40.84,10-45.36,28.25a35.82,35.82,0,0,0,2.86,25.38c1.47,3-.08,5.49-3.38,5.5q-7.6,0-15.23,0c-2.38,0-3.38-.7-4.16-3C-1.9,63.57-.57,48.13,7,33.29,14,19.63,24.59,9.65,39,4.12,54.83-2,70.62-1,85.81,6.2c17.61,8.35,28.67,22.28,33.14,41.32.56,2.42.75,4.93,1.12,7.39.06.42.14.83.22,1.25Z"/><path class="cls-1" d="M15.45,112.54H7.37c0,1.46,0,2.85,0,4.25a3.09,3.09,0,0,1-2.05,2.88,3.13,3.13,0,0,1-3.61-.53,4.44,4.44,0,0,1-1.23-2.63c-.09-5.35-.18-10.71.05-16.05.24-5.6,5.22-10,10.89-10s10.66,4.39,10.91,10c.24,5.34.14,10.7.09,16a3.3,3.3,0,0,1-3.59,3.47,3.36,3.36,0,0,1-3.36-3.58C15.42,115.12,15.45,113.88,15.45,112.54Zm0-7.14c0-1.3,0-2.46,0-3.62a6.45,6.45,0,0,0-.14-1.16,3.82,3.82,0,0,0-3.71-3.14,3.7,3.7,0,0,0-3.91,2.7,42.21,42.21,0,0,0-.36,5.22Z"/><path class="cls-1" d="M54.52,113c1.53,0,2.89-.08,4.24,0A3.33,3.33,0,0,1,62,117a3.13,3.13,0,0,1-2.87,2.92c-2.84.11-5.7.11-8.54,0a3.23,3.23,0,0,1-2.94-2.75,6.41,6.41,0,0,1-.09-1.16q0-10.78,0-21.55c0-2.69,1.7-4.29,4.06-3.92a3.24,3.24,0,0,1,2.88,3c.07.7,0,1.41,0,2.11q0,7.91,0,15.81Z"/><path class="cls-1" d="M35.72,113c1.42,0,2.7,0,4,0a3.38,3.38,0,0,1,3.49,3.8,3.17,3.17,0,0,1-2.95,3.1c-2.81.11-5.63.12-8.43,0-1.91-.07-3.09-1.67-3.09-3.87,0-5.77,0-11.55,0-17.33,0-1.45,0-2.89,0-4.33,0-2.4,1.46-3.95,3.57-3.91s3.42,1.51,3.43,3.89c0,5.74,0,11.48,0,17.22Z"/></g></svg>