<svg xmlns="http://www.w3.org/2000/svg" viewBox="0 0 120 120"><defs><style>.cls-1{fill:#fed792;}</style></defs><title>ICON</title><g id="圖層_1" data-name="圖層 1"><path class="cls-1" d="M.21,56.39c.32-2.31.62-4.63,1-6.94.1-.69.28-1.36.45-2.17L25.54,54c-1.75,13.6,2.2,25.06,13,33.57s22.81,9.7,35.7,4.86l12.16,21.7a55.89,55.89,0,0,1-12.07,4.33A60,60,0,0,1,1.74,73.58C1.08,70.78.85,67.88.42,65c-.06-.38-.14-.76-.21-1.14Z"/><path class="cls-1" d="M63.73.14c2.35.31,4.72.54,7.06,1a58.76,58.76,0,0,1,29.07,14L82.25,32.74C63.82,17.88,36.47,25.25,27.49,47.26l-24-6.75a52.07,52.07,0,0,1,5-10.78c8.89-14.57,21.55-24,38.19-28C49.49,1,52.43.79,55.32.35c.38-.06.76-.14,1.14-.21Z"/><path class="cls-1" d="M60.18,88.22a28.08,28.08,0,1,1,28.11-28A28.17,28.17,0,0,1,60.18,88.22ZM49.52,75.64l26-26L70.9,45l-26,26Zm5.36-35.11a5.21,5.21,0,1,0,5.25,5.19A5.25,5.25,0,0,0,54.88,40.53ZM65.51,69.44a5.19,5.19,0,0,0-5.25,5.16,5.21,5.21,0,1,0,5.25-5.16Z"/><path class="cls-1" d="M92.44,110.62,80.3,89c8.13-6,13.2-13.87,14.63-23.9s-1.24-19-7.32-26.89l17.56-17.55C128.5,45.46,125,90.39,92.44,110.62Z"/></g></svg>