<svg xmlns="http://www.w3.org/2000/svg" viewBox="0 0 120 120"><defs><style>.cls-1{fill:#646464;}</style></defs><title>ICON</title><g id="圖層_1" data-name="圖層 1"><path class="cls-1" d="M55.57,70.79a9.08,9.08,0,1,1,9,9.14A9,9,0,0,1,55.57,70.79Zm4.63,0a4.44,4.44,0,1,0,4.45-4.47A4.46,4.46,0,0,0,60.2,70.84Z"/><path class="cls-1" d="M52.91,50.24a9.07,9.07,0,1,1-9.1-9A9.08,9.08,0,0,1,52.91,50.24Zm-4.63,0a4.44,4.44,0,1,0-4.43,4.49A4.41,4.41,0,0,0,48.28,50.24Z"/><path class="cls-1" d="M68.59,48.89a5.51,5.51,0,0,1-.83,1.46Q55.88,62.29,43.94,74.18a2.32,2.32,0,1,1-3.23-3.31L64.45,47.12a2.32,2.32,0,0,1,2.71-.66A2.36,2.36,0,0,1,68.59,48.89Z"/><path class="cls-1" d="M116.25,46.59a3.9,3.9,0,0,0,3.65-2.19A.87.87,0,0,0,120,44V26.9a.87.87,0,0,0-.12-.45,3.94,3.94,0,0,0-3.71-2.1c-29.68,0-59.86,0-89,0H3.79C1.21,24.37,0,25.57,0,28.16V42.58c0,2.75,1,3.83,3.79,4a13.65,13.65,0,0,1,10,5.1,13.38,13.38,0,0,1,2.69,10.66C15.35,68.55,10.35,72.9,3.7,73.4,1,73.6,0,74.67,0,77.34V91.88c0,2.47,1.26,3.73,3.73,3.75H23.47a3.74,3.74,0,0,0,2.72-1,3.19,3.19,0,0,0,.86-2.3c0-1.91-1.42-3.15-3.55-3.16h-17V79.68a20,20,0,0,0,16.6-19.24,19.73,19.73,0,0,0-3.85-12.21A19.8,19.8,0,0,0,6.53,40.34V30.91h77.7v1c0,.73,0,1.45,0,2.17,0,2.19,1.27,3.63,3.18,3.66h.06c2,0,3.21-1.42,3.22-3.7,0-1,0-1.91,0-2.85v-.31h22.76v9.41A20,20,0,0,0,96.91,58.71a20,20,0,0,0,16.55,20.93v9.45H90.73c0-.46,0-.92,0-1.38,0-.63,0-1.27,0-1.9,0-2.18-1.28-3.59-3.22-3.59h0c-1.93,0-3.19,1.44-3.2,3.64,0,.94,0,1.88,0,2.86v.44H43.4c-.22,0-.5,0-.79,0a3.16,3.16,0,0,0-2.93,2.93,3.12,3.12,0,0,0,2.4,3.36,7,7,0,0,0,1.71.16H63.64c17.09,0,34.76,0,52.14,0h0a4.36,4.36,0,0,0,4.07-2,1,1,0,0,0,.13-.47V76.06a.89.89,0,0,0-.07-.36c-.79-1.87-2.39-2.23-3.84-2.34a13.4,13.4,0,0,1,.16-26.77Z"/><path class="cls-1" d="M84.24,68c0,2.25,1.27,3.71,3.23,3.71h0c1.94,0,3.19-1.45,3.19-3.65,0-5.71,0-11,0-16.13,0-2.18-1.27-3.59-3.22-3.59h0c-1.93,0-3.19,1.44-3.2,3.64q0,2.8,0,5.61v4.77Q84.23,65.15,84.24,68Z"/><path class="cls-1" d="M33.44,89.15h-.12a3.22,3.22,0,0,0,0,6.44h0a3.22,3.22,0,0,0,.1-6.43Z"/></g></svg>