<svg xmlns="http://www.w3.org/2000/svg" viewBox="0 0 120 120"><defs><style>.cls-1{fill:#646464;}</style></defs><title>ICON</title><g id="圖層_1" data-name="圖層 1"><path class="cls-1" d="M17.11,119.63A26.91,26.91,0,0,1,13,118a10.53,10.53,0,0,1-5.5-9.46c-.06-15,0-30,0-45a3.74,3.74,0,0,1,3.78-3.92,3.79,3.79,0,0,1,3.71,4v43.94c0,3.19,1.37,4.56,4.56,4.56H37.5V71.68c0-7.34,4.73-12.05,12.1-12.05H70.69c7,0,11.8,4.81,11.81,11.76q0,19.64,0,39.26v1.48h1.84c5.47,0,10.93,0,16.4,0,2.79,0,4.26-1.47,4.26-4.27q0-31.45,0-62.92a2.07,2.07,0,0,0-.85-1.77Q83.55,26,62.94,8.84c-2.13-1.78-3.74-1.79-5.85,0L7.5,50.14a5.72,5.72,0,0,0-.53.45c-2,2.2-5.36,2.32-7-1.27V47.44a12.14,12.14,0,0,1,1.68-2.18Q27,24.11,52.34,3C57.2-1,62.85-1,67.7,3l23,19.12c.35.29.71.55,1.09.84a1.32,1.32,0,0,0,.12-.3c0-1.92,0-3.83,0-5.74,0-2.5,1.52-4.19,3.73-4.2s3.76,1.7,3.76,4.18c0,3.83,0,7.66,0,11.49a1.9,1.9,0,0,0,.79,1.67c5.83,4.83,11.67,9.67,17.45,14.56a22.08,22.08,0,0,1,2.4,2.78v1.88a4.21,4.21,0,0,1-3.31,2.79c-1.69.22-2.87-.84-4.19-2V57.6q0,25.25,0,50.48a11.29,11.29,0,0,1-7.85,11l-1.76.52ZM75,112.08V71.4c0-2.78-1.48-4.27-4.26-4.27H49.3c-2.86,0-4.3,1.45-4.3,4.34v40.61Z"/><path class="cls-1" d="M60,89.66a3.75,3.75,0,1,1-3.7-3.78A3.78,3.78,0,0,1,60,89.66Z"/></g></svg>