<svg xmlns="http://www.w3.org/2000/svg" viewBox="0 0 120 120"><defs><style>.cls-1{fill:#646464;}</style></defs><title>ICON</title><g id="圖層_1" data-name="圖層 1"><path class="cls-1" d="M111.71,36.08h-1.93q-42.52,0-85.06,0c-4.09,0-8.11-.07-12-2.47V35.2q0,12,0,24a4.1,4.1,0,0,1-2.82,4,4,4,0,0,1-4.65-1.61,5.09,5.09,0,0,1-.76-2.54c0-13.49-.11-27,0-40.46A16.84,16.84,0,0,1,21.22,2.08q40.71-.08,81.44,0a4.14,4.14,0,0,1,4.42,4.2c0,2.39-1.88,4.07-4.55,4.07H22c-4.39,0-7.74,2.38-8.9,6.29a8.68,8.68,0,0,0,7.42,11.09,20.23,20.23,0,0,0,2.2.09q46,0,92.05,0a7.22,7.22,0,0,1,3,.51c1.68.79,2.24,2.33,2.24,4.17q0,21.86,0,43.7c0,3.79,0,7.58,0,11.38a16.94,16.94,0,0,1-17,17.11c-14.22.06-28.45,0-42.67,0a4.15,4.15,0,0,1-4.47-4.15c0-2.44,1.81-4.12,4.47-4.12H102c6.15,0,9.67-3.56,9.67-9.73V36.08Z"/><path class="cls-1" d="M26.6,64.76a37.52,37.52,0,0,1,22.28,5.91c6.47,4.15,6.47,12.51,0,16.67a37.59,37.59,0,0,1-19.5,6C22.6,93.51,16,92.94,9.72,90a43.77,43.77,0,0,1-5.4-3A9.51,9.51,0,0,1,4.3,71a36.8,36.8,0,0,1,21.85-6.3A3.42,3.42,0,0,1,26.6,64.76ZM26.83,85a32.91,32.91,0,0,0,15.62-3.3,12.82,12.82,0,0,0,2.49-1.8,1.06,1.06,0,0,0,0-1.78,13.88,13.88,0,0,0-2.49-1.79,34.87,34.87,0,0,0-16-3.31,33.49,33.49,0,0,0-15.21,3.37C10.11,77,8.62,78,8.47,79c-.2,1.4,1.53,2.09,2.75,2.7A33.06,33.06,0,0,0,26.83,85Z"/><path class="cls-1" d="M77.34,15q12.8,0,25.58,0a4.1,4.1,0,0,1,1.55,7.94,7.57,7.57,0,0,1-2.28.32q-12.27,0-24.55,0c-8.44,0-16.88,0-25.32,0a7,7,0,0,1-2.4-.36A4.09,4.09,0,0,1,51.5,15Q64.41,14.94,77.34,15Z"/><path class="cls-1" d="M26.8,106.09c-7.1-.09-14-1.16-20.22-4.83a18.71,18.71,0,0,1-4.29-3.65,3.93,3.93,0,0,1,.54-5.47,3.86,3.86,0,0,1,5.4,0c2.58,2.89,6,4,9.53,4.74A39.14,39.14,0,0,0,40.38,95.5a15.28,15.28,0,0,0,4.5-2.9c1.92-1.68,4.29-2,6-.37a4.12,4.12,0,0,1,.08,6c-2.86,3.14-6.61,4.73-10.55,6A45.28,45.28,0,0,1,26.8,106.09Z"/><path class="cls-1" d="M27.77,118c-8-.19-15-1.21-21.23-4.94a18.33,18.33,0,0,1-4.2-3.56A3.93,3.93,0,0,1,2.83,104a3.86,3.86,0,0,1,5.4-.07c3.1,3.4,7.25,4.37,11.43,5.11a38.09,38.09,0,0,0,20.71-1.74,16.12,16.12,0,0,0,4.5-2.88c2-1.7,4.28-2,6-.32a4.11,4.11,0,0,1,0,6c-2.94,3.19-6.79,4.78-10.82,6a39.19,39.19,0,0,1-5.66,1.26C31.94,117.66,29.4,117.8,27.77,118Z"/><path class="cls-1" d="M92.33,57.67A6.45,6.45,0,1,1,85.84,64,6.48,6.48,0,0,1,92.33,57.67Z"/><path class="cls-1" d="M30.1,15c1.47,0,2.93,0,4.39,0a4.1,4.1,0,0,1,.79,8.1,4.88,4.88,0,0,1-1.14.15c-2.76,0-5.52.05-8.27,0A4.12,4.12,0,0,1,21.64,19,4.05,4.05,0,0,1,26,15C27.35,14.94,28.72,15,30.1,15Z"/></g></svg>