<svg xmlns="http://www.w3.org/2000/svg" viewBox="0 0 120 120"><defs><style>.cls-1{fill:#646464;}</style></defs><title>ICON</title><g id="圖層_1" data-name="圖層 1"><path class="cls-1" d="M12.6,120c-.71-.18-1.43-.35-2.13-.55a14.18,14.18,0,0,1-10-16.72Q8,70.87,38.32,58.39c.86-.35,1.74-.63,2.38-.87a87.46,87.46,0,0,1-6.44-7.22C20.53,31.16,31.81,4.19,55.06.42a31.86,31.86,0,1,1,9.46,63c-2.93.4-5.92.27-8.88.53A50.51,50.51,0,0,0,25.71,77,50.41,50.41,0,0,0,9.76,104.34c-.79,3.61,1.37,6.28,5.06,6.28q23.09,0,46.17,0a6.55,6.55,0,0,1,2.61.49,4.3,4.3,0,0,1,2.65,4.31,4.56,4.56,0,0,1-3,4.25l-.75.31ZM60.17,54.35A22.49,22.49,0,1,0,37.68,31.62,22.52,22.52,0,0,0,60.17,54.35Z"/><path class="cls-1" d="M120,98.43c-1.38,2.3-3.46,2.88-6,2.86-10.93-.09-21.86,0-32.8-.05a8,8,0,0,1-2-.19,4.65,4.65,0,0,1,1-9.16c2.27,0,4.53,0,6.8,0,9,0,18,.06,26.93,0,2.59,0,4.67.54,6,2.85Z"/><path class="cls-1" d="M120,79.68c-1.38,2.3-3.45,2.88-6,2.85-11.09-.09-22.17,0-33.26,0-3.53,0-5.84-3.07-4.73-6.23a4.72,4.72,0,0,1,4.73-3.14h26.24c2.34,0,4.69.11,7,0,2.59-.16,4.67.54,6,2.84Z"/><path class="cls-1" d="M79.4,120l-.75-.31a4.74,4.74,0,0,1-2.94-5.17,4.67,4.67,0,0,1,4.62-3.89c4.09,0,8.19,0,12.29,0,7.1,0,14.2.08,21.3,0,2.58,0,4.66.55,6,2.86v3.75a6.39,6.39,0,0,1-3.51,2.81Z"/></g></svg>