<svg xmlns="http://www.w3.org/2000/svg" viewBox="0 0 120 120"><defs><style>.cls-1{fill:#101010;}</style></defs><title>ICON</title><g id="圖層_1" data-name="圖層 1"><path class="cls-1" d="M58.89,109.52v3.07a.5.5,0,0,1-.5.5H56a.5.5,0,0,1-.5-.5c0-.74,0-1.48,0-2.23a1,1,0,0,0-.81-1.19,6.56,6.56,0,0,1-4.2-5.47.7.7,0,0,1,.7-.77h2a.73.73,0,0,1,.69.53h0a3.44,3.44,0,0,0,5.6,2,2.39,2.39,0,0,0,.89-1.16,3.45,3.45,0,0,0-3.08-4.89c-3.18-.21-5.73-1.7-7.09-6a5.54,5.54,0,0,1,3.6-6.88c1.3-.42,1.81-.69,1.73-1.7a17.25,17.25,0,0,1,0-2,.51.51,0,0,1,.51-.51h2.42a.51.51,0,0,1,.52.51c0,.7,0,1.39,0,2.08a1.16,1.16,0,0,0,.88,1.35A6.49,6.49,0,0,1,63.94,92a.51.51,0,0,1-.51.54H61.09a.5.5,0,0,1-.49-.36c-.66-2.27-2.15-3.32-4.11-2.92a3.44,3.44,0,0,0-2.73,3.44,3.35,3.35,0,0,0,2.94,3.24,7.72,7.72,0,0,1,5.63,2.44,6.78,6.78,0,0,1-2.73,10.85Z"/><path class="cls-1" d="M14.36,21.69h.25a4.71,4.71,0,0,0-.73.68c0-.05,0-.1,0-.15A.49.49,0,0,1,14.36,21.69Z"/><path class="cls-1" d="M22,18.56a4.89,4.89,0,0,1,1.05,2,1.94,1.94,0,0,1-.35,0c-.71,0-1.42,0-2.13,0a2.41,2.41,0,0,0-2.06-1.27c-2.18-.14-3.93-1.17-4.86-4.09a3.79,3.79,0,0,1,2.47-4.72c.89-.29,1.24-.47,1.18-1.17a13,13,0,0,1,0-1.4.35.35,0,0,1,.35-.35h1.66a.36.36,0,0,1,.36.35c0,.48,0,1,0,1.42a.81.81,0,0,0,.6.94,4.43,4.43,0,0,1,2.87,3.9.35.35,0,0,1-.35.37H21.17a.36.36,0,0,1-.34-.25c-.45-1.55-1.47-2.28-2.82-2a2.35,2.35,0,0,0-1.87,2.36,2.29,2.29,0,0,0,2,2.22A5.3,5.3,0,0,1,22,18.56Z"/><path class="cls-1" d="M44.1,99.4H42.79a1.05,1.05,0,0,1-1-1c0-.62,0-1.23,0-1.85a.7.7,0,0,1,.47-.49c.62,0,1.24,0,1.87,0a1,1,0,0,1,1,1.05v1.31A1,1,0,0,1,44.1,99.4Z"/><path class="cls-1" d="M71.5,99.39H70.26a1.08,1.08,0,0,1-1.07-1.06c0-.6,0-1.19,0-1.77a.8.8,0,0,1,.53-.54c.58,0,1.16,0,1.75,0a1.05,1.05,0,0,1,1.06,1.06v1.27A1.06,1.06,0,0,1,71.5,99.39Z"/><path class="cls-1" d="M88,36.3,83.31,52a1.7,1.7,0,0,1-2.12,1.14h0A1.7,1.7,0,0,1,80,51c1.31-4.4,2.62-8.77,3.94-13.2,0,0,0,0,0,0H77.83a1.69,1.69,0,0,1-1.69,1.57h0a1.72,1.72,0,0,1-1.73-1.73V35.8a1.44,1.44,0,0,1,1.44-1.44H86.59A1.5,1.5,0,0,1,88,36.3Z"/><path class="cls-1" d="M63.36,36.3,58.64,52a1.71,1.71,0,0,1-2.13,1.14h0A1.7,1.7,0,0,1,55.37,51c1.31-4.4,2.62-8.77,3.94-13.2,0,0,0,0,0,0H53.16a1.69,1.69,0,0,1-1.69,1.57h0a1.72,1.72,0,0,1-1.73-1.73V35.8a1.44,1.44,0,0,1,1.44-1.44H61.92A1.5,1.5,0,0,1,63.36,36.3Z"/><path class="cls-1" d="M39.69,36.3,35,52a1.71,1.71,0,0,1-2.13,1.14h0A1.71,1.71,0,0,1,31.7,51c1.32-4.4,2.63-8.77,3.95-13.2,0,0,0,0,0,0H29.5a1.7,1.7,0,0,1-1.7,1.57h0A1.73,1.73,0,0,1,26,37.66V35.8a1.45,1.45,0,0,1,1.44-1.44H38.26A1.5,1.5,0,0,1,39.69,36.3Z"/><path class="cls-1" d="M101.71,26.53a7.33,7.33,0,0,0-.4-2.73,4.91,4.91,0,0,0-4.78-3.2c-1.66,0-3.32,0-5,0a1,1,0,0,1-1.1-.7c-.87-1.8-1.8-3.58-2.66-5.38a1.18,1.18,0,0,0-1.24-.8H35.92A18.12,18.12,0,1,0,12.63,35.31q0,24.19,0,48.38a5.1,5.1,0,0,0,5.48,5.43c5.74,0,11.48,0,17.22,0h1.21c-.33,1.16-.66,2.16-.92,3.18a22.08,22.08,0,0,0,1.3,14.59,22.53,22.53,0,0,0,9.86,10.51A22.09,22.09,0,0,0,63.62,119a21.52,21.52,0,0,0,6.74-3.36,1.66,1.66,0,0,0,.24-2.4l-.06-.06a1.67,1.67,0,0,0-2.22-.28,18.59,18.59,0,0,1-16.41,2.86,18.13,18.13,0,0,1-10.34-7.54,18.85,18.85,0,1,1,31.25.08,1.67,1.67,0,0,0,.34,2.22l0,0a1.66,1.66,0,0,0,2.44-.39c4.21-6.51,4.94-13.45,2.17-21,.43,0,.79-.05,1.14-.05,5.67,0,11.35,0,17,0,3.34,0,5.17-1.49,5.77-4.76V55.27C101.73,45.69,101.74,36.11,101.71,26.53ZM13.88,22.37A5.49,5.49,0,0,0,12.63,26V31.3A14.37,14.37,0,1,1,32,13.73H27.83a1.2,1.2,0,0,0-1.25.8C25.73,16.3,24.81,18,24,19.82a1.14,1.14,0,0,1-.9.77,1.94,1.94,0,0,1-.35,0c-.71,0-1.42,0-2.13,0s-1.69,0-2.54,0a5.65,5.65,0,0,0-3.44,1.09A4.71,4.71,0,0,0,13.88,22.37Zm55.9,56.5a3.06,3.06,0,0,1-1.35-.36q-11.28-6.21-22.53,0a2,2,0,0,1-.84.33c-3.9,0-7.81,0-11.83,0V68.64H81.09V78.88h-2.7C75.52,78.88,72.65,78.9,69.78,78.87Zm28.55,4.44c0,1.84-.58,2.43-2.42,2.43-6.4,0-12.8,0-19.2,0a1.74,1.74,0,0,1-1.17-.57c-.74-.85-1.39-1.78-2.2-2.84H84.56V65.24H29.85v17H41.08c-1,1.27-1.79,2.38-2.66,3.46-.1.12-.46.06-.7.06H18.31c-1.64,0-2.24-.61-2.24-2.27q0-23.68,0-47.38v-9.8a6.4,6.4,0,0,1,0-.64h0c.14-1.26.77-1.61,2.51-1.61H78a1.41,1.41,0,0,0,1-.42,1.44,1.44,0,0,0,.41-1V22A1.42,1.42,0,0,0,78,20.6H27.39c.58-1.13,1.05-2.12,1.58-3.08a.84.84,0,0,1,.57-.32,4.92,4.92,0,0,1,.94,0h6q23.73,0,47.48,0c1,0,1.61.23,2,1.2A23.65,23.65,0,0,0,87,20.6H84.55a1.71,1.71,0,0,0-1.21.5,1.73,1.73,0,0,0-.5,1.22A1.71,1.71,0,0,0,84.55,24H95.92c1.87,0,2.41.55,2.41,2.41Z"/><path class="cls-1" d="M118.48,15.59a8.79,8.79,0,0,0-.86-1.17A8.56,8.56,0,0,0,103,17.85,8.34,8.34,0,0,0,105.14,26a6.4,6.4,0,0,1,.7.77,3.06,3.06,0,0,1,.28,1.78c0,.15,0,.3,0,.43,0,.86,0,1.72,0,2.58v5.15c0,3.39,0,6.77,0,10.16,0,.27,0,.54,0,.79h0v4.64a2.72,2.72,0,0,1,0,.42q0,7.14,0,14.28a5.14,5.14,0,0,0,3.59,4.24l.49.1a5.43,5.43,0,0,0,2.66-.13l.11,0a2.46,2.46,0,0,0,.38-.14l.18-.08a5,5,0,0,0,1-.66l.09-.08a4.22,4.22,0,0,0,1-1.25,8.29,8.29,0,0,0,.76-3.48c0-12.31,0-24.62,0-36.93v-.62c0-.43,0-1,.26-1.24A8.5,8.5,0,0,0,118.48,15.59ZM113,28.53v1.11q0,17.89,0,35.79c0,1.75-.54,2.55-1.72,2.55s-1.72-.83-1.72-2.56V28.53Z"/><path class="cls-1" d="M103.67,82.36H98.33V51h5.34a6.14,6.14,0,0,1,6.14,6.14V76.22A6.14,6.14,0,0,1,103.67,82.36Zm-1.59-3.75h1.59a2.39,2.39,0,0,0,2.39-2.39V57.16a2.39,2.39,0,0,0-2.39-2.39h-1.59Z"/><path class="cls-1" d="M19.56,27.52V61.63H94.82V27.52ZM43.43,58.24H23V31H43.43Zm23.94,0H47V31H67.37Zm24,0H71V31H91.42Z"/></g></svg>