<svg xmlns="http://www.w3.org/2000/svg" viewBox="0 0 120 120"><defs><style>.cls-1{fill:#efcc8e;}</style></defs><title>ICON</title><g id="圖層_1" data-name="圖層 1"><path class="cls-1" d="M73.42,16.75a16,16,0,1,1-15.94,16A16,16,0,0,1,73.42,16.75Zm.08,3.52A12.46,12.46,0,1,0,85.93,32.75,12.51,12.51,0,0,0,73.5,20.27Z"/><path class="cls-1" d="M75.3,24.66c.5,0,.92.05,1.34.1a1.61,1.61,0,0,1,1.59,1.7,1.57,1.57,0,0,1-1.58,1.7c-1.67.08-3.35,0-5,.1a1.69,1.69,0,0,0-1.25.56,1.07,1.07,0,0,0,1,1.67c1.49,0,3,0,4.45,0a4.35,4.35,0,0,1,4.32,4c.22,2.69-1,4.63-3.31,5.2a13.5,13.5,0,0,1-1.56.2c-.13,1.34.13,3.14-1.92,3.07-1.85-.06-1.63-1.73-1.72-3.14h-2c-1.28,0-2.06-.7-2.06-1.74s.8-1.75,2.07-1.77c1.87,0,3.75,0,5.62,0,.78,0,1.4-.09,1.42-1.09S76.08,34,75.24,34c-1.33,0-2.66,0-4,0a4.32,4.32,0,0,1-4.5-4.25c-.14-2.85,1.37-4.69,4.09-5,.27,0,.53-.09.78-.13.24-2.24.66-2.91,1.83-2.92S75.09,22.38,75.3,24.66Z"/><path class="cls-1" d="M115.55,11.06c-2.68.11-5.39,0-8.08,0-.41,0-.82-.05-1.3-.07.07-1.43.15-2.71.2-4,.1-2.82-1.25-4.22-4.07-4.22H44.63c-2.81,0-4.17,1.42-4.07,4.22,0,1.31.13,2.63.2,4.06H39.35c-3,0-5.94,0-8.91,0A3.21,3.21,0,0,0,27,14.7c0,1.44.09,2.89.23,4.32a43,43,0,0,0,6.73,20.1c1.12,1.67,2.4,3.22,3.69,4.93h-.85A35.93,35.93,0,0,0,20.16,48C8.58,54.09,1.72,63.65.26,76.64-1.12,89,3,99.69,12.38,107.89c10.89,9.49,23.45,11.66,37.05,6.81a23.44,23.44,0,0,1,8.26-1.51c12.69.07,25.39,0,38.09,0,2.31,0,3.44-1.12,3.48-3.42q0-1.35,0-2.7c0-2.23-1.17-3.36-3.41-3.41H92.5c0-1.34,0-2.56,0-3.77h0V91.11c0-1.52,0-3,0-4.56a3,3,0,0,0-3.17-3.15c-1.16,0-2.33,0-3.6,0,0-1.34,0-2.55,0-3.75a3.33,3.33,0,0,0-3.5-3.45c-.89,0-1.77,0-2.69,0V72.31c.77,0,1.46,0,2.15,0a3,3,0,0,0,3-3.1,17.09,17.09,0,0,0,0-2.58,4.29,4.29,0,0,1,2-4.47c3.6-2.7,6.14-6.4,8.5-10.21a2.4,2.4,0,0,1,1.39-1,22,22,0,0,0,11.07-5.49c6.42-5.77,9.79-13.21,11.43-21.52.41-2.1.64-4.23,1-6.34V13.33C119.05,11.51,117.53,11,115.55,11.06ZM41.94,22.46c.81,3.69,1.54,7.39,2.36,11.07.3,1.37.76,2.69,1.06,4.06-4.24-4.45-6-10-7.22-16,1.12,0,2.12-.06,3.12,0C41.52,21.67,41.86,22.14,41.94,22.46Zm-11.51-7.8H41c.12,1.11.22,2.18.34,3.42H38c-2.61,0-3.81,1.48-3.31,4,1,5.06,2.37,10,5.21,14.32a23.88,23.88,0,0,0,7.43,7.51c.64.4,1,1.27,1.57,2.05-4.18-.33-7-2.53-9.41-5.33C33,33.2,30.75,24.34,30.43,14.66Zm38.92,69.5a32.28,32.28,0,0,1-4.62,13.5,1.63,1.63,0,0,1-1.19.65c-1.87.07-3.75,0-5.62,0s-3.67,0-5.5,0a2.42,2.42,0,0,1-1.49-.65c-1.32-1.38-2.59-2.82-3.79-4.31a1.71,1.71,0,0,1-.3-1.41c1.23-4,2.54-8,3.88-12a1.64,1.64,0,0,1,1-.94q3.72-1.22,7.5-2.24a2.18,2.18,0,0,1,1.57.31c2.66,1.85,5.25,3.79,7.9,5.67A1.36,1.36,0,0,1,69.35,84.16Zm1.47,9a.84.84,0,0,1,.6-.43c3.71,0,7.4,0,11.17,0v5.71H68.51C69.29,96.65,70,94.91,70.82,93.18ZM62.74,61.64c-1.12,3.61-2.3,7.21-3.51,10.79a1.47,1.47,0,0,1-.82.84c-2.61.81-5.22,1.57-7.84,2.34l-.48.12a5.69,5.69,0,0,1-.7-.38c-3.51-2.54-7-5.08-10.52-7.66a2.25,2.25,0,0,1-.75-1.14V60.19a4.51,4.51,0,0,1,0-.52c.07-1.94,1.22-2.58,2.53-3.5,2.58-1.82,5.13-3.69,7.68-5.57a1.36,1.36,0,0,1,1.58-.19A33.06,33.06,0,0,1,62.49,60.3,1.77,1.77,0,0,1,62.74,61.64ZM10.67,60.12a31.94,31.94,0,0,1,12.56-9.71,1.56,1.56,0,0,1,1.33.15q4.79,3.38,9.49,6.88a2.54,2.54,0,0,1,.66,1.34c0,.13,0,.26.07.4v7.38a3,3,0,0,1-.88,1.31c-3.36,2.49-6.74,5-10.16,7.36a2.53,2.53,0,0,1-1.79.33c-2.27-.51-4.54-1.12-6.78-1.78A2,2,0,0,1,14,72.7c-1.26-3.69-2.46-7.41-3.62-11.13A1.86,1.86,0,0,1,10.67,60.12ZM21.2,98.87c-1.87.07-3.75,0-5.62,0s-3.76,0-5.63,0a1.42,1.42,0,0,1-1.41-.74,33.9,33.9,0,0,1-4.8-13.33,1.6,1.6,0,0,1,.72-1.77c2.65-1.85,5.24-3.81,7.9-5.66a2,2,0,0,1,1.46-.28c2.5.58,5,1.24,7.46,2a1.79,1.79,0,0,1,1.07,1c1.36,4,2.66,8.07,3.93,12.12a1.81,1.81,0,0,1-.23,1.36c-1.12,1.59-2.29,3.16-3.52,4.66A2,2,0,0,1,21.2,98.87Zm22.53,13.91a30.65,30.65,0,0,1-14.47,0,1.25,1.25,0,0,1-.75-.71q-1.76-5.2-3.4-10.44a1.5,1.5,0,0,1,.21-1.16c1.23-1.71,2.5-3.4,3.82-5a2,2,0,0,1,1.25-.6c2.07-.06,4.13,0,6.21,0s4.06-.05,6.08,0a2.53,2.53,0,0,1,1.58.69c1.28,1.32,2.48,2.71,3.64,4.13a1.68,1.68,0,0,1,.32,1.3q-1.72,5.52-3.57,11A1.53,1.53,0,0,1,43.73,112.78Zm50.45-5.56h1.5v2.42H58.78c1.48-1.44,2.74-2.52,5-2.49C73.89,107.3,84,107.22,94.18,107.22ZM89,87V99.92c0,1.22,0,2.44,0,3.7H65A2.33,2.33,0,0,1,67.46,102c5.2.08,10.39,0,15.59,0,2.22,0,3.12-.9,3.13-3.12s0-4.3,0-6.45c0-2.35-.88-3.22-3.28-3.22H73.41c-.41,0-.81,0-1.35-.08L72.51,87ZM72.13,72.4h3.75v3.74H72.79C72.57,74.91,72.36,73.71,72.13,72.4Zm10,7.38v3.56h-9V79.78Zm-1-11H74.58a16.42,16.42,0,0,0-2.22,0c-1,.14-1.46-.33-1.74-1.23s-.74-1.87-1.16-2.89h11.6ZM92.83,48.92c-2.52,4.5-5.51,8.63-9.8,11.63a3.2,3.2,0,0,1-1.71.54c-4.3,0-8.6,0-12.89,0a1.67,1.67,0,0,1-1.61-.87A37,37,0,0,0,54.71,48.9,4.58,4.58,0,0,1,53.1,47a81.6,81.6,0,0,1-6.94-21A121.43,121.43,0,0,1,44.1,7.25c0-.26,0-.53,0-.87h58.53a52.82,52.82,0,0,1,0,5.49c-.48,4.5-1.1,9-1.7,13.48-.19,1.45.23,2.36,1.34,2.56s1.84-.46,2.11-1.94c.24-1.23.4-2.46.68-3.68a1.06,1.06,0,0,1,.71-.66c1-.08,1.94,0,3,0-1.18,6-3,11.54-7.31,16l.78-2.67c.38-1.33,0-2.3-1-2.6s-1.92.23-2.31,1.57A71.91,71.91,0,0,1,92.83,48.92Zm22.92-26.57a36,36,0,0,1-8.36,18.39,20.64,20.64,0,0,1-8.69,6,2.4,2.4,0,0,1-.44.12c-.07,0-.14,0-.3,0a5.88,5.88,0,0,1,2.35-3.4,23.57,23.57,0,0,0,8.42-10,44.6,44.6,0,0,0,3.59-11.58,2.93,2.93,0,0,0-2.93-3.73c-1.19-.05-2.4,0-3.79,0,.11-1.23.21-2.28.31-3.4h10.7C116.34,17.27,116.18,19.83,115.75,22.35Z"/></g></svg>