<svg xmlns="http://www.w3.org/2000/svg" viewBox="0 0 120 120"><defs><style>.cls-1{fill:#efcc8e;}</style></defs><title>ICON</title><g id="圖層_1" data-name="圖層 1"><path class="cls-1" d="M114.39,68.79a.57.57,0,0,1-.27-.37.56.56,0,0,1,.08-.45c.18-.29.37-.58.56-.87a21.92,21.92,0,0,0,1.19-2c1.92-3.8.7-7.54-3.1-9.5h0c-.91-.47-2-1-1.93-2.64a1.64,1.64,0,0,0-.19-.57c0-.07-.07-.14-.09-.2-.88-2-4.57-4-7.6-4a4.52,4.52,0,0,0-1.87.35,2.59,2.59,0,0,1-1,.19,2.43,2.43,0,0,1-1-.23c-6.94-3.5-14.26-7.25-21.77-11.13a2.54,2.54,0,0,1-1.19-1.65,4.78,4.78,0,0,0-2.82-3.69c-1-.48-2-1-2.94-1.49-.67-.35-1.34-.7-2-1a4.56,4.56,0,0,0-2-.53,3.88,3.88,0,0,0-1.91.51,2.61,2.61,0,0,1-1.26.36,2.86,2.86,0,0,1-1.35-.38C58.21,27.65,54.56,25.79,51,24L47.7,22.29l-.28-.15c-.27-.14-.52-.27-.77-.37a2.31,2.31,0,0,0-.69-.13,1.28,1.28,0,0,0-1.16.81,1.35,1.35,0,0,0,.52,1.91,14,14,0,0,0,1.68.91l.7.36,12.12,6.19.79.44.31.17a.62.62,0,0,1,.25.8L58.2,39a.61.61,0,0,1-.53.32.68.68,0,0,1-.28-.07L25.6,23a.59.59,0,0,1-.29-.35.61.61,0,0,1,0-.46l3-5.78a.59.59,0,0,1,.52-.32.67.67,0,0,1,.28.06l2.55,1.31L37.1,20.2l.28.14a4.44,4.44,0,0,0,.77.36,2.11,2.11,0,0,0,.67.12A1.27,1.27,0,0,0,40,20a1.36,1.36,0,0,0-.54-1.91,6.59,6.59,0,0,0-.83-.46l-.32-.16-17.56-9L20,8.08l-.65-.35A.62.62,0,0,1,19,7.29a.6.6,0,0,1,.16-.51l.2-.19.21-.22a2.84,2.84,0,0,0,.27-3.65,2.5,2.5,0,0,0-2.34-1.19,6.35,6.35,0,0,0-1.23.14c-4,.79-8.73,1.73-13.49,2.65A3.45,3.45,0,0,0,.28,6a3.28,3.28,0,0,0,.13,2.9c1.05,2.31,2.11,4.61,3.17,6.92Q4.9,18.61,6.2,21.46a4.63,4.63,0,0,0,1.19,1.69,2.34,2.34,0,0,0,1.53.55h.24a2.86,2.86,0,0,0,2.78-2.4L12,21a.54.54,0,0,1,.33-.39.52.52,0,0,1,.24,0,.67.67,0,0,1,.28.06l25.41,13,.17.08a.61.61,0,0,1,.32.53.57.57,0,0,1-.31.53l-1,.52c-.93.52-2,1.1-3,1.64a1,1,0,0,1-.5.11,2.5,2.5,0,0,1-1-.27c-.4-.18-.8-.38-1.18-.57s-.79-.42-1.18-.59a6,6,0,0,0-2.38-.5,5.82,5.82,0,0,0-5.11,3A6.22,6.22,0,0,0,22.58,43a4.55,4.55,0,0,0,2.33,2.79c2.87,1.41,3.76,3.45,4.25,6.28a12.69,12.69,0,0,0,6.4,8.89A6.42,6.42,0,0,1,38,58.83c-.29-.15-.58-.32-.87-.49A11.45,11.45,0,0,1,43,37.13a10.19,10.19,0,0,1,4,.81,54.28,54.28,0,0,1,6.15,3.23c.85.49,1.64,1,2.45,1.4a.6.6,0,0,1,.24.8L52.7,49.5l-4.43,8.64a15.86,15.86,0,0,1,3.17,1.2c.12-.25.25-.51.38-.76l3.63-7.08c3-5.86,6.1-11.92,9.13-17.9a2.19,2.19,0,0,1,1.85-1.48,2.78,2.78,0,0,1,1.37.45c.76.46,1.58.86,2.38,1.26.39.18.77.37,1.16.57,2.06,1.07,2.21,1.49,1.17,3.52q-2.51,4.89-5,9.79l-2.59,5c-.15.3-.3.59-.46.88-.38.72-.76,1.45-1.08,2.18a1.76,1.76,0,0,0,.11,1.63,1.09,1.09,0,0,0,.91.53l.21,0a2.7,2.7,0,0,0,1.55-1.18C67,55.21,67.85,53.6,68.63,52c.3-.61.6-1.22.91-1.83a.61.61,0,0,1,.53-.33.66.66,0,0,1,.27.06c1.07.54,2.13,1.06,3.19,1.57,2.58,1.26,5,2.44,7.46,3.77a4.65,4.65,0,0,1,1.75,6.06c-.34.7-.69,1.39-1,2.08l1.37.7a1.52,1.52,0,0,1,.34.22l.58.42.27.2a.71.71,0,0,1,.08-.15c1-1.87,1.93-3.62,1.8-5.92a.59.59,0,0,1,.26-.53.58.58,0,0,1,.33-.1.6.6,0,0,1,.26,0l.46.21.53.24,5.19,2.65,20.26,10.37A5.93,5.93,0,0,1,116.86,79c-2.38,11.36-4.83,22.89-7.19,34-.13.67-.51,2.45-2.13,2.45a4.22,4.22,0,0,1-1.88-.57q-6.16-3.14-12.32-6.3l-2.64-1.35c-2-1-2.22-1.53-1.76-3.72q1.86-8.9,3.74-17.77c.91-4.31.13-6-3.77-8l-.12.48a2,2,0,0,1-.2.53l-.9,1.77,1.2.65A2.8,2.8,0,0,1,90,83.56a19.68,19.68,0,0,1-.57,3.13c-.1.44-.2.89-.3,1.37a.59.59,0,0,1-.33.41.58.58,0,0,1-.26.06.54.54,0,0,1-.27-.07c-.63-.32-1.24-.63-1.84-.92-.8-.41-1.57-.79-2.32-1.19l-.88,1.07c-.36.41-.73.83-1.11,1.24,1.34.64,2.68,1.32,4,2,.61.32,1.22.63,1.84.93a.61.61,0,0,1,.31.67l-.7,3.2a.62.62,0,0,1-.33.42.57.57,0,0,1-.25.06.64.64,0,0,1-.28-.07l-2.54-1.32-4.25-2.19c-.34-.17-.66-.35-1-.54-.8.71-1.63,1.4-2.48,2,.34.21.69.42,1,.6,2.51,1.32,5.19,2.71,7.89,4a1.76,1.76,0,0,1,1.07,2.32,28.77,28.77,0,0,0-.65,3.19,4.92,4.92,0,0,0,2.56,5.35c5.48,2.87,11.13,5.76,16.8,8.58a5.65,5.65,0,0,0,1.89.43c.29,0,.59.07.89.13l2.14-.69c1.63-1.29,2.29-3.09,2.76-5.4,1.63-8,3.34-16,5-23.83l1.74-8.22C120.77,74.82,119.45,71.92,114.39,68.79ZM31.18,40l-1.69,3.26-.41.79a.59.59,0,0,1-.53.32.69.69,0,0,1-.24,0l-.2-.09c-1.17-.49-2.77-1.17-2.72-3.11a3.47,3.47,0,0,1,1.36-2.51,2.59,2.59,0,0,1,1.5-.5,4.49,4.49,0,0,1,2.27.85l.42.25A.6.6,0,0,1,31.18,40Zm63.54,18.3a.58.58,0,0,1-.28-.07L72.25,46.85a.6.6,0,0,1-.26-.8l2.73-5.45a.58.58,0,0,1,.35-.3.38.38,0,0,1,.18,0,.64.64,0,0,1,.28.06l22.25,11.4a.59.59,0,0,1,.3.34.66.66,0,0,1,0,.46L95.25,58A.57.57,0,0,1,94.72,58.29Zm9.16,4.41a.59.59,0,0,1-.79.27l-4.77-2.38a.6.6,0,0,1-.32-.67l0-.14a1.13,1.13,0,0,1,.11-.36l.62-1.24c.62-1.22,1.25-2.49,1.91-3.71.3-.59.55-1.08.74-1.48.63-1.29,1-2,1.87-2a5.34,5.34,0,0,1,2.18.86l1.45.75a.69.69,0,0,1,.46.42,2.72,2.72,0,0,0,.17.43,1.83,1.83,0,0,1,.23,1.5c-1,2-2,4-3,5.95C104.49,61.51,104.19,62.11,103.88,62.7Zm7.66,4.12a.63.63,0,0,1-.49.25.67.67,0,0,1-.28-.06l-.23-.12L106.91,65a.6.6,0,0,1-.26-.8l3.06-6.11a.63.63,0,0,1,.54-.33.52.52,0,0,1,.21,0c1.81.66,2.89,1.56,3.26,2.76C114.32,62.49,113,64.8,111.54,66.82Z"/><path class="cls-1" d="M104.08,107.17l-.53-.07a7,7,0,0,1-1.78-.34,54.37,54.37,0,0,1-4.94-2.49l-.35-.19A2.61,2.61,0,0,1,95,101c.68-3.46,1.6-8,2.65-12.57a2.7,2.7,0,0,1,1.78-2,3,3,0,0,1,.84-.13,3.21,3.21,0,0,1,1.31.3c1.72.81,3.51,1.73,5.45,2.8a2.58,2.58,0,0,1,1.42,3.08c-.91,4.55-1.88,9-2.62,12.46A3.28,3.28,0,0,1,104.08,107.17Z"/><path class="cls-1" d="M86.84,76.06c.93-3.48-.19-6.24-3-8.42-.62-.48-1.25-.93-1.88-1.4l-2.8-1.43-.56-.17c-1.53-.49-3-1.09-4.6-1.47a43,43,0,0,0-20.27,0,1,1,0,0,1-.95-.19A14.22,14.22,0,0,0,40,60.6a3.91,3.91,0,0,0-2.81,5.3c.54,1.66,1.07,3.32,1.62,5a.7.7,0,0,1-.2.85c-1,1-2,2.06-3,3.15a70.9,70.9,0,0,0-8.49,12.38c-.11.2-.23.38-.38.63-.17-.28-.29-.46-.41-.64a14.41,14.41,0,0,0-16.29-6c-1,.3-1.36.92-1.05,1.83a14,14,0,0,0,8.23,8.77A37.43,37.43,0,0,0,20.84,93l-.56.6a14.22,14.22,0,0,0-3.34,14c.33,1.2,1,1.52,2.12,1.07a14.15,14.15,0,0,0,9.55-12.52c.09-.83,0-1.68,0-2.57l.68.31A67.15,67.15,0,0,0,47.7,99.71a.66.66,0,0,1,.6.56c.54,1.71,1.08,3.41,1.65,5.11A3.89,3.89,0,0,0,55.16,108a14.18,14.18,0,0,0,9.08-9.36,1.35,1.35,0,0,1,.82-.89A43.62,43.62,0,0,0,81.44,85.86c.82-1,1.56-2,2.33-3l2.69-5.25C86.59,77.11,86.7,76.59,86.84,76.06ZM82.43,80a33.49,33.49,0,0,1-7.2,8.4,1.06,1.06,0,0,1-.84.2,14,14,0,0,1-8.16-6.16c-.11-.17-.2-.34-.31-.5a1.31,1.31,0,0,0-1.78-.45,1.23,1.23,0,0,0-.42,1.82,36.18,36.18,0,0,0,2.75,3.55,15.63,15.63,0,0,0,5.73,3.8l.09.25c-1.94,1.12-3.86,2.27-5.83,3.33-6.8,3.7-14,4.06-21.4,2.38a72.06,72.06,0,0,1-16.25-5.93l-.3-.19a1.9,1.9,0,0,1,.12-.36,68.21,68.21,0,0,1,12-16.77c5.45-5.46,12.11-8,19.64-8.58,1.14-.1,2.29-.13,3.55-.2-.42.81-.79,1.51-1.13,2.22a16.29,16.29,0,0,0-1.48,5.33,1.35,1.35,0,0,0,1.09,1.66,1.32,1.32,0,0,0,1.5-1.34,14.71,14.71,0,0,1,2.68-7,1.33,1.33,0,0,1,1.4-.65,31.21,31.21,0,0,1,11.93,3.37,19.77,19.77,0,0,1,3.51,2.68,3.76,3.76,0,0,1,1.13,3.47A14.62,14.62,0,0,1,82.43,80Z"/><path class="cls-1" d="M63.45,76.53a1.3,1.3,0,0,0-1.73.59A1.3,1.3,0,0,0,64,78.31,1.32,1.32,0,0,0,63.45,76.53Z"/></g></svg>