<svg xmlns="http://www.w3.org/2000/svg" viewBox="0 0 120 120"><defs><style>.cls-1{fill:#efcc8e;}</style></defs><title>ICON</title><g id="圖層_1" data-name="圖層 1"><path class="cls-1" d="M111.83,15.15c-.44-.07-.89-.17-1.35-.25.06-.46.1-.8.14-1.15.37-3.84-1.33-6-5.15-6.54-5.29-.72-10.6-1.4-15.9-2.11L51.85.06a5.24,5.24,0,0,0-6.19,4.47c-.47,3-.82,6-1.21,8.93Q42.24,30,40.07,46.54a1.53,1.53,0,0,1-1.34,1.55C28.33,50.7,18,53.37,7.56,56a5.23,5.23,0,0,0-4.09,6.74c1.45,5.79,2.94,11.57,4.42,17.35.37,1.47,1.16,2.08,2.23,1.8s1.52-1.2,1.16-2.63L7,62.39c-.49-1.93-.12-2.57,1.77-3l31.75-8.08c2.16-.55,2.75-.22,3.28,1.88l3.73,14.62c.35,1.38.68,2.76,1,4.27-.53-.09-.87-.14-1.21-.21L32.74,68.58A5.26,5.26,0,0,0,26,72.85c-1.46,6.54-3.06,13.07-4.31,19.65-.45,2.33-1.4,3.39-3.68,3.68-1.76.23-2.38,0-2.83-1.68-.55-2.11-1.06-4.24-1.64-6.34a1.68,1.68,0,0,0-2.17-1.25A1.69,1.69,0,0,0,10.15,89c.59,2.42,1.15,4.86,1.87,7.24a5.22,5.22,0,0,0,6.13,3.48c.6-.12,1.19-.26,2-.43-.51,2.3-1,4.42-1.43,6.55A5.28,5.28,0,0,0,23,112.48q12.29,2.72,24.56,5.45c2.92.66,5.82,1.38,8.73,2.07h2.12a6,6,0,0,0,4.44-5.43c.07-.46.18-.92.29-1.38.46-2,.93-4.06,1.38-6.06a5.86,5.86,0,0,1,.64,0q17,2.25,34,4.52a5.21,5.21,0,0,0,6.14-4.51c.51-3.39.95-6.8,1.38-10.21.24-1.92-.2-2.79-1.41-2.94s-1.85.7-2.09,2.55c-.4,3.21-.82,6.43-1.25,9.64-.23,1.69-.94,2.16-2.66,1.93L72,104.51c-2.2-.29-4.39-.6-6.66-.91.08-.48.13-.86.21-1.23q2.19-9.87,4.38-19.76c.73-3.35-.86-5.93-4.17-6.69q-6.16-1.41-12.34-2.75a1.27,1.27,0,0,1-1.15-1.07c-1-4.06-2-8.1-3.06-12.14a3,3,0,0,1-.12-1.14c.4-3.1.83-6.2,1.24-9.29s.87-6.34,1.25-9.52A1.69,1.69,0,0,0,50,37.92a1.76,1.76,0,0,0-2,1.72c-.1.66-.16,1.32-.25,2-.38,2.81-.76,5.62-1.15,8.48-.7-.66-1.23-1.46-2-1.75-1.28-.51-1.19-1.33-1-2.4Q46.34,25.82,49,5.68c.24-1.81,1-2.33,2.78-2.08Q65.47,5.45,79.17,7.25c8.59,1.15,17.18,2.28,25.76,3.44,2.25.31,2.86,1.62,1.81,3.77-2.69-.36-5.39-.74-8.1-1.09L72.76,10C67.84,9.3,62.94,8.6,58,8c-3.44-.43-5.88,1.29-6.36,4.55-.87,6-1.63,12.07-2.42,18.11a1.76,1.76,0,0,0,1.5,2.24c1.07.12,1.82-.55,2-1.82q1.17-8.64,2.32-17.29c.27-2.07.8-2.53,2.81-2.27,4.84.62,9.67,1.27,14.51,1.91L99.88,17.1,111,18.56c1.94.27,2.39.91,2.13,2.85-.09.74-.21,1.47-.31,2.2Q111,37.26,109.22,50.89q-1.71,12.82-3.41,25.65c-.46,3.49-.93,7-1.37,10.45a1.75,1.75,0,1,0,3.44.55c.12-.65.19-1.31.28-2q1.82-13.71,3.64-27.4t3.62-27.27c.42-3.14.87-6.27,1.26-9.4C117.11,18,115.32,15.71,111.83,15.15ZM64.4,79.21c2.07.47,2.42,1,1.95,3.13q-3.55,16.05-7.12,32.09c-.41,1.85-1.06,2.26-2.9,1.85q-16.09-3.57-32.2-7.14c-2-.44-2.36-1-1.91-3.06L29.33,74c.36-1.6.87-2.11,2.25-2.06,2.49.54,5.15,1.11,7.82,1.71Z"/><path class="cls-1" d="M77.06,72.53A2.81,2.81,0,0,1,74.9,71.3L74,70.17c-2.12-2.59-4.31-5.27-6.34-8-1.84-2.46-2.59-4.64-2.38-6.86a7.44,7.44,0,0,1,5-6.69A8.11,8.11,0,0,1,73.21,48a7.85,7.85,0,0,1,5.28,2.21c.12.1.23.22.37.35l.28.28a.9.9,0,0,0,1.08.11,8.67,8.67,0,0,1,4.51-1.39,8,8,0,0,1,7.65,6A7.34,7.34,0,0,1,91,62a33.35,33.35,0,0,1-5.49,5.17l-.41.33c-1.56,1.28-3.29,2.44-5,3.56l-1.27.86A3.34,3.34,0,0,1,77.06,72.53Z"/><path class="cls-1" d="M107,39.5a1.76,1.76,0,0,1-1.47,1.84,1.61,1.61,0,0,1-1.93-1.14,17.46,17.46,0,0,1-.55-2.27,1,1,0,0,0-1-1c-1.94-.2-3.86-.53-5.8-.74a1.34,1.34,0,0,0-1,.51,20.54,20.54,0,0,0-1,1.84,1.82,1.82,0,0,1-2.55.89,1.78,1.78,0,0,1-.53-2.56Q94.61,30.46,98.1,24c.34-.62.67-1.24,1-1.85a2.13,2.13,0,0,1,4,.56q1.53,6.56,3.05,13.1C106.47,37.09,106.76,38.35,107,39.5ZM100.5,27,97.36,32.8l4.64.56C101.49,31.18,101,29.22,100.5,27Z"/><path class="cls-1" d="M17.61,71a4.29,4.29,0,0,1-3.06-1.27,4.37,4.37,0,0,1-1.29-3.15,4.32,4.32,0,0,1,4.38-4.35A4.42,4.42,0,0,1,22,66.62,4.46,4.46,0,0,1,17.62,71Z"/><path class="cls-1" d="M55.88,91.2a4.39,4.39,0,0,1-3.11-7.48,4.4,4.4,0,0,1,7.51,3.11,4.43,4.43,0,0,1-4.35,4.37Z"/><path class="cls-1" d="M51.65,110.17a4.35,4.35,0,0,1-3.08-1.29,4.43,4.43,0,0,1-1.29-3.14,4.38,4.38,0,0,1,7.53-3,4.3,4.3,0,0,1,1.24,3.13,4.4,4.4,0,0,1-4.38,4.31Z"/><path class="cls-1" d="M36.91,87a4.44,4.44,0,0,1-4.38-4.38,4.3,4.3,0,0,1,1.27-3.09A4.38,4.38,0,1,1,37,87Z"/><path class="cls-1" d="M32.67,106a4.39,4.39,0,1,1,4.41-4.41A4.4,4.4,0,0,1,32.7,106Z"/></g></svg>