<svg xmlns="http://www.w3.org/2000/svg" viewBox="0 0 120 120"><defs><style>.cls-1{fill:#efcc8e;}</style></defs><title>ICON</title><g id="圖層_1" data-name="圖層 1"><path class="cls-1" d="M80,25.2c-7.79.14-15.58,0-23.38,0H55.39a12,12,0,0,0-5.06-8.31l9.14-9.12a6.43,6.43,0,0,0,.67-.72A1.28,1.28,0,0,0,60,5.29a1.26,1.26,0,0,0-1.71-.14,5.8,5.8,0,0,0-.73.67c-3,3-6,6-9,9a1.54,1.54,0,0,1-1.79.53,9.65,9.65,0,0,0-5.85,0A1.38,1.38,0,0,1,39.25,15C36.14,11.8,33,8.68,29.87,5.56c-.82-.82-1.63-.88-2.25-.21s-.5,1.36.29,2.16L33.37,13l3.79,3.77A33.7,33.7,0,0,0,34,20.6a33,33,0,0,0-2,4.64H7.65C2.92,25.24,0,28.16,0,32.9Q0,58.12,0,83.33C0,88,2.94,90.94,7.6,91H50.4V88.18H7.78c-3.35,0-5-1.65-5-5,0-16.74,0-33.48,0-50.23a4.72,4.72,0,0,1,5-5c12,.09,24,0,36.06,0s24,.05,36.06,0a4.72,4.72,0,0,1,5,5q0,8.25,0,16.47a6.7,6.7,0,0,1,1.42.11l1.35.24q0-8.41,0-16.85A7.47,7.47,0,0,0,80,25.2Z"/><path class="cls-1" d="M78.31,32.37H9.26c-1.81,0-2.11.31-2.11,2.13V72.86c0,1.81.34,2.16,2.11,2.16H54a6.66,6.66,0,0,1,3.25-.81c5.68-.07,11.37,0,17.06,0h.87c.11-.68.22-1.34.33-2H10v-37H77.71V57.93c.11-.76.23-1.52.34-2.29a7.19,7.19,0,0,1,2.47-4.53V34.62C80.52,32.66,80.25,32.37,78.31,32.37Z"/><path class="cls-1" d="M29.92,81.6A1.4,1.4,0,0,1,28.52,83a1.36,1.36,0,0,1-1.37-1.39,1.34,1.34,0,0,1,1.37-1.37A1.43,1.43,0,0,1,29.92,81.6Z"/><path class="cls-1" d="M34.56,80.21A1.38,1.38,0,0,1,36,81.56,1.34,1.34,0,0,1,34.64,83a1.43,1.43,0,0,1-1.44-1.34A1.39,1.39,0,0,1,34.56,80.21Z"/><path class="cls-1" d="M23.83,81.66A1.39,1.39,0,0,1,22.38,83a1.41,1.41,0,0,1-1.33-1.44,1.38,1.38,0,0,1,1.44-1.32A1.42,1.42,0,0,1,23.83,81.66Z"/><path class="cls-1" d="M43.83,85.2a3.59,3.59,0,1,1,3.59-3.62,3.61,3.61,0,0,1-3.57,3.62Z"/><path class="cls-1" d="M35.73,66.11a3.25,3.25,0,0,1-3.07-3.43v-.17q0-4.4,0-8.81V51.21c0-2.07,0-4.15,0-6.22,0-2.23,1.18-3.67,3-3.67a4.49,4.49,0,0,1,2.21.66c4.22,2.42,9.77,5.62,15.33,8.85a3.14,3.14,0,0,1,1.71,3.59,2.93,2.93,0,0,1-1.43,2l-3.51,2c-4.11,2.39-8.37,4.87-12.59,7.24A3.35,3.35,0,0,1,35.73,66.11Z"/><path class="cls-1" d="M113.54,52.43c-2.26-.34-4.52-.7-6.77-1.06a1.44,1.44,0,0,0-1.81,1.1c-.13.8.42,1.44,1.38,1.59,2.48.39,5,.75,7.44,1.19a4.22,4.22,0,0,1,3.46,5c-.76,4.78-1.49,9.57-2.24,14.36-.72,4.54-1.41,9.08-2.17,13.62a4.2,4.2,0,0,1-4.92,3.41c-3.66-.58-7.33-1.14-11-1.71l-4.16-.68V80.15a7,7,0,0,0-7.33-7.35H77.93c.06-.42.1-.74.14-1l1.17-7.45c.54-3.37,1-6.76,1.62-10.12a4.2,4.2,0,0,1,4.85-3.34l9.46,1.48c1,.15,1.63-.25,1.77-1s-.32-1.47-1.31-1.63c-3.1-.5-6.23-.91-9.32-1.49a7.1,7.1,0,0,0-8.26,6.09c-.7,4.77-1.47,9.53-2.22,14.29-.22,1.41-.45,2.81-.68,4.25h-.87c-5.69,0-11.38,0-17.06,0A6.65,6.65,0,0,0,51,77a15,15,0,0,0-.58,1.79v30.33c0,.06.1.11.11.17a7,7,0,0,0,7.27,5.82H85.45a8,8,0,0,0,2-.21,6.91,6.91,0,0,0,5.33-7c0-5,0-10,0-15v-.84c.33,0,.58,0,.82.08l12.55,2a10.1,10.1,0,0,0,4.17.12c3-.75,4.86-3,5.39-6.36q2.07-13.39,4.19-26.78C120.6,56.53,118.13,53.12,113.54,52.43ZM90,107.8a4.26,4.26,0,0,1-4.63,4.6H57.73a4.27,4.27,0,0,1-4.61-4.63V80.1a4.25,4.25,0,0,1,4.57-4.58H85.43A4.24,4.24,0,0,1,90,80.14Z"/><path class="cls-1" d="M88,57.08a3.25,3.25,0,0,0-2.35,1,3.19,3.19,0,0,0-1,2.34A3.36,3.36,0,0,0,88,63.69h0a3.31,3.31,0,0,0,0-6.61Z"/><path class="cls-1" d="M99.32,68.39a3.3,3.3,0,0,0-2.35-1h0a3.32,3.32,0,0,0-3.29,3.31A3.35,3.35,0,0,0,97,74h0a3.37,3.37,0,0,0,3.32-3.29A3.24,3.24,0,0,0,99.32,68.39Z"/><path class="cls-1" d="M105.65,78.81a3.31,3.31,0,0,0,0,6.61h0a3.25,3.25,0,0,0,2.31-1,3.3,3.3,0,0,0-2.34-5.64Z"/><path class="cls-1" d="M101,50.51a1.33,1.33,0,0,1,1.38,1.35A1.35,1.35,0,0,1,101,53.22a1.4,1.4,0,0,1-1.4-1.37A1.36,1.36,0,0,1,101,50.51Z"/><path class="cls-1" d="M61.2,81.27h0a3.3,3.3,0,0,0-2.32,5.64,3.27,3.27,0,0,0,2.33,1h0a3.33,3.33,0,0,0,3.3-3.3A3.36,3.36,0,0,0,61.2,81.27Z"/><path class="cls-1" d="M71.62,90.09h0a3.31,3.31,0,0,0,0,6.61h0a3.31,3.31,0,0,0,0-6.61Z"/><path class="cls-1" d="M61.18,100a3.29,3.29,0,1,0,3.3,3.28A3.29,3.29,0,0,0,61.18,100Z"/><path class="cls-1" d="M82,100a3.3,3.3,0,0,0,0,6.59h0A3.3,3.3,0,1,0,82,100Z"/><path class="cls-1" d="M82,81.33h0a3.3,3.3,0,0,0,0,6.59h0a3.3,3.3,0,0,0,0-6.59Z"/></g></svg>