<svg xmlns="http://www.w3.org/2000/svg" viewBox="0 0 120 120"><defs><style>.cls-1{fill:#101010;}</style></defs><title>ICON</title><g id="圖層_1" data-name="圖層 1"><path class="cls-1" d="M49.71,101.48c-.35,0-.7,0-1.05,0H7.35V3.59H82.7v46a9.22,9.22,0,0,0,0,1.29,1.56,1.56,0,0,0,1.55,1.47,1.54,1.54,0,0,0,1.78-1.18,5.42,5.42,0,0,0,.14-1.51c0-14.95,0-29.91,0-44.87,0-2.24-.66-3.87-2.79-4.75H6.58C4.5.83,3.74,2.35,3.74,4.58q.06,48,0,96c0,3.06,1.36,4.43,4.41,4.43H48.84c.31,0,.63,0,.94,0a1.77,1.77,0,0,0,1.66-1.79A1.7,1.7,0,0,0,49.71,101.48Z"/><path class="cls-1" d="M84.45,56.37a31.82,31.82,0,1,0,31.81,31.82A31.86,31.86,0,0,0,84.45,56.37ZM96.8,113.58a15,15,0,0,0-24.66-.07c-4.4-1.35-10.58-7.44-13.09-12.92a15.13,15.13,0,0,0,0-24.82,28.44,28.44,0,0,1,13-13,15.1,15.1,0,0,0,24.82,0,28.4,28.4,0,0,1,13,13,15.09,15.09,0,0,0-.11,24.74C108.61,104.66,102.07,111.31,96.8,113.58Z"/><path class="cls-1" d="M24.86,20.41H65.37a3.62,3.62,0,0,0,3.92-3.73c0-1.2,0-2.42,0-3.63a3.62,3.62,0,0,0-3.77-3.65H24.42a3.65,3.65,0,0,0-3.75,3.69c0,1.05,0,2.11,0,3.16C20.68,19,22.1,20.41,24.86,20.41ZM24.26,13H65.7v3.84H24.26Z"/><path class="cls-1" d="M60.45,50.46c2.34,0,4.68,0,7,0h7c1.75,0,2.31-.57,2.32-2.32q0-7,0-13.94c0-1.66-.63-2.28-2.26-2.29q-7,0-14.05,0c-1.64,0-2.24.62-2.25,2.29q0,7,0,14C58.27,49.89,58.84,50.45,60.45,50.46Z"/><path class="cls-1" d="M54.24,70.75c0-2.31,0-4.61,0-6.91s0-4.76,0-7.14c0-1.63-.57-2.21-2.18-2.21q-7.08,0-14.17,0c-1.59,0-2.19.62-2.19,2.22q0,7,0,14.05c0,1.66.6,2.28,2.26,2.28q7,0,14,0C53.67,73,54.23,72.44,54.24,70.75Zm-3.59-1.3H39.27V58.09H50.65Z"/><path class="cls-1" d="M31.69,56.68c0-1.6-.58-2.19-2.19-2.2q-7.08,0-14.17,0c-1.57,0-2.17.64-2.17,2.23q0,7,0,14.06c0,1.63.62,2.26,2.27,2.26q7,0,14.05,0c1.62,0,2.2-.6,2.21-2.19,0-2.38,0-4.76,0-7.14S31.7,59,31.69,56.68ZM28.12,69.43H16.76V58.07H28.12Z"/><path class="cls-1" d="M31.69,79.14c0-1.47-.59-2.08-2.05-2.08q-7.2,0-14.4,0c-1.44,0-2.07.63-2.08,2.07q0,7.14,0,14.28c0,1.5.64,2.17,2.13,2.18q7.14,0,14.28,0c1.51,0,2.11-.64,2.12-2.16,0-2.38,0-4.77,0-7.15S31.7,81.52,31.69,79.14Z"/><path class="cls-1" d="M31.69,41.36c0-2.42,0-4.84,0-7.26,0-1.53-.6-2.17-2.11-2.17q-7.14,0-14.28,0c-1.5,0-2.14.66-2.14,2.16q0,7.14,0,14.28c0,1.44.63,2.09,2.07,2.09q7.2,0,14.4,0c1.46,0,2.05-.61,2.06-2.07C31.7,46,31.69,43.7,31.69,41.36Z"/><path class="cls-1" d="M52,31.92q-7,0-13.93,0c-1.73,0-2.35.61-2.35,2.32q0,7,0,13.93c0,1.73.58,2.29,2.34,2.3H52c1.71,0,2.27-.55,2.27-2.24,0-4.68,0-9.36,0-14C54.24,32.53,53.64,31.93,52,31.92Zm-1.33,15H39.31V35.52H50.65Z"/><path class="cls-1" d="M48.29,80.56c1.4,0,2.16-.65,2.17-1.75s-.71-1.75-2.12-1.75q-5.22,0-10.42,0c-1.6,0-2.22.59-2.22,2.17q0,7.08,0,14.16c0,1.56.65,2.19,2.23,2.2,2,0,4,0,6,0,1,0,2,0,2.93,0a1.72,1.72,0,0,0,1.76-1.79,1.68,1.68,0,0,0-1.82-1.7c-.59,0-1.18,0-1.76,0H39.27V80.57C42.37,80.57,45.33,80.58,48.29,80.56Z"/><path class="cls-1" d="M59.85,26c-.08-1.06-.84-1.62-2.29-1.62q-12.58,0-25.16,0c-1.46,0-2.31.65-2.33,1.74s.81,1.77,2.27,1.77H45c4.29,0,8.59,0,12.88,0C59.19,27.91,59.94,27.17,59.85,26Z"/><path class="cls-1" d="M84.41,73.3a14.9,14.9,0,0,0,.06,29.8,14.9,14.9,0,1,0-.06-29.8Zm.06,26.29A11.39,11.39,0,1,1,95.84,88.12,11.42,11.42,0,0,1,84.47,99.59Z"/><path class="cls-1" d="M86.36,79.79a5.15,5.15,0,0,0-6.75,3.31,1.8,1.8,0,0,0,1,2.49c1,.34,1.79-.11,2.27-1.26.06-.15,0-.38.16-.43a4.27,4.27,0,0,1,1.75-.84,1.28,1.28,0,0,1,1.28,1.51A2.2,2.2,0,0,1,85,86.1c-1.14.31-2.22.55-2.19,2S83.89,89.6,85,89.91a2,2,0,0,1,1.09,1.52,1.93,1.93,0,0,1-1.14,1.47c-.5.14-1.23-.35-1.77-.69-.22-.14-.21-.64-.29-1a1.73,1.73,0,0,0-2-1.53,1.7,1.7,0,0,0-1.47,1.93,5.15,5.15,0,0,0,6.15,4.83A5.22,5.22,0,0,0,88.48,88c.25-.43.49-.79.68-1.17A5.15,5.15,0,0,0,86.36,79.79Z"/></g></svg>