<svg xmlns="http://www.w3.org/2000/svg" viewBox="0 0 120 120"><defs><style>.cls-1{fill:#d3ae6d;}</style></defs><title>ICON</title><g id="圖層_1" data-name="圖層 1"><path class="cls-1" d="M63.52,120H56.25c-1.43-.18-2.86-.33-4.28-.54a61.38,61.38,0,0,1-21-6.92,2.65,2.65,0,0,0-1.82-.16c-2.88.86-5.73,1.8-8.58,2.73q-7.48,2.43-15,4.89H3.75A5.72,5.72,0,0,1,0,116.25v-1.88c.05-.05.13-.09.15-.16,2.48-7.71,4.93-15.44,7.43-23.14a2.59,2.59,0,0,0-.19-2.3A57.31,57.31,0,0,1,.86,69.87c-.32-2-.57-4.08-.86-6.12V56.48a6.94,6.94,0,0,0,.2-1A56.37,56.37,0,0,1,7,31.84C16.37,14.93,30.55,4.59,49.55,1,51.84.51,54.17.31,56.48,0h7a5.77,5.77,0,0,0,.9.19A56.61,56.61,0,0,1,88.17,7c16.91,9.34,27.25,23.52,30.89,42.52.43,2.28.63,4.61.94,6.92v7a6.94,6.94,0,0,0-.2,1A56.37,56.37,0,0,1,113,88.16c-9.33,16.91-23.51,27.25-42.51,30.89C68.16,119.49,65.83,119.69,63.52,120ZM12,108c5.08-1.64,10-3,14.7-4.79,3.23-1.22,5.82-.76,8.8.92a48.66,48.66,0,0,0,34.85,5.36,49.13,49.13,0,0,0,30.59-19.87c8.76-12,11.57-25.52,8.58-40.08A49,49,0,0,0,90,19.3,48.74,48.74,0,0,0,52.58,10,48.88,48.88,0,0,0,19.39,30C10.41,42,7.62,55.57,10.46,70.29a47.29,47.29,0,0,0,6.26,15.92,5.79,5.79,0,0,1,.56,5.35c-.55,1.5-1,3-1.49,4.56C14.54,100,13.29,103.9,12,108Z"/><path class="cls-1" d="M36.6,65.85A5.85,5.85,0,1,1,42.41,60,5.9,5.9,0,0,1,36.6,65.85Z"/><path class="cls-1" d="M65.85,60a5.85,5.85,0,1,1-5.8-5.84A5.9,5.9,0,0,1,65.85,60Z"/><path class="cls-1" d="M89.29,60a5.85,5.85,0,1,1-5.83-5.81A5.9,5.9,0,0,1,89.29,60Z"/></g></svg>