<svg xmlns="http://www.w3.org/2000/svg" xmlns:xlink="http://www.w3.org/1999/xlink" viewBox="0 0 120 120"><defs><style>.cls-1{fill:url(#未命名漸層_8);}.cls-2{fill:url(#未命名漸層_8-2);}.cls-3{fill:url(#未命名漸層_8-3);}.cls-4{fill:url(#未命名漸層_8-4);}.cls-5{fill:url(#未命名漸層_8-5);}</style><linearGradient id="未命名漸層_8" x1="46.75" y1="105.58" x2="43.18" y2="-17.09" gradientUnits="userSpaceOnUse"><stop offset="0.04" stop-color="#bc9c64"/><stop offset="0.93" stop-color="#f3d197"/></linearGradient><linearGradient id="未命名漸層_8-2" x1="83.1" y1="104.53" x2="79.53" y2="-18.14" xlink:href="#未命名漸層_8"/><linearGradient id="未命名漸層_8-3" x1="113.3" y1="103.65" x2="109.72" y2="-19.02" xlink:href="#未命名漸層_8"/><linearGradient id="未命名漸層_8-4" x1="92.54" y1="104.25" x2="88.96" y2="-18.42" xlink:href="#未命名漸層_8"/><linearGradient id="未命名漸層_8-5" x1="73.65" y1="104.8" x2="70.08" y2="-17.87" xlink:href="#未命名漸層_8"/></defs><title>ICON</title><g id="圖層_1" data-name="圖層 1"><path class="cls-1" d="M0,110.62V9.38a3.92,3.92,0,0,0,.18-.55A10.43,10.43,0,0,1,3.9,2.41,12.49,12.49,0,0,1,9.37,0H63.28V23.66c0,3.3,1.15,4.46,4.4,4.46H91.39v1.4c0,4.18,0,8.36,0,12.54a2.69,2.69,0,0,1-.87,2.14c-7.49,7.42-15,14.84-22.39,22.35a15.48,15.48,0,0,0-3.4,4.82,119.21,119.21,0,0,0-4,12,8,8,0,0,0,2.47,8.42,8.37,8.37,0,0,0,8.68,2c3.27-1,6.5-2.18,9.76-3.25a15.21,15.21,0,0,0,6.14-3.74c.94-.94,1.89-1.86,2.85-2.78.2-.19.44-.33.77-.58,0,8.86.06,17.52,0,26.19A9.6,9.6,0,0,1,87,117.85,29.46,29.46,0,0,1,82,120H9.37a1.68,1.68,0,0,0-.42-.17A10.43,10.43,0,0,1,2.34,116,12.56,12.56,0,0,1,0,110.62ZM42.07,42.19H59.76c2.31,0,4.61,0,6.92,0a3.47,3.47,0,0,0,3.4-4.31c-.35-1.68-1.8-2.7-3.87-2.7H18.05a7.48,7.48,0,0,0-.82,0,3.47,3.47,0,0,0-3,2.35c-.85,2.39.9,4.65,3.65,4.65Q30,42.21,42.07,42.19ZM35,70.31c5.78,0,11.56,0,17.34,0a3.52,3.52,0,1,0-.12-7H26c-2.78,0-5.55,0-8.32,0a3.51,3.51,0,1,0,.11,7C23.56,70.33,29.3,70.31,35,70.31Zm0-14.06c5.78,0,11.56,0,17.34,0a3.47,3.47,0,0,0,3.71-3.74c-.12-2-1.62-3.27-3.83-3.28H26c-2.78,0-5.55,0-8.32,0a3.51,3.51,0,1,0,.11,7C23.55,56.27,29.3,56.25,35,56.25Zm.12,28.12c5.74,0,11.48,0,17.22,0a3.52,3.52,0,1,0-.12-7H25.78c-2.69,0-5.39,0-8.08,0a3.51,3.51,0,1,0,.12,7C23.6,84.39,29.38,84.37,35.16,84.37ZM56,105.47c3.4,0,6.8,0,10.2,0,2.38,0,4-1.42,3.94-3.53s-1.57-3.5-4-3.5H46.05c-2.39,0-4,1.42-3.95,3.53s1.58,3.49,4,3.5Z"/><path class="cls-2" d="M72,0c3.42.53,5.92,2.56,8.22,5,2.5,2.63,5.12,5.14,7.69,7.71A10.69,10.69,0,0,1,91.23,21H70.08V0Z"/><path class="cls-3" d="M120,42.89c-1.14,3.93-4.65,5.9-7,8.71l-10-10.05a65,65,0,0,1,6.11-5.68,7,7,0,0,1,10.63,3.72,6.58,6.58,0,0,0,.32.72Z"/><path class="cls-4" d="M98,47l9.63,9.66L84.73,79.55l-9.64-9.66Z"/><path class="cls-5" d="M78.69,84.07c-3,1-5.92,2-8.89,2.93a1.67,1.67,0,0,1-2.26-2.09c.91-3.06,2-6.07,3-9Z"/></g></svg>