<svg xmlns="http://www.w3.org/2000/svg" xmlns:xlink="http://www.w3.org/1999/xlink" viewBox="0 0 120 120"><defs><style>.cls-1{fill:url(#未命名漸層_8);}.cls-2{fill:url(#未命名漸層_8-2);}</style><linearGradient id="未命名漸層_8" x1="58.06" y1="103.25" x2="65.52" y2="-17.34" gradientUnits="userSpaceOnUse"><stop offset="0.04" stop-color="#bc9c64"/><stop offset="0.93" stop-color="#f3d197"/></linearGradient><linearGradient id="未命名漸層_8-2" x1="93.07" y1="105.41" x2="100.53" y2="-15.18" xlink:href="#未命名漸層_8"/></defs><title>ICON</title><g id="圖層_1" data-name="圖層 1"><path class="cls-1" d="M51.1,65.63c2.54-1.5,5.21-3,7.75-4.67a4.93,4.93,0,0,0,1.45-2.41,172,172,0,0,0,10-39.83c.22-1.8.42-3.61.62-5.42,2,1.19,4,2.29,5.81,3.62A2.73,2.73,0,0,1,77.43,19c-.77,10.83.94,21.37,3.08,32,.66,3.31,3.25,3,5.29,4.66l-4,.35c1.15,3.45,2.24,6.73,3.38,10.14L95.46,61l.33.59a90.65,90.65,0,0,0-7.6,5.33c-.93.79-1.82,2.73-1.49,3.74,3.22,9.89,6.74,19.67,10.06,29.52.73,2.16,1.63,4.56,1.33,6.7a7.42,7.42,0,0,1-3.38,4.94,6.2,6.2,0,0,1-5.57-.67A207.88,207.88,0,0,1,73.54,96.8c-9.66-10-8.77-17.79,2.6-25.95.79-.56,1.61-1.08,2.58-1.73L75.39,57.65c-5.34-.15-10.61,3.22-12.34,7.91-1.92,5.24-4.62,8.23-9.32,9.61,1.43-3.18,2.62-5.83,3.82-8.48l-.42-.62c-2.25,1.7-4.63,3.24-6.71,5.12-4.42,4-8.49,8.39-13.11,12.12a27.51,27.51,0,0,1-8.87,4.27,9.16,9.16,0,0,1-5.71-.47c-1.91-.76-3.08-2.55-1.58-4.78C25,76.62,30.6,73.69,37,72l.68.87L30.27,79.2c5.31,1.13,9-1.91,9-7a2.38,2.38,0,0,1,.56-1.67c3.72-3,1.35-5.43-.8-7.66-3.7-3.83-7.62-7.44-11.39-11.21-7.16-7.17-7.85-15.07-1.38-22.69,6-7,13-12.73,22.3-15.12,3.6-.93,4.7-.22,4.9,3.51a9.18,9.18,0,0,1-4.19,8.82c-3.71,2.55-7.08,5.59-10.6,8.41l-1-.75a33.81,33.81,0,0,1,1.8-3.85c.59-.92,1.68-1.54,2.25-2.47a12.73,12.73,0,0,0,1-2.93c-1,.14-2.15,0-2.85.47-9.39,6.87-10.95,12.71-3.29,21.71,3.38,4,7.27,7.49,10.58,11.5C48.77,60.33,49.73,63.06,51.1,65.63Zm38.18,40.26.9-.53L79.38,71c-2.45,2.58-4.5,4.56-6.35,6.7-3.41,4-3.38,8.87.3,12.6C78.54,95.61,84,100.71,89.28,105.89ZM74.83,54.69c-1.08-5.11-2.09-9.92-3.11-14.73l-.63-.07L65.81,57.47Z"/><path class="cls-2" d="M99.55,54.66C95.73,57.46,93.9,57,93,53.28Z"/></g></svg>