<svg xmlns="http://www.w3.org/2000/svg" viewBox="0 0 120 120"><defs><style>.cls-1{fill:#101010;}</style></defs><title>ICON</title><g id="圖層_1" data-name="圖層 1"><path class="cls-1" d="M59.21,0A60,60,0,1,0,120,59.24,60.09,60.09,0,0,0,59.21,0ZM59,96.49h-.34a8.42,8.42,0,0,1-8.53-8.93A8.52,8.52,0,0,1,58.86,79h.28a8.47,8.47,0,0,1,8.66,9.07C67.73,93.06,64.09,96.49,59,96.49ZM80.52,54c-1.16,1.72-3.85,3.85-7.15,6.39l-3.64,2.55c-2,1.58-3.23,3-3.65,4.46a9.31,9.31,0,0,0-.55,3.78v.62H51.44l.07-1.17c.13-4.88.27-7.69,2.34-10.1C57,56.77,64,52.3,64.3,52.1a9.61,9.61,0,0,0,2.47-2.55c1.45-2,2.13-3.64,2.13-5.15a9.84,9.84,0,0,0-1.92-6c-1.24-1.72-3.58-2.61-7-2.61s-5.63,1-7,3.23A13.35,13.35,0,0,0,50.89,46v.62H36.45V46c.34-8.8,3.51-15.19,9.35-18.9a24.89,24.89,0,0,1,13.55-3.57c6.94,0,12.85,1.72,17.46,5S83.89,37,83.89,43.58A17,17,0,0,1,80.52,54Z"/></g></svg>