<svg xmlns="http://www.w3.org/2000/svg" xmlns:xlink="http://www.w3.org/1999/xlink" viewBox="0 0 120 120"><defs><style>.cls-1{fill:url(#未命名漸層_8);}.cls-2{fill:url(#未命名漸層_8-2);}</style><linearGradient id="未命名漸層_8" x1="38.34" y1="120.41" x2="39.06" y2="-1.33" gradientUnits="userSpaceOnUse"><stop offset="0.04" stop-color="#101010"/><stop offset="0.93" stop-color="#101010"/></linearGradient><linearGradient id="未命名漸層_8-2" x1="80.91" y1="120.66" x2="81.63" y2="-1.08" xlink:href="#未命名漸層_8"/></defs><title>ICON</title><g id="圖層_1" data-name="圖層 1"><path class="cls-1" d="M0,78.49c.46-2.48.78-5,1.42-7.43A38.57,38.57,0,0,1,33,43.08c.88-.12,1.77-.2,2.75-.31a46.52,46.52,0,0,0,4,15,47.07,47.07,0,0,0,9,13H47.36c-6.71,0-13.42,0-20.14,0-2.75,0-4.52,2.44-3.51,4.82a3.29,3.29,0,0,0,3.18,2.18q11.76,0,23.54,0c1.67,0,2.73-1,3.39-2.62a46.2,46.2,0,0,0,23.32,9,29.68,29.68,0,0,1-1.82,9.32c-5.75,15.37-16.74,24.19-33.06,26.28a7,7,0,0,0-.79.18H2.58A5.25,5.25,0,0,1,0,117.39v-1.88c1.46-1.81,2.9-3.63,4.39-5.42,1.32-1.58,2.69-3.12,4-4.65C4.16,99.3,2.61,96.31,1.31,91.22.74,89,.43,86.64,0,84.35Zm38.65,6.33H27.43c-2.38,0-4,1.41-4,3.49s1.59,3.53,3.94,3.54H50c2.35,0,3.95-1.46,3.93-3.55s-1.61-3.48-4-3.48Z"/><path class="cls-2" d="M111.53,62.78c2.46,2.82,4.85,5.6,7.26,8.36a3.71,3.71,0,0,1,1.08,3.42,3.55,3.55,0,0,1-3.72,2.76c-6,0-12,0-17.92,0-5.58,0-11.17,0-16.75,0a38.64,38.64,0,1,1,37.67-46.41c2.3,11.16-.09,21.45-6.76,30.73ZM84.82,41.08c.49-.19.89-.33,1.28-.49,5-2.08,8-5.79,8.56-11.19a12.72,12.72,0,0,0-6.41-12.87A12.7,12.7,0,0,0,74,16.74a12.93,12.93,0,0,0-6.15,11.09,3.5,3.5,0,0,0,7,.47c0-.31.07-.62.1-.93a6.39,6.39,0,0,1,6.74-5.8,6.45,6.45,0,0,1-.11,12.88,3.58,3.58,0,0,0-3.75,3.87q0,4.86,0,9.72a3.53,3.53,0,1,0,7,0C84.82,45.77,84.82,43.46,84.82,41.08ZM81.28,55.54A3.51,3.51,0,1,0,84.81,59,3.55,3.55,0,0,0,81.28,55.54Z"/></g></svg>