<svg xmlns="http://www.w3.org/2000/svg" xmlns:xlink="http://www.w3.org/1999/xlink" viewBox="0 0 120 120"><defs><style>.cls-1{fill:url(#未命名漸層_8);}.cls-2{fill:url(#未命名漸層_8-2);}</style><linearGradient id="未命名漸層_8" x1="62.34" y1="121.7" x2="58.77" y2="-0.97" gradientUnits="userSpaceOnUse"><stop offset="0.04" stop-color="#101010"/><stop offset="0.93" stop-color="#101010"/></linearGradient><linearGradient id="未命名漸層_8-2" x1="61.79" y1="121.72" x2="58.22" y2="-0.96" xlink:href="#未命名漸層_8"/></defs><title>ICON</title><g id="圖層_1" data-name="圖層 1"><path class="cls-1" d="M61.18,120H58.83c-.66-.2-1.34-.38-2-.61a84.14,84.14,0,0,1-18.46-9A60.42,60.42,0,0,1,18,88.36c-5.47-10.14-7.7-21.12-8.6-32.44A247.72,247.72,0,0,1,9.18,28.4a12,12,0,0,1,2.42-6.84c2.61-3.57,6.24-5.11,10.56-5.39,10.41-.66,20-3.75,28.23-10.3,1.74-1.38,3.34-2.95,5.09-4.31a7.36,7.36,0,0,1,9,0c1.21.92,2.3,2,3.46,3a47.37,47.37,0,0,0,17.77,9.6,78.37,78.37,0,0,0,14,2.28,12.71,12.71,0,0,1,11.15,12c.29,9.92.53,19.84-.44,29.73a90,90,0,0,1-4,20,60.34,60.34,0,0,1-23.31,31.24A80.16,80.16,0,0,1,61.18,120ZM60,89.91A29.91,29.91,0,1,0,30.1,60.05,30,30,0,0,0,60,89.91Z"/><path class="cls-2" d="M82.85,60A22.85,22.85,0,1,1,60,37.16,22.92,22.92,0,0,1,82.85,60Zm-28,4.86c-1.43-1.47-2.55-2.67-3.71-3.81-1.65-1.63-3.74-1.71-5.2-.24a3.57,3.57,0,0,0,.25,5.21C48.08,68,50,69.82,51.84,71.69s3.83,1.91,5.79,0L73.19,56.08a8.05,8.05,0,0,0,.63-.68,3.52,3.52,0,0,0-.28-4.69A3.46,3.46,0,0,0,69,50.45a11.7,11.7,0,0,0-1,1Q61.8,57.53,55.68,63.66A7.65,7.65,0,0,0,54.88,64.9Z"/></g></svg>