<svg xmlns="http://www.w3.org/2000/svg" xmlns:xlink="http://www.w3.org/1999/xlink" viewBox="0 0 120 120"><defs><style>.cls-1{fill:url(#未命名漸層_8);}.cls-2{fill:url(#未命名漸層_8-2);}.cls-3{fill:url(#未命名漸層_8-3);}.cls-4{fill:url(#未命名漸層_8-4);}.cls-5{fill:url(#未命名漸層_8-5);}</style><linearGradient id="未命名漸層_8" x1="41.84" y1="129.29" x2="46.08" y2="8.27" gradientUnits="userSpaceOnUse"><stop offset="0.04" stop-color="#101010"/><stop offset="0.93" stop-color="#101010"/></linearGradient><linearGradient id="未命名漸層_8-2" x1="39.2" y1="129.19" x2="43.44" y2="8.18" xlink:href="#未命名漸層_8"/><linearGradient id="未命名漸層_8-3" x1="95.12" y1="131.15" x2="99.36" y2="10.14" xlink:href="#未命名漸層_8"/><linearGradient id="未命名漸層_8-4" x1="37.41" y1="129.13" x2="41.65" y2="8.12" xlink:href="#未命名漸層_8"/><linearGradient id="未命名漸層_8-5" x1="36.23" y1="129.09" x2="40.47" y2="8.08" xlink:href="#未命名漸層_8"/></defs><title>ICON</title><g id="圖層_1" data-name="圖層 1"><path class="cls-1" d="M6.12,120a4.34,4.34,0,0,1-2.6-4.72c.12-1.59,0-3.19,0-4.89.5,0,.91,0,1.32,0q34.89,0,69.78,0a2.36,2.36,0,0,1,1.9.85A42.77,42.77,0,0,0,80,114.34c1.23,1,1.67,2,.89,3.38A12,12,0,0,1,78.54,120Z"/><path class="cls-2" d="M42.36,69.42c-7.58,0-15.15,0-22.73,0a3.18,3.18,0,0,1-1.87-.65,37.81,37.81,0,0,1-14-26.46A38.79,38.79,0,0,1,34.62.78C56.56-3.68,78,11.46,80.78,33.65c1.76,14-3,25.78-13.72,35a3.27,3.27,0,0,1-2,.7C57.51,69.44,49.93,69.42,42.36,69.42Zm3.48-48.24c0-1.43.1-2.68,0-3.91a3.48,3.48,0,0,0-6.94.29,27.76,27.76,0,0,0,0,3.16,1.33,1.33,0,0,1-.94,1.48,10.5,10.5,0,0,0-3.94,16,10.63,10.63,0,0,0,8.29,4.16A3.54,3.54,0,0,1,45.91,46a3.65,3.65,0,0,1-3.86,3.43c-2.15,0-4.29,0-6.44,0a3.52,3.52,0,1,0,0,7c1,0,2.09,0,3.28,0,0,1.19,0,2.27,0,3.35a3.51,3.51,0,0,0,3.42,3.7A3.57,3.57,0,0,0,45.88,60a18.58,18.58,0,0,0,0-2.69A1.69,1.69,0,0,1,47,55.32a10.37,10.37,0,0,0,5.19-13.17,10.23,10.23,0,0,0-9.5-6.81c-2.48-.15-4-1.61-3.88-3.75s1.67-3.36,4-3.37h6c2.5,0,4.12-1.39,4.12-3.49s-1.64-3.52-4.09-3.54Z"/><path class="cls-3" d="M116.5,92.94a20,20,0,1,1-20-20A20.1,20.1,0,0,1,116.5,92.94ZM107,86.38c-.09-1.95-.67-3.09-2-3.67a3.43,3.43,0,0,0-4,.74q-7,7-14,14a3.51,3.51,0,1,0,5,5c4.65-4.61,9.29-9.23,13.87-13.91A7.52,7.52,0,0,0,107,86.38Zm-7,13.5a3.59,3.59,0,0,0,3.51,3.63,3.63,3.63,0,0,0,3.5-3.41,3.58,3.58,0,0,0-3.53-3.6A3.5,3.5,0,0,0,100,99.88ZM89.36,89.35A3.49,3.49,0,0,0,92.89,86a3.6,3.6,0,0,0-3.45-3.69,3.64,3.64,0,0,0-3.56,3.34A3.59,3.59,0,0,0,89.36,89.35Z"/><path class="cls-4" d="M3.57,86.12c0-2.24-.09-4.39,0-6.53a3.45,3.45,0,0,1,3.28-3.12c.34,0,.7,0,1,0H74.81a7.21,7.21,0,0,1-.38.78,25.7,25.7,0,0,0-3.91,8.07,1,1,0,0,1-1.22.89q-32.44,0-64.89,0C4.18,86.17,4,86.15,3.57,86.12Z"/><path class="cls-5" d="M3.58,103V93.47H69.11c.65,3.21,1.28,6.36,1.93,9.55Z"/></g></svg>