<svg xmlns="http://www.w3.org/2000/svg" xmlns:xlink="http://www.w3.org/1999/xlink" viewBox="0 0 120 120"><defs><style>.cls-1{fill:url(#未命名漸層_8);}.cls-2{fill:url(#未命名漸層_8-2);}.cls-3{fill:url(#未命名漸層_8-3);}</style><linearGradient id="未命名漸層_8" x1="73.33" y1="125.48" x2="77.57" y2="4.47" gradientUnits="userSpaceOnUse"><stop offset="0.04" stop-color="#bc9c64"/><stop offset="0.93" stop-color="#f3d197"/></linearGradient><linearGradient id="未命名漸層_8-2" x1="57.72" y1="124.94" x2="61.96" y2="3.92" xlink:href="#未命名漸層_8"/><linearGradient id="未命名漸層_8-3" x1="42.1" y1="124.4" x2="46.34" y2="3.38" xlink:href="#未命名漸層_8"/></defs><title>ICON</title><g id="圖層_1" data-name="圖層 1"><path class="cls-1" d="M82,119.86V109.58h-1.5c-9.22,0-18.44,0-27.66,0A23.35,23.35,0,0,1,29.71,90.68a43.47,43.47,0,0,1-.51-8.27c8.49,10.51,19.3,16,32.76,15.33s23.66-7.34,30.89-18.8l7.42,4.66,19.11,12.05a5,5,0,0,0,.62.3v.24a7.71,7.71,0,0,0-.82.39q-18,11.33-36,22.69a4.57,4.57,0,0,0-.66.59Z"/><path class="cls-2" d="M90.75,60A30.75,30.75,0,1,1,60,29.26,30.74,30.74,0,0,1,90.75,60ZM63.18,78.07c0-1.1,0-2.14,0-3.19,0-.73.18-1,1-1.27a18,18,0,0,0,4.28-1.82,7.66,7.66,0,0,0,3.7-7.47C71.86,61,69.86,59.07,66.93,58c-1.8-.64-3.69-1-5.54-1.47a25.51,25.51,0,0,1-3.13-.9c-.43-.17-1-.79-.93-1.14s.59-.9,1-1.26a1.79,1.79,0,0,1,.89-.26,13.92,13.92,0,0,1,7.42,1.13l1.64.66L71.08,48l-8-2.26V42H57.73c0,1.06,0,2.07,0,3.08,0,.73-.14,1.07-1,1.22a11.77,11.77,0,0,0-6,2.8c-3.36,3-4.13,10.15,2.13,12.75a43,43,0,0,0,4.92,1.49c1.42.4,2.88.68,4.27,1.18a1.64,1.64,0,0,1,.92,1.26,1.58,1.58,0,0,1-1.11,1.07,15.6,15.6,0,0,1-4.52.08C55.15,66.52,53,65.71,50.65,65l-2.78,6.3c3.07,1.81,6.39,2.37,9.9,2.75v4Z"/><path class="cls-3" d="M90.74,37.91a38,38,0,0,0-63.58,3.22L0,24,37.9.14v10.3h1.48c9.1,0,18.2,0,27.3,0C77.16,10.48,85.89,16.5,89.4,26,90.79,29.79,90.92,33.68,90.74,37.91Z"/></g></svg>