<svg xmlns="http://www.w3.org/2000/svg" xmlns:xlink="http://www.w3.org/1999/xlink" viewBox="0 0 120 120"><defs><style>.cls-1{fill:url(#未命名漸層_8);}.cls-2{fill:url(#未命名漸層_8-2);}.cls-3{fill:url(#未命名漸層_8-3);}</style><linearGradient id="未命名漸層_8" x1="54.74" y1="113.77" x2="51.16" y2="-8.91" gradientUnits="userSpaceOnUse"><stop offset="0.04" stop-color="#101010"/><stop offset="0.93" stop-color="#101010"/></linearGradient><linearGradient id="未命名漸層_8-2" x1="93.72" y1="112.63" x2="90.14" y2="-10.04" xlink:href="#未命名漸層_8"/><linearGradient id="未命名漸層_8-3" x1="92.74" y1="112.66" x2="89.17" y2="-10.01" xlink:href="#未命名漸層_8"/></defs><title>ICON</title><g id="圖層_1" data-name="圖層 1"><path class="cls-1" d="M101.15,44.57h-74a10.58,10.58,0,0,0-2.39.2,3.36,3.36,0,0,0,0,6.49,9.22,9.22,0,0,0,2.23.21H73.19c-1.87,2.39-3.71,4.59-5.37,6.92a23.1,23.1,0,0,0-2.09,4c-1.23,2.77-1.19,2.78-4.16,2.78H27c-3.13,0-4.79,1.24-4.75,3.52s1.65,3.4,4.71,3.4H63.22c.24,2.46.33,4.76.74,7s1.15,4.32,1.8,6.68H27.24c-.49,0-1,0-1.45,0a3.45,3.45,0,1,0-.05,6.89c.53,0,1.07,0,1.61,0H70.11v24H12.9c-5.19,0-7.8-2.62-7.8-7.81q0-50.52,0-101Q5.1,0,12.9,0H93.34c5.2,0,7.8,2.61,7.81,7.8V44.57ZM37.51,24c3.91,0,7.82.05,11.72,0a5.07,5.07,0,0,0,2.66-.84,3,3,0,0,0,1-3.59,3.44,3.44,0,0,0-3.6-2.37q-11.48,0-23,0c-2.55,0-4.14,1.36-4.12,3.46s1.55,3.36,4,3.37C30,24,33.77,24,37.51,24Z"/><path class="cls-2" d="M92.59,96.05A22.28,22.28,0,1,1,114.9,73.81,22.31,22.31,0,0,1,92.59,96.05Z"/><path class="cls-3" d="M108,98.63V120c-.64-.25-1.18-.44-1.69-.67-4.06-1.79-8.14-3.56-12.17-5.42a3.16,3.16,0,0,0-3,0c-4,1.88-8.1,3.63-12.16,5.43-.53.23-1.07.43-1.72.69V98.67C87.52,104.37,97.68,104.37,108,98.63Z"/></g></svg>