<svg xmlns="http://www.w3.org/2000/svg" xmlns:xlink="http://www.w3.org/1999/xlink" viewBox="0 0 120 120"><defs><style>.cls-1{fill:url(#未命名漸層_8);}.cls-2{fill:url(#未命名漸層_8-2);}.cls-3{fill:url(#未命名漸層_8-3);}</style><linearGradient id="未命名漸層_8" x1="95.78" y1="128.97" x2="92.21" y2="6.3" gradientUnits="userSpaceOnUse"><stop offset="0.04" stop-color="#bc9c64"/><stop offset="0.93" stop-color="#f3d197"/></linearGradient><linearGradient id="未命名漸層_8-2" x1="61.79" y1="129.96" x2="58.21" y2="7.29" xlink:href="#未命名漸層_8"/><linearGradient id="未命名漸層_8-3" x1="61.99" y1="129.95" x2="58.41" y2="7.28" xlink:href="#未命名漸層_8"/></defs><title>ICON</title><g id="圖層_1" data-name="圖層 1"><path class="cls-1" d="M82.31,23.35V2.56L103.1,23.35Z"/><path class="cls-2" d="M25.55,0H75.23V26.24c0,2.91,1.32,4.23,4.21,4.23H105.7v.85q0,37.84,0,75.69c0,7.44-5.72,13-13.27,13Q60,120,27.63,120a14.58,14.58,0,0,1-3.36-.35,12.84,12.84,0,0,1-10-12.92q0-33.45,0-66.9c0-8.9,0-17.81,0-26.71A12.21,12.21,0,0,1,19.9,2.36C21.57,1.26,23.65.77,25.55,0ZM86.76,62H87c0-3.67,0-7.34,0-11a3.48,3.48,0,0,0-3.47-3.66A11.53,11.53,0,0,1,72.8,40.43,4.07,4.07,0,0,0,68.69,38c-5.7,0-11.4.07-17.1,0a4.43,4.43,0,0,0-4.53,2.75A11.33,11.33,0,0,1,36.7,47.34a3.54,3.54,0,0,0-3.65,3.73q0,3,0,6c.06,5.85-.17,11.73.26,17.56,1,14,11.29,26.59,24.73,30.9a5.87,5.87,0,0,0,4.09-.06c14.4-5.43,22.75-15.72,24.56-31C87.17,70.34,86.76,66.15,86.76,62Z"/><path class="cls-3" d="M40.08,63.92c0-3,0-5.94,0-8.9,0-.68.12-1,.88-1.19a18.47,18.47,0,0,0,11.43-8.15A1.63,1.63,0,0,1,53.56,45Q60,45,66.44,45a1.64,1.64,0,0,1,1.18.65,18.5,18.5,0,0,0,11.54,8.18c.66.16.77.46.77,1,0,5.74.08,11.48-.05,17.21A29,29,0,0,1,60.77,98.42a2.32,2.32,0,0,1-1.54,0C48.29,94,41.85,86,40.35,74.32c-.43-3.41-.06-6.93-.06-10.4Zm16.76,9.94c-1-1-1.56-1.64-2.19-2.28s-1.26-1.28-1.9-1.9a3.52,3.52,0,1,0-5,4.95q3.09,3.12,6.21,6.21a3.51,3.51,0,0,0,5.38,0Q65.8,74.47,72.21,68a3.53,3.53,0,1,0-4.95-5q-4.83,4.79-9.6,9.61A8.1,8.1,0,0,0,56.84,73.86Z"/></g></svg>