<svg xmlns="http://www.w3.org/2000/svg" xmlns:xlink="http://www.w3.org/1999/xlink" viewBox="0 0 120 120"><defs><style>.cls-1{fill:url(#未命名漸層_8);}.cls-2{fill:url(#未命名漸層_8-2);}.cls-3{fill:url(#未命名漸層_8-3);}.cls-4{fill:url(#未命名漸層_8-4);}.cls-5{fill:url(#未命名漸層_8-5);}.cls-6{fill:url(#未命名漸層_8-6);}.cls-7{fill:url(#未命名漸層_8-7);}</style><linearGradient id="未命名漸層_8" x1="8.79" y1="118.21" x2="13.03" y2="-2.81" gradientUnits="userSpaceOnUse"><stop offset="0.04" stop-color="#bc9c64"/><stop offset="0.93" stop-color="#f3d197"/></linearGradient><linearGradient id="未命名漸層_8-2" x1="110.24" y1="121.76" x2="114.48" y2="0.75" xlink:href="#未命名漸層_8"/><linearGradient id="未命名漸層_8-3" x1="109.05" y1="121.72" x2="113.3" y2="0.71" xlink:href="#未命名漸層_8"/><linearGradient id="未命名漸層_8-4" x1="60.77" y1="120.03" x2="65.01" y2="-0.98" xlink:href="#未命名漸層_8"/><linearGradient id="未命名漸層_8-5" x1="67.91" y1="120.28" x2="72.15" y2="-0.73" xlink:href="#未命名漸層_8"/><linearGradient id="未命名漸層_8-6" x1="12.47" y1="118.34" x2="16.71" y2="-2.68" xlink:href="#未命名漸層_8"/><linearGradient id="未命名漸層_8-7" x1="11.28" y1="118.3" x2="15.52" y2="-2.72" xlink:href="#未命名漸層_8"/></defs><title>ICON</title><g id="圖層_1" data-name="圖層 1"><path class="cls-1" d="M2.61,120c-2-.93-2.62-2.54-2.61-4.72.07-10.66,0-21.32,0-32,0-2.89,1.32-4.22,4.22-4.22,3.48,0,7,0,10.43,0,2.84,0,4.15,1.32,4.15,4.16,0,10.74,0,21.47,0,32.21,0,2.17-.64,3.7-2.67,4.55Z"/><path class="cls-2" d="M120,53.44a4.53,4.53,0,0,0-.3.46,3.48,3.48,0,0,1-4.83,1.67c-2.49-1.19-5-2.43-7.42-3.7a3.5,3.5,0,1,1,3.09-6.28c2.53,1.2,5.06,2.41,7.49,3.79a9.44,9.44,0,0,1,2,2.18Z"/><path class="cls-3" d="M120,15.71a5.66,5.66,0,0,1-3.06,2.85c-2.19,1-4.31,2.17-6.49,3.19a3.48,3.48,0,0,1-4.23-1,3.38,3.38,0,0,1-.08-4.22,5.31,5.31,0,0,1,1.62-1.28c2-1.07,4.1-2.07,6.15-3.1,3-1.5,4.33-1.14,6.09,1.66Z"/><path class="cls-4" d="M97.42,33.61A33.63,33.63,0,1,1,63.77,0,33.69,33.69,0,0,1,97.42,33.61Zm-30,14.72c.35-.1.72-.2,1.08-.32A9.13,9.13,0,0,0,66.3,30.19c-1-.06-2.11,0-3.16-.05-.39,0-.79,0-1.17,0A2.14,2.14,0,0,1,59.78,28,2.1,2.1,0,0,1,62,25.87c1.8-.06,3.59,0,5.39,0A3.48,3.48,0,0,0,71,22.67,3.52,3.52,0,0,0,68,18.87l-.61-.13c-.36-2.29-1.65-3.62-3.5-3.68S60.61,16.37,60.15,19a9.17,9.17,0,0,0-5.59,3.55,8.76,8.76,0,0,0-1,9.19,8.64,8.64,0,0,0,7.52,5.35c1.55.14,3.12,0,4.68.13a2,2,0,0,1,2,2,2.09,2.09,0,0,1-1.89,2.16,6.11,6.11,0,0,1-1,0c-1.68,0-3.35,0-5,0a3.46,3.46,0,0,0-3.28,3.1,3.51,3.51,0,0,0,2.56,3.73c.36.1.74.18,1.09.26.45,2.4,1.82,3.74,3.72,3.67S67,50.8,67.38,48.33Z"/><path class="cls-5" d="M25.92,112.4V86.61c1.46,0,2.89,0,4.31,0a1.22,1.22,0,0,0,1.42-1A14.43,14.43,0,0,1,45.73,75.32c7.65-.09,15.3-.06,23,0a7.52,7.52,0,0,1,2.17,14.76,11.24,11.24,0,0,1-2.78.31c-3.59,0-7.18,0-10.77,0a3.42,3.42,0,0,0-3.33,3,3.52,3.52,0,0,0,2.31,3.68,6.91,6.91,0,0,0,1.37.26,7.22,7.22,0,0,0,.93,0c3.64,0,7.27,0,10.9,0a12,12,0,0,0,9.22-3.8q8.05-8.18,16.22-16.24c4.67-4.62,11.44-4.83,16.14-.56,1.79,1.63,1.94,3.73.24,5.44Q98.42,95.19,85.45,108.07a14.78,14.78,0,0,1-10.57,4.36c-16.12.07-32.25,0-48.37,0C26.36,112.46,26.2,112.43,25.92,112.4Z"/><path class="cls-6" d="M18.33,45.22A3.62,3.62,0,0,1,22,47.67a3.35,3.35,0,0,1-1.41,3.9c-2.74,1.48-5.52,2.91-8.36,4.18a3.47,3.47,0,0,1-3-6.22c2.67-1.44,5.42-2.75,8.15-4.08A3.53,3.53,0,0,1,18.33,45.22Z"/><path class="cls-7" d="M18.6,22.19a14.9,14.9,0,0,1-1.75-.57q-3.59-1.74-7.12-3.55a3.51,3.51,0,1,1,3.1-6.29c2.49,1.21,5,2.44,7.42,3.73a3.44,3.44,0,0,1,1.75,4A3.74,3.74,0,0,1,18.6,22.19Z"/></g></svg>