<svg xmlns="http://www.w3.org/2000/svg" xmlns:xlink="http://www.w3.org/1999/xlink" viewBox="0 0 120 120"><defs><style>.cls-1{fill:url(#未命名漸層_8);}.cls-2{fill:url(#未命名漸層_8-2);}.cls-3{fill:url(#未命名漸層_8-3);}</style><linearGradient id="未命名漸層_8" x1="57.28" y1="110.09" x2="61.52" y2="-10.92" gradientUnits="userSpaceOnUse"><stop offset="0.04" stop-color="#101010"/><stop offset="0.93" stop-color="#101010"/></linearGradient><linearGradient id="未命名漸層_8-2" x1="34.72" y1="109.3" x2="38.97" y2="-11.71" xlink:href="#未命名漸層_8"/><linearGradient id="未命名漸層_8-3" x1="87.34" y1="111.15" x2="91.58" y2="-9.87" xlink:href="#未命名漸層_8"/></defs><title>ICON</title><g id="圖層_1" data-name="圖層 1"><path class="cls-1" d="M60,64A32,32,0,1,1,92,32.05,32,32,0,0,1,60,64Z"/><path class="cls-2" d="M65.41,120H16.84C9.1,120,4,114.91,4,107.17c0-5.08-.3-10.18.75-15.2Q9.42,69.59,30.1,59.8a1,1,0,0,1,1.41.19A39.82,39.82,0,0,0,57,71.87c.32,0,.64.11,1.07.18a35.66,35.66,0,0,0-5.59,25.33C53.83,106.44,58.17,113.86,65.41,120Z"/><path class="cls-3" d="M60,92a28,28,0,1,1,27.54,28C72.47,119.93,60,107.2,60,92Zm32-4c0-1.37,0-2.57,0-3.77a4,4,0,1,0-8,0c0,1.24,0,2.47,0,3.81-1.3,0-2.45,0-3.61,0-2.57,0-4.36,1.63-4.39,3.94s1.79,4,4.41,4.06c1.18,0,2.37,0,3.59,0,0,1.33,0,2.45,0,3.57,0,2.62,1.68,4.45,4,4.42s3.94-1.82,4-4.37V96c1.43,0,2.67,0,3.92,0a4,4,0,1,0,0-8C94.67,88,93.43,88,92,88Z"/></g></svg>