<svg xmlns="http://www.w3.org/2000/svg" viewBox="0 0 120 120"><defs><style>.cls-1{fill:#101010;}</style></defs><title>ICON</title><g id="圖層_1" data-name="圖層 1"><path class="cls-1" d="M120,101.71a12.55,12.55,0,0,1-2.55,5.54c-1.65,1.85-3.65,3.3-6.09,3.38-5.64.19-11.29.06-16.67.06.06-3.46.17-7,.19-10.53,0-8.66,0-17.33,0-26A28.36,28.36,0,0,0,93.6,64.7a4.5,4.5,0,0,1-.07-.71c5,.3,10-.72,14.79,1.05A16.91,16.91,0,0,1,119.8,78.91a2.86,2.86,0,0,0,.2.53Z"/><path class="cls-1" d="M60,110.87H36.23c-2.88,0-4.13-1.26-4.13-4.14,0-11.36,0-22.72,0-34.08A17.18,17.18,0,0,1,45.7,55.46a17.45,17.45,0,0,1,3.82-.4c7,0,14-.06,21,0a17.13,17.13,0,0,1,17,13.54,18.9,18.9,0,0,1,.43,4.18q0,17,0,34.08c0,2.72-1.29,4-4,4Z"/><path class="cls-1" d="M60,9.12A20.82,20.82,0,1,1,39.17,29.75,20.88,20.88,0,0,1,60,9.12Z"/><path class="cls-1" d="M25.41,110.87c-3.75,0-7.65,0-11.55,0a27.62,27.62,0,0,1-6-.39C3,109.26,0,105.23,0,100.09,0,94,0,88,0,81.93,0,71.77,7.29,64.3,17.44,64c3-.07,6,0,9.13,0a21.26,21.26,0,0,0-.69,2.49,51.13,51.13,0,0,0-.72,6.62c-.08,10.23-.05,20.46,0,30.69C25.14,106.12,25.31,108.41,25.41,110.87Z"/><path class="cls-1" d="M39,44.14a15.57,15.57,0,1,1-15.39-15.6A15.65,15.65,0,0,1,39,44.14Z"/><path class="cls-1" d="M112.16,44.06A15.57,15.57,0,1,1,96.55,28.54,15.64,15.64,0,0,1,112.16,44.06Z"/></g></svg>