<svg xmlns="http://www.w3.org/2000/svg" xmlns:xlink="http://www.w3.org/1999/xlink" viewBox="0 0 120 120"><defs><style>.cls-1{fill:url(#未命名漸層_8);}.cls-2{fill:url(#未命名漸層_8-2);}</style><linearGradient id="未命名漸層_8" x1="61.98" y1="109.48" x2="58.41" y2="-13.19" gradientUnits="userSpaceOnUse"><stop offset="0.04" stop-color="#101010"/><stop offset="0.93" stop-color="#101010"/></linearGradient><linearGradient id="未命名漸層_8-2" x1="60.38" y1="109.52" x2="56.81" y2="-13.15" xlink:href="#未命名漸層_8"/></defs><title>ICON</title><g id="圖層_1" data-name="圖層 1"><path class="cls-1" d="M62.37,0c2.87.54,5.8.86,8.59,1.65A37.24,37.24,0,0,1,90.2,14.52a38.44,38.44,0,0,1,8.52,25.32c-.07,5.62.21,11.27-.25,16.86-.92,11.16-6,20.2-14.86,27.09a38,38,0,0,1-23.12,8.07c-2.78.07-4.3-1.75-3.74-4.45a3.21,3.21,0,0,1,3.44-2.56,31,31,0,0,0,11.42-2.24,31.49,31.49,0,0,0,18-18.38,4.2,4.2,0,0,0,.12-.48c-2.33,0-4.61,0-6.9,0-.34,0-.77.55-1,.93a24.54,24.54,0,0,1-43.24.3,2.13,2.13,0,0,0-2.24-1.3,30.82,30.82,0,0,1-6.87-.37c-4.92-1.12-7.85-5-7.92-10.38-.08-5.86-.21-11.73.17-17.57a36.74,36.74,0,0,1,9-21.79A38,38,0,0,1,52,.87C53.9.47,55.8.29,57.69,0Zm-27,42.13c.46,0,.69.06.92.06,8,0,16.09.15,24.13,0C70,41.91,77.28,37.48,81.91,29a1.38,1.38,0,0,1,1.45-.83c2.09,0,4.19,0,6.28,0A31.28,31.28,0,0,0,58.24,7.09c-15,.84-25.07,12-27.69,21.06,2.06,0,4.12-.06,6.18,0a1.65,1.65,0,0,0,1.77-1.09,24.37,24.37,0,0,1,38-6.62A1.64,1.64,0,0,1,77,22.38,17.5,17.5,0,0,1,60.14,35.14c-7.65.06-15.3,0-23,0H35.72Z"/><path class="cls-2" d="M26.05,120a4.57,4.57,0,0,1-2.91-3.87c-1.09-6.15-2.4-12.25-3.41-18.41a11.07,11.07,0,0,1,6.14-11.28c5.09-2.37,10.21-4.68,15.33-7a1.77,1.77,0,0,1,1.28,0c2.67,1.26,5.32,2.57,8,3.87a2,2,0,0,1,.31.26,9.68,9.68,0,0,0-.1,9.51,10,10,0,0,0,9,5.79A43.67,43.67,0,0,0,78.41,95a44.48,44.48,0,0,0,13.06-8.75,1.32,1.32,0,0,1,1.71-.34C99,88.48,101.36,93.39,100,100c-1.06,5.36-2.14,10.71-3.13,16.08A4.58,4.58,0,0,1,94,120Z"/></g></svg>