<svg xmlns="http://www.w3.org/2000/svg" xmlns:xlink="http://www.w3.org/1999/xlink" viewBox="0 0 120 120"><defs><style>.cls-1{fill:url(#未命名漸層_8);}.cls-2{fill:url(#未命名漸層_8-2);}</style><linearGradient id="未命名漸層_8" x1="50.81" y1="117.96" x2="47.24" y2="-4.71" gradientUnits="userSpaceOnUse"><stop offset="0.04" stop-color="#101010"/><stop offset="0.93" stop-color="#101010"/></linearGradient><linearGradient id="未命名漸層_8-2" x1="78.87" y1="117.14" x2="75.3" y2="-5.53" xlink:href="#未命名漸層_8"/></defs><title>ICON</title><g id="圖層_1" data-name="圖層 1"><path class="cls-1" d="M0,95.85V94a33.23,33.23,0,0,1,2.11-2.6c3-3,6-5.92,9-8.88.3-.3.57-.61.87-.93L11.48,81A48.25,48.25,0,0,1,1.05,59.4c-.46-2.28-.71-4.6-1-6.9V46.17c.33-2.27.49-4.58,1-6.8C6,19.21,18.46,6.44,38.57,1.23,41.05.59,43.63.4,46.17,0H52.5c1.42.18,2.86.33,4.28.56,12.06,2,22.31,7.4,30.05,16.86C99.56,33,102.52,50.54,94.42,68.92,85.83,88.4,70.08,98.28,48.76,98.61c-14.68.23-29.36-.13-44-.14C2.54,98.47.92,97.9,0,95.85ZM49.58,45.93H28.74a3.57,3.57,0,0,0-3.59,2.12c-1.09,2.4.7,4.91,3.51,4.91H70.22a3.54,3.54,0,0,0,3.5-2.07,3.5,3.5,0,0,0-3.42-5C63.39,45.92,56.48,45.94,49.58,45.93ZM49.45,60c-6.91,0-13.81,0-20.72,0a3.56,3.56,0,0,0-3.58,2.13c-1.09,2.4.71,4.9,3.52,4.9q12.06,0,24.12,0c5.81,0,11.62,0,17.44,0A3.52,3.52,0,0,0,73.72,65c1.12-2.39-.64-4.94-3.44-5Zm0-21.1H70.17a3.57,3.57,0,0,0,3.53-2,3.49,3.49,0,0,0-3.35-5c-6.79,0-13.58,0-20.37,0H28.68a3.54,3.54,0,0,0-3.45,2,3.5,3.5,0,0,0,3.38,5.06C35.56,38.92,42.5,38.9,49.45,38.9Z"/><path class="cls-2" d="M103.63,34.12c17.56,15,23.8,46,4.39,68.85l2.54,2.51c2.67,2.63,5.33,5.27,8,7.89,1.23,1.2,1.82,2.55,1.12,4.21s-2,2.19-3.78,2.19q-22,.09-44,.23a49.28,49.28,0,0,1-35.05-13.47,6.76,6.76,0,0,0-.74-.55l.12-.33h1.32c5.39-.05,10.79.18,16.16-.2A53.77,53.77,0,0,0,90,88.29a54.89,54.89,0,0,0,15.66-41.64c-.17-3.79-1.1-7.55-1.69-11.32C103.86,35,103.75,34.59,103.63,34.12Z"/></g></svg>