<svg xmlns="http://www.w3.org/2000/svg" xmlns:xlink="http://www.w3.org/1999/xlink" viewBox="0 0 120 120"><defs><style>.cls-1{fill:url(#未命名漸層_8);}.cls-2{fill:url(#未命名漸層_8-2);}.cls-3{fill:url(#未命名漸層_8-3);}.cls-4{fill:url(#未命名漸層_8-4);}.cls-5{fill:url(#未命名漸層_8-5);}.cls-6{fill:url(#未命名漸層_8-6);}</style><linearGradient id="未命名漸層_8" x1="59.02" y1="115.06" x2="63.27" y2="-5.95" gradientUnits="userSpaceOnUse"><stop offset="0.04" stop-color="#bc9c64"/><stop offset="0.93" stop-color="#f3d197"/></linearGradient><linearGradient id="未命名漸層_8-2" x1="57.83" y1="115.02" x2="62.07" y2="-5.99" xlink:href="#未命名漸層_8"/><linearGradient id="未命名漸層_8-3" x1="10.45" y1="113.36" x2="14.69" y2="-7.65" xlink:href="#未命名漸層_8"/><linearGradient id="未命名漸層_8-4" x1="103.81" y1="116.63" x2="108.05" y2="-4.38" xlink:href="#未命名漸層_8"/><linearGradient id="未命名漸層_8-5" x1="76.52" y1="115.67" x2="80.76" y2="-5.34" xlink:href="#未命名漸層_8"/><linearGradient id="未命名漸層_8-6" x1="35.84" y1="114.25" x2="40.08" y2="-6.76" xlink:href="#未命名漸層_8"/></defs><title>ICON</title><g id="圖層_1" data-name="圖層 1"><path class="cls-1" d="M120,115.07c-.55,0-1.09,0-1.64,0H0V59.37H26.35v24H19v7.5h82V83.46h-7.4V59.31h25c.47,0,.93,0,1.4,0Z"/><path class="cls-2" d="M85.91,83.37H34V24.22C44.53,21.84,50.91,15.4,53.32,4.94H66.6c2.4,10.5,8.82,16.9,19.31,19.29ZM38.4,63.75c1.2,0,2.29,0,3.38,0a1.56,1.56,0,0,1,1.81,1.14,10.37,10.37,0,0,0,12.09,6.34c4.11-.89,6.22-3.76,7.27-7.6.55-2,.93-4,1.54-6A2.22,2.22,0,0,1,68,56.41,4,4,0,0,1,69.34,58c1.21,2.56.25,5.34-2.49,6.21v7.33a16.56,16.56,0,0,0,1.7-.17,10.54,10.54,0,0,0,7.88-6.67,1.21,1.21,0,0,1,1.36-.92c1.23.06,2.47,0,3.7,0V56.24c-1.2,0-2.33-.06-3.45,0a1.48,1.48,0,0,1-1.71-1.1A10.36,10.36,0,0,0,64.7,48.72c-4.34.74-6.63,3.66-7.74,7.69-.53,2-.91,4-1.49,5.9a2.34,2.34,0,0,1-3.91,1,4.49,4.49,0,0,1-1.18-1.7c-1-2.41.06-4.53,2.69-5.8V48.58a6.37,6.37,0,0,0-.76,0,10.38,10.38,0,0,0-8.76,6.68,1.36,1.36,0,0,1-1.55,1c-1.19,0-2.39,0-3.6,0Z"/><path class="cls-3" d="M16.93,8.18V32.53l.28.16,2.45-3,5.4,5.39L13.2,47,1.33,35.11l5.2-5.2,2.58,2.84.29-.17V8.18Z"/><path class="cls-4" d="M110.46,8.17V32.55l.26.15,2.44-3,5.39,5.42L106.76,46.93l-12-12,5.27-5.26,2.54,3,.33-.2V8.17Z"/><path class="cls-5" d="M74.52,4.93H85.88V16.28C81.41,16.16,75,9.78,74.52,4.93Z"/><path class="cls-6" d="M34,4.94H45.3C45.64,9,38.65,16.08,34,16.29Z"/></g></svg>