<svg xmlns="http://www.w3.org/2000/svg" xmlns:xlink="http://www.w3.org/1999/xlink" viewBox="0 0 120 120"><defs><style>.cls-1{fill:url(#未命名漸層_8);}.cls-2{fill:url(#未命名漸層_8-2);}</style><linearGradient id="未命名漸層_8" x1="61.85" y1="134.03" x2="58.27" y2="11.36" gradientUnits="userSpaceOnUse"><stop offset="0.04" stop-color="#bc9c64"/><stop offset="0.93" stop-color="#f3d197"/></linearGradient><linearGradient id="未命名漸層_8-2" x1="63.23" y1="133.99" x2="59.66" y2="11.32" xlink:href="#未命名漸層_8"/></defs><title>ICON</title><g id="圖層_1" data-name="圖層 1"><path class="cls-1" d="M96.33,120H23.67a23.21,23.21,0,0,1-3.31-1.06c-4.21-2.1-6.07-5.63-6.06-10.25q0-38,0-76A18.39,18.39,0,0,1,14.52,30a10.39,10.39,0,0,1,10.33-8.52c0,1,0,2,0,3a10.57,10.57,0,0,0,11,10.92q24.19,0,48.39,0c6.39,0,10.89-4.55,11-10.93,0-1,0-2,0-3.34a26.6,26.6,0,0,1,4.48,1.3c4.18,2,6.06,5.53,6.06,10.12q0,26.78,0,53.55v22.85c0,3.7-1.26,6.87-4.38,9A27.39,27.39,0,0,1,96.33,120ZM38.87,55.09,34.58,50.7a3.52,3.52,0,1,0-5.07,4.86c2.12,2.19,4.3,4.32,6.45,6.46s3.88,2,5.88,0l9.53-9.53c1.35-1.35,2.73-2.67,4-4.06a3.5,3.5,0,1,0-5-4.94c-.57.52-1.11,1.09-1.66,1.65Zm0,21.07c-1.45-1.5-2.79-2.92-4.18-4.29-1.65-1.65-3.72-1.75-5.2-.32s-1.43,3.59.25,5.29q3.17,3.21,6.37,6.37c1.9,1.89,3.81,1.89,5.71,0Q48.42,76.59,55,70c1.78-1.78,1.94-3.85.44-5.37S51.85,63.19,50,65L39.9,75.12C39.6,75.42,39.29,75.71,38.82,76.16Zm.06,21.18c-1.59-1.64-3-3.19-4.52-4.64a3.49,3.49,0,1,0-5,4.91q3.46,3.58,7,7a3.35,3.35,0,0,0,4.94,0q7.08-7,14.08-14.07a3.28,3.28,0,0,0,.9-3.34c-.74-2.73-3.9-3.51-6-1.43-3,3-6,6-9,9C40.52,95.6,39.78,96.4,38.88,97.34ZM77.5,56.49H87.7c2.36,0,4-1.46,3.93-3.55s-1.6-3.47-3.9-3.47H67.46c-2.36,0-4,1.46-3.93,3.55s1.6,3.46,3.9,3.47Zm.08,14.06H67.5c-2.38,0-4,1.43-4,3.51s1.59,3.51,4,3.52H87.66c2.38,0,4-1.43,4-3.52s-1.59-3.5-4-3.51Zm-.12,28.12c3.4,0,6.8,0,10.19,0,2.39,0,4-1.43,4-3.51s-1.59-3.51-4-3.52H67.5c-2.38,0-4,1.43-4,3.52s1.59,3.5,4,3.51C70.82,98.68,74.14,98.67,77.46,98.67Z"/><path class="cls-2" d="M45.93,14.3C46.64,11.47,47.32,8.75,48,6q1.54-6,7.77-6h8.56A7.25,7.25,0,0,1,72,5.93c.71,2.75,1.39,5.52,2.11,8.37h6.22c5,0,7.83,2.86,7.84,7.86,0,.93,0,1.87,0,2.81a3.51,3.51,0,0,1-3.39,3.38c-.35,0-.7,0-1.06,0H36.33c-3.23,0-4.45-1.23-4.45-4.46,0-.82,0-1.64,0-2.46A7,7,0,0,1,39,14.31C41.28,14.26,43.55,14.3,45.93,14.3Zm17.58-3.49A3.51,3.51,0,1,0,60,14.29,3.54,3.54,0,0,0,63.51,10.81Z"/></g></svg>