<svg xmlns="http://www.w3.org/2000/svg" xmlns:xlink="http://www.w3.org/1999/xlink" viewBox="0 0 120 120"><defs><style>.cls-1{fill:url(#未命名漸層_8);}.cls-2{fill:url(#未命名漸層_8-2);}.cls-3{fill:url(#未命名漸層_8-3);}.cls-4{fill:url(#未命名漸層_8-4);}.cls-5{fill:url(#未命名漸層_8-5);}.cls-6{fill:url(#未命名漸層_8-6);}.cls-7{fill:url(#未命名漸層_8-7);}</style><linearGradient id="未命名漸層_8" x1="61.13" y1="125.9" x2="57.56" y2="3.23" gradientUnits="userSpaceOnUse"><stop offset="0.04" stop-color="#bc9c64"/><stop offset="0.93" stop-color="#f3d197"/></linearGradient><linearGradient id="未命名漸層_8-2" x1="61.79" y1="125.88" x2="58.22" y2="3.21" xlink:href="#未命名漸層_8"/><linearGradient id="未命名漸層_8-3" x1="95.77" y1="124.89" x2="92.2" y2="2.22" xlink:href="#未命名漸層_8"/><linearGradient id="未命名漸層_8-4" x1="62.61" y1="125.86" x2="59.04" y2="3.19" xlink:href="#未命名漸層_8"/><linearGradient id="未命名漸層_8-5" x1="29.77" y1="126.81" x2="26.19" y2="4.14" xlink:href="#未命名漸層_8"/><linearGradient id="未命名漸層_8-6" x1="100.28" y1="124.76" x2="96.7" y2="2.09" xlink:href="#未命名漸層_8"/><linearGradient id="未命名漸層_8-7" x1="24.02" y1="126.98" x2="20.45" y2="4.31" xlink:href="#未命名漸層_8"/></defs><title>ICON</title><g id="圖層_1" data-name="圖層 1"><path class="cls-1" d="M0,88.35l6.91-4C14.09,80.2,21.25,76,28.46,71.91c6.07-3.46,12.33-4,18.85-1.17,8,3.52,16.14,6.92,24.19,10.4a6.81,6.81,0,0,1,4.23,7.07,6.69,6.69,0,0,1-5.94,6,25,25,0,0,1-4.8-.26c-4.84-.47-9.67-1-14.51-1.47-.22,0-.45,0-.67,0a2.34,2.34,0,0,0-2.4,2.06A2.25,2.25,0,0,0,49.47,97c4.3.48,8.61.9,12.92,1.33,2,.2,4.08.47,6.13.55a11.35,11.35,0,0,0,11.13-7A2.44,2.44,0,0,1,81,90.61q16-4.8,32-9.5A5.17,5.17,0,0,1,117,90.65q-21.22,11.07-42.47,22.1c-5.47,2.83-11.28,3.31-17.32,2.36-12-1.9-24.07-3.69-36.1-5.53-3-.45-6-.88-9-1.38a1.6,1.6,0,0,1-1-.68C7.4,101.2,3.76,94.87,0,88.35Z"/><path class="cls-2" d="M46.74,35.78c7.64,7,18.25,6.9,25.77-.08,4.95,3.23,9.12,7.2,10.56,13.17,1.21,5-2.61,10-7.69,10.64a14.55,14.55,0,0,1-1.86.14q-13.93,0-27.85,0c-4.64,0-8.05-2.39-9.34-6.39a9.89,9.89,0,0,1,.78-7.52A25.25,25.25,0,0,1,46.74,35.78Z"/><path class="cls-3" d="M106.39,18.28A13.73,13.73,0,1,1,92.7,4.45,13.77,13.77,0,0,1,106.39,18.28Z"/><path class="cls-4" d="M59.44,9.09A13.74,13.74,0,0,1,73.36,23c0,7.4-6.33,13.54-14,13.55a13.72,13.72,0,0,1,.11-27.44Z"/><path class="cls-5" d="M40.29,18.15a13.69,13.69,0,1,1-27.38.12A13.86,13.86,0,0,1,26.71,4.45,13.72,13.72,0,0,1,40.29,18.15Z"/><path class="cls-6" d="M89.86,54.93a55.33,55.33,0,0,0,0-6.45c-.55-4.7-3.12-8.47-6.11-11.95A46.61,46.61,0,0,0,80.06,33c-.13-.13-.33-.21-.4-.35-.18-.39-.31-.8-.46-1.2a3.2,3.2,0,0,1,1.12.34,19.71,19.71,0,0,0,8.35,4c6.1,1.27,11.59,0,16.27-4.23l.61-.53c4.51,3,8.53,6.5,10.28,11.86a9,9,0,0,1-8.53,12c-5.61.11-11.24,0-16.86,0A3.34,3.34,0,0,1,89.86,54.93Z"/><path class="cls-7" d="M13.74,31.13a16.65,16.65,0,0,0,8.48,4.73A19.35,19.35,0,0,0,38.48,32.1c.22-.16.39-.4.63-.49a3.93,3.93,0,0,1,.92-.1c-.08.31-.06.72-.25.91-1.24,1.21-2.6,2.3-3.78,3.57a25,25,0,0,0-6.38,11,16,16,0,0,0,.19,7.94c-.63,0-1.14.1-1.66.1C23,55,17.8,55,12.62,55,5.06,55,.83,48.44,3.89,41.5A24.85,24.85,0,0,1,13.74,31.13Z"/></g></svg>