<svg xmlns="http://www.w3.org/2000/svg" xmlns:xlink="http://www.w3.org/1999/xlink" viewBox="0 0 120 120"><defs><style>.cls-1{fill:url(#未命名漸層_8);}.cls-2{fill:url(#未命名漸層_8-2);}.cls-3{fill:url(#未命名漸層_8-3);}.cls-4{fill:url(#未命名漸層_8-4);}.cls-5{fill:url(#未命名漸層_8-5);}</style><linearGradient id="未命名漸層_8" x1="77.75" y1="121.48" x2="77.34" y2="-1.35" gradientUnits="userSpaceOnUse"><stop offset="0.04" stop-color="#bc9c64"/><stop offset="0.93" stop-color="#f3d197"/></linearGradient><linearGradient id="未命名漸層_8-2" x1="40.9" y1="121.61" x2="40.48" y2="-1.22" xlink:href="#未命名漸層_8"/><linearGradient id="未命名漸層_8-3" x1="60.17" y1="121.54" x2="59.75" y2="-1.29" xlink:href="#未命名漸層_8"/><linearGradient id="未命名漸層_8-4" x1="94.71" y1="121.43" x2="94.3" y2="-1.41" xlink:href="#未命名漸層_8"/><linearGradient id="未命名漸層_8-5" x1="23.04" y1="121.67" x2="22.62" y2="-1.16" xlink:href="#未命名漸層_8"/></defs><title>ICON</title><g id="圖層_1" data-name="圖層 1"><path class="cls-1" d="M56.46,120c-2.27-.31-4.55-.57-6.81-1a56.57,56.57,0,0,1-14.37-4.44l3.81-5.92c13.52,5.59,27.32,5.87,41.09.25a52,52,0,0,0,22.41-17.5A53.18,53.18,0,0,0,106.1,34l6.2-3.53c1.25,2.79,2.68,5.44,3.66,8.24,7.84,22.3,4.3,42.73-10.91,60.76-9.85,11.67-22.79,18.19-38,20.1l-3.58.45Z"/><path class="cls-2" d="M0,56.49c.3-2.19.52-4.4.9-6.58A58.77,58.77,0,0,1,20.34,15.05,59.82,59.82,0,0,1,80.46,3.66c.28.11.56.25.74.34l-3.29,6C56,3.46,36.25,7.45,20.71,24.75S3.33,62,12.23,83.35L6,86.42C4.9,83.63,3.77,81,2.87,78.27A55,55,0,0,1,.19,64.53a7.17,7.17,0,0,0-.19-1Z"/><path class="cls-3" d="M61.78,81.35c-7,0-14,.07-21,0a18.61,18.61,0,0,1-2.46-37c.72-.11.93-.37,1-1.07a16.74,16.74,0,0,1,32.73-1.67,1.25,1.25,0,0,0,1.06,1,12.9,12.9,0,0,1,9.63,8.53A1.16,1.16,0,0,0,84,52a14.7,14.7,0,0,1,.53,29.23,21.85,21.85,0,0,1-2.69.09h-20Z"/><path class="cls-4" d="M104.54,15.17a10.19,10.19,0,1,1-10-10.23A10.18,10.18,0,0,1,104.54,15.17Z"/><path class="cls-5" d="M12.8,102.57A10.18,10.18,0,1,1,23,112.74,10.2,10.2,0,0,1,12.8,102.57Z"/></g></svg>