<svg xmlns="http://www.w3.org/2000/svg" xmlns:xlink="http://www.w3.org/1999/xlink" viewBox="0 0 120 120"><defs><style>.cls-1{fill:url(#未命名漸層_8);}.cls-2{fill:url(#未命名漸層_8-2);}.cls-3{fill:url(#未命名漸層_8-3);}</style><linearGradient id="未命名漸層_8" x1="55.86" y1="121.25" x2="63.32" y2="0.66" gradientUnits="userSpaceOnUse"><stop offset="0.04" stop-color="#101010"/><stop offset="0.93" stop-color="#101010"/></linearGradient><linearGradient id="未命名漸層_8-2" x1="36.95" y1="120.08" x2="44.41" y2="-0.51" xlink:href="#未命名漸層_8"/><linearGradient id="未命名漸層_8-3" x1="60.08" y1="121.51" x2="67.54" y2="0.92" xlink:href="#未命名漸層_8"/></defs><title>ICON</title><g id="圖層_1" data-name="圖層 1"><path class="cls-1" d="M107.39,44.81c-.59,1.27-2.23,3.37-2.6,3.21-1.89-.81-4.69-2-5-3.47-.9-4-3.91-7.47-1.81-12.4,1.75-4.11,1.42-9.1,2-14-4.22,3.8-4.71,9-6,14.06-1.81-6.72-3.51-13-5.41-20.09-2.57,5.21,1.63,10.32-1.73,14.6,0-1,.55-1.92.52-2.83,0-.53-.91-1.05-1.82-2-.08-.38-.34-1.66-.61-2.95l-.62-.2L83.27,21l-.84-.42c-.26-1.31-.53-2.63-.8-4L79.4,18.24l-2.71-3.77-1,2.16c-.28-5.88-3.16-9-8.7-9.74-.14.71-.27,1.44-.4,2.11L64.4,8.18C65.18,10.09,66,12,66.77,14l-.67.29-2.5-2.73c-.21,1.13-.35,1.88-.54,2.92-1.37-1.14-2.35-2-3.1-2.57L56.88,16c.11-2.21.19-3.66.26-5.11l-1.46,0v4.24l-4.12-2.56c-1.05,3.2-2.54,1-3.71.59-.48.68-1,1.82-1.28,1.76a11.7,11.7,0,0,1-4.12-1.49c-2.1-1.44-3.94-1-5.87.32h4.14c-.25,1-.44,1.7-.59,2.31l-3.57-.46,1,1.84a11.22,11.22,0,0,1-1.31.53c-2.18.56-4.75.56-6.5,1.75C25,22.92,20.18,26.34,17.62,32c-1.06,2.32-2.54,4.45-3.79,6.69-.05.09.27.38.43.58A32.64,32.64,0,0,0,12,43.72C10.27,49,8.31,54.21,7.21,59.61a35.48,35.48,0,0,0-.3,12,58.57,58.57,0,0,0,11,25.86c3.3,4.5,7.48,8.59,13,10.84,4,1.63,8.58,1.74,12,4.77h1.89l-5.09-3.18c15.9,3.68,29.16.46,40.66-9.64a1.85,1.85,0,0,0-1.53,0c-6.74,2.51-13.38,5.33-20.25,7.45C51.26,110,43.93,108.61,37,106A43.59,43.59,0,0,1,24,98.29c-5.58-4.69-10-9.75-12.58-16.47A43.76,43.76,0,0,1,9.37,57.27c1.63-8.16,5.83-14.7,11.1-20.75,1.13-1.3,2.69-3,4.13-3.09,2.48-.14,3.43-1.44,4.45-3.19a7.59,7.59,0,0,1,2.16-2.66c2.77-1.73,5.69-3.22,8.31-4.66.62.35,1.12.88,1.55.83a75.56,75.56,0,0,0,9.76-1.47c2.81-.73,7,.55,8.55,2.92a3.63,3.63,0,0,0,2.87,1.36,31.83,31.83,0,0,0,5.48-1.69l-5.32,5.05,1.83,1.26-.06.86c-1.51,0-3.85.61-4.39-.11-1.95-2.59,2.19-1.82,2.4-4-1.18.51-2.37.72-3.06,1.42s-1.09,2-1.79,3.42l-1.12-2.94c-.5,1.09-.84,1.86-1.19,2.62l7.13,3.11H59.09c.57,2.18,1.66,2.68,3.48,1.35.39-.29.77-1.11,1-1,3.25.89,4.08-1.64,5.6-3.54.77-1,2.47-1.27,3.82-1.6,1.7-.42,2.31.63,2.68,2.19a10.94,10.94,0,0,0,1.65,2.8c.41-.22.69-.35.94-.52s.54-.38.87-.63c-.17,1.26-.3,2.25-.43,3.25.92-.28,1.83-.63,2.78-.82a2.93,2.93,0,0,1,1.88,0c.51.3,1.11,1.15,1,1.63-.9,4.78,2.42,7.91,4.06,11.51-1.73,2,.27,3,1.08,3.94a35.67,35.67,0,0,0-1.59,4c0,.16,1.13.68,1.38.82.31-1.37.28-2.39.75-3.06,2-2.95,4,1,6.28,0l1.23-2.39c-2.06,1-3.11.5-3.13-1.93a29.62,29.62,0,0,0-.57-3.92c3.23.48,3.92,2.71,4.44,5.08,2.15.93,4.23,2.36,6.91,1.22-1.41-2.29-2.43-4.22,1-5.19a2.26,2.26,0,0,0,1.19-1.38c.88-3,2.49-4.9,6.1-4.22C108.41,42.31,108.5,42.39,107.39,44.81ZM21.23,31.89c-1.58,2.12-3.14,4.26-4.85,6.28-.46.54-1.37.7-2.09,1,1.52-2.27,3.07-4.51,4.54-6.8.68-1.06,1.19-2.22,1.78-3.33l1.46,1.29A11.9,11.9,0,0,1,21.23,31.89Zm6.39-4.26-1.44-2.45c3.88-4.15,4.53-4.29,8.46-1.66Zm58.95,9.12-7.65-10,.62-.46C81.59,29.8,87.93,30.15,86.57,36.75Zm7.05,5.67c-.87-.31-.52-2.56-.52-2.56l3.33,2.56A7.17,7.17,0,0,1,93.62,42.42Z"/><path class="cls-2" d="M33,64c-.31.07-.58.43-.89.67,3.6,3.28,6,3.47,8.88.19a89,89,0,0,0,5.91-8.53c3,5.39,8.17,7.36,13.49,10-.63-5.84-2.42-7.77-7.53-9.25a44.48,44.48,0,0,1-5.21-2.25c2.37-4.42,5.52-6.42,9.69-6.78l-3.28-4.64c-1.31-1.88-3.07-1.94-4.94-1.09s-3.55,1.78-5.71,2.89C45.1,41.87,46.68,39,48,36a4.22,4.22,0,0,0-2.27-5.43c-2.18,5.31-4.33,10.54-6.47,15.78l-1.05-.25c.17-1.82.33-3.64.56-6.08-1.51-2.12-4.06-1.94-6.88-.35,0-.36-.09-.71-.14-1.07l9.07-2.75c-.68-2.76-1.37-3.44-4-2.66a82.51,82.51,0,0,0-10.32,3.84c-3,1.33-3.22,3.51-1.08,6.08a19.76,19.76,0,0,1,1.41,2.37l-4.26-1.42c-.41,2.85-.43,5.31-1.17,7.53-1.14,3.44-.14,6.34,1.43,9.23,1.66,3,4,3.93,7.29,2.59,2.09-.86,4-2.28,6.11-3,3.92-1.24,4.77-4.1,4.78-7.66,0-1.48.19-3,.31-4.62,3.25.7,3.59,2.48,2.61,4.46C41.5,57.57,39.3,62.79,33,64ZM49,45.64a2.93,2.93,0,0,1,1.62.23,23.6,23.6,0,0,0-2.51,2.53s-.94.08-1.14-1.29A22.6,22.6,0,0,1,49,45.64ZM27.33,47.45s1.89-.15,1.61.7c0,0-2.08,1.58-2.5,2,0,0-.18-.64-1.25-.67A4.21,4.21,0,0,1,27.33,47.45Zm.57,12.2-1.45.42C24,56.72,24,54.84,26.42,51l2.66,8.27C28.83,59.35,28.37,59.51,27.9,59.65Zm7.67-12.11c.35,4.11-.37,4.72-3.77,4.26l-.6-.86Zm-5.25-3.17,1.24-.49.19.43-1.41.55ZM32,58.26c-1.11-.2-1.16-3.43-1.16-3.43a19.85,19.85,0,0,0,5,1.52C35.34,57.15,32,58.26,32,58.26Z"/><path class="cls-3" d="M77.67,82.28c1,0,1.94-.12,3.48-.22-2.05-2.94-4.48-2.24-7.39-1.92a12.41,12.41,0,0,0,1.7-6.38c-.61-1.84-2.48-2.88-5.71-4,3.29-.91,5-.2,6.42,1.51.35.42,1.23,1,1.4.85.51-.38,1.2-1.2,1.08-1.62a31.88,31.88,0,0,0-2.05-5c-.2-.39-1.47-.7-1.51-.63-1.23,2.25-3.14.69-4.71,1.08,0-3.38-2.88-5.47-4.92-4.36a15,15,0,0,1,1.29,2.68c.69,2.91-1.57,3.58-3.81,4.56.2-1.53.38-2.91.48-3.73-1.22,1.88-2.67,4.12-4.11,6.36.22.78.82,1.68.61,2.31-1.67,5.07-1.72,5.06-.09,10.21l-5.26,1.67c.1-1.42.2-3,.34-5.12l-2.73,4.13c-1.24-5.38-.81-6.3,3.38-9,1-.62,1.59-1.84,2.37-2.79l-3.74-1c.42-1.28,1.07-2.36,1-3.42a5.65,5.65,0,0,0-1.26-3,7.39,7.39,0,0,0-2.31-1.32c-.26.88-.6,1.75-.78,2.65a17.33,17.33,0,0,1-.51,3.36c-1.08,2.57,1.09,7.72-5,6.57-.34-.06-1.18.77-1.22,1.24-.16,1.58-.06,3.18-.06,5l5.35-1.3c-.32,3.76-.54,7.06-.91,10.34a4.29,4.29,0,0,0,3.53,4.84c.4-3.26.79-6.52,1.18-9.76,1.48.74,2.33,1.51,3.2,1.53,1.82,0,2.52.71,3.23,2.45,2,4.85,6.4,7,11.63,6.53,2-.18,2.5-1,2.34-2.78-.24-2.63-.55-5.27-.54-7.9C73.11,83.43,74.36,82.33,77.67,82.28ZM64.25,71.76,65,71.5v1.43l-.78-.22ZM63.51,79l.78-.22s.21.89.77.77v.74S63.08,80.58,63.51,79ZM61,80.22s.73,2.47,2,2.43a2.13,2.13,0,0,1-1.81,1A6.12,6.12,0,0,1,61,80.22Zm9.73,8c-.07,1.15,0,2.31-.18,3.44-.2,1.47.89,4-1.62,3.93-2,0-4.07-1.2-6-2.13a2.77,2.77,0,0,1-1-2.16,4.08,4.08,0,0,1,.84-2.63c.25-.29,1.58.18,2.3.54,1.25.64,2.41,1.46,3.85,2.35,1-3.83-.86-5.15-4.32-6.12l6.58-3.09C71,84.92,70.84,86.58,70.73,88.25Zm-.79-9.94c-.08,1.87-1.32,1.26-1.32,1.26C68.27,77.8,69.94,78.31,69.94,78.31Zm1.23-3.64s-2.23.78-2.45-1.23a3.29,3.29,0,0,0,2.45-.75Z"/></g></svg>