<?xml version="1.0" encoding="utf-8"?>
<!-- Generator: Adobe Illustrator 25.3.1, SVG Export Plug-In . SVG Version: 6.00 Build 0)  -->
<svg version="1.1" id="圖層_1" xmlns="http://www.w3.org/2000/svg" xmlns:xlink="http://www.w3.org/1999/xlink" x="0px" y="0px"
	 viewBox="0 0 21.8 19.2" style="enable-background:new 0 0 21.8 19.2;" xml:space="preserve">
<style type="text/css">
	.st0{fill:#BC1111;}
</style>
<g id="home">
	<path class="st0" d="M21.8,9.3v0.6l0,0c-0.2,0.6-0.8,0.9-1.4,0.9c-0.3,0-0.7,0-1,0s-0.3,0.1-0.3,0.2c0,1.9,0,3.7,0,5.6
		c0,1-0.5,1.9-1.4,2.3c-0.3,0.1-0.6,0.2-0.9,0.3h-3.9c0-0.1,0-0.1,0.1-0.2v-5.5c0-0.3,0-0.6,0-0.9c0-0.5-0.1-0.6-0.7-0.6H9.6
		c-0.6,0-0.7,0.1-0.7,0.6v0.1c0,2.2,0,4.4,0,6.5H5l0,0c-1.2-0.1-2.1-1.1-2.2-2.2c0-0.2,0-0.4,0-0.6c0-1.8,0-3.6,0-5.4
		c0-0.2-0.1-0.2-0.3-0.2s-0.7,0-1,0c-0.1,0-0.2,0-0.3,0c-0.6-0.1-1-0.4-1.2-1V9.4C0.1,9,0.4,8.6,0.7,8.3l3.1-2.8l5.1-4.6
		c1.1-1.1,2.9-1.1,4-0.1c0.8,0.8,1.6,1.5,2.5,2.3c1.7,1.5,3.4,3.1,5,4.6C21,8.1,21.5,8.7,21.8,9.3z M7.5,18v-0.2c0-1.6,0-3.2,0-4.8
		c0-0.3,0-0.5,0.1-0.8c0.1-0.8,0.9-1.4,1.7-1.4c0.4,0,0.8,0,1.1,0c0.8,0,1.5,0,2.2,0c0.6,0,1.2,0.4,1.4,0.9c0.1,0.4,0.2,0.7,0.2,1.1
		c0,1.6,0,3.3,0,4.9V18h0.1h2.1c0.3,0,0.6-0.1,0.8-0.3c0.3-0.3,0.4-0.7,0.4-1.1c0-2.3,0-4.5,0-6.8V9.6h2.4c0.3,0,0.3,0,0.1-0.2
		C20.1,9.2,20,9.1,19.9,9c-1.9-1.7-3.8-3.5-5.7-5.2c-0.8-0.7-1.6-1.5-2.4-2.2c-0.5-0.5-1.3-0.5-1.8,0C9.8,1.7,9.7,1.9,9.5,2
		C7,4.3,4.4,6.7,1.8,9.1C1.7,9.2,1.6,9.3,1.5,9.4C1.4,9.6,1.4,9.6,1.7,9.6h2.4v0.2c0,2.2,0,4.5,0,6.7c0,0.3,0.1,0.5,0.2,0.8
		C4.4,17.7,4.8,18,5.2,18C6,18,6.7,18,7.5,18z"/>
</g>
</svg>
