<svg xmlns="http://www.w3.org/2000/svg" xmlns:xlink="http://www.w3.org/1999/xlink" viewBox="0 0 120 120"><defs><style>.cls-1{fill:url(#未命名漸層_8);}.cls-2{fill:url(#未命名漸層_8-2);}.cls-3{fill:url(#未命名漸層_8-3);}.cls-4{fill:url(#未命名漸層_8-4);}.cls-5{fill:url(#未命名漸層_8-5);}</style><linearGradient id="未命名漸層_8" x1="6.85" y1="74.44" x2="6.85" y2="45.57" gradientUnits="userSpaceOnUse"><stop offset="0.04" stop-color="#bc9c64"/><stop offset="0.93" stop-color="#f3d197"/></linearGradient><linearGradient id="未命名漸層_8-2" x1="41.78" y1="97.49" x2="41.78" y2="22.51" xlink:href="#未命名漸層_8"/><linearGradient id="未命名漸層_8-3" x1="75.56" y1="74.16" x2="75.56" y2="45.88" xlink:href="#未命名漸層_8"/><linearGradient id="未命名漸層_8-4" x1="111.98" y1="85.11" x2="111.98" y2="34.89" xlink:href="#未命名漸層_8"/><linearGradient id="未命名漸層_8-5" x1="95.96" y1="71.82" x2="95.96" y2="48.03" xlink:href="#未命名漸層_8"/></defs><title>ICON</title><g id="圖層_1" data-name="圖層 1"><rect class="cls-1" y="45.57" width="13.69" height="28.87" rx="1.82"/><path class="cls-2" d="M63.32,24.14V95.86a1.63,1.63,0,0,1-1.63,1.63c-1.61,0-3.22,0-4.82,0A2.08,2.08,0,0,1,56,97Q38.52,86,21,74.92a1.42,1.42,0,0,1-.75-1.38q0-13.52,0-27a1.47,1.47,0,0,1,.82-1.45l35-22.11a2.32,2.32,0,0,1,1.07-.41c1.49,0,3,0,4.52,0A1.63,1.63,0,0,1,63.32,24.14Z"/><path class="cls-3" d="M69.87,74.16V45.88c5.52.19,11.2,7.09,11.37,13.68C81.47,68.22,74.61,73.55,69.87,74.16Z"/><path class="cls-4" d="M104.91,77.76a29.79,29.79,0,0,0,0-35.5,4.56,4.56,0,0,1,.42-5.95l.07-.08a4.55,4.55,0,0,1,6.8.38c9.7,12.36,11.14,32.2,0,46.74a4.54,4.54,0,0,1-6.82.42l-.07-.07A4.56,4.56,0,0,1,104.91,77.76Z"/><path class="cls-5" d="M91.72,49.66l.35-.35a4.43,4.43,0,0,1,7,1,20.64,20.64,0,0,1,.12,19.1,4.41,4.41,0,0,1-7,1.07l-.35-.35A4.41,4.41,0,0,1,91,65.07a11.17,11.17,0,0,0,0-10.15A4.47,4.47,0,0,1,91.72,49.66Z"/></g></svg>