<svg xmlns="http://www.w3.org/2000/svg" xmlns:xlink="http://www.w3.org/1999/xlink" viewBox="0 0 120 120"><defs><style>.cls-1{fill:url(#未命名漸層_8);}</style><linearGradient id="未命名漸層_8" x1="60" y1="119.06" x2="60" y2="3.45" gradientUnits="userSpaceOnUse"><stop offset="0.04" stop-color="#bc9c64"/><stop offset="0.93" stop-color="#f3d197"/></linearGradient></defs><title>ICON</title><g id="圖層_1" data-name="圖層 1"><path class="cls-1" d="M59.6,0C27.87,0,2.29,27.17,2.29,60s25.58,60,57.31,60,58.11-27.17,58.11-60S92.13,0,59.6,0ZM72,92.76c-3.11,1.57-5.43,2.39-7,2.39-1.52.82-3.9.82-6.21.82a13.75,13.75,0,0,1-8.53-2.39c-2.31-1.57-3.11-4-3.11-7.16V83.21c.8-.82.8-1.57.8-3.21l3.9-13.58c0-1.57.79-2.39.79-4V59.18c0-1.57,0-3.21-.79-4-.79,0-1.52-.82-3.9-.82-.8,0-2.32,0-3.11.82-.79,0-1.52.82-2.31.82l.79-4a28.73,28.73,0,0,1,6.94-3.21,18.24,18.24,0,0,1,6.22-.82c3.9,0,6.94.82,8.52,2.39,2.32,1.57,3.11,4,3.11,7.16v3.21c0,1.57,0,3.21-.79,4l-3.9,13.58c0,.82-.8,2.39-.8,4v3.21a6.73,6.73,0,0,0,1.52,4c.8.82,2.32.82,3.91.82a5.62,5.62,0,0,0,3.1-.82,7.23,7.23,0,0,0,2.32-.82Zm-.8-55.15A8.76,8.76,0,0,1,65,40a8.89,8.89,0,0,1-6.22-2.39A7.44,7.44,0,0,1,56.43,32c0-2.39.79-4,2.31-6.41A8.77,8.77,0,0,1,65,23.21a8.87,8.87,0,0,1,6.21,2.39A7.37,7.37,0,0,1,74.28,32,6,6,0,0,1,71.17,37.61Z"/></g></svg>