<svg xmlns="http://www.w3.org/2000/svg" xmlns:xlink="http://www.w3.org/1999/xlink" viewBox="0 0 120 120"><defs><style>.cls-1{fill:url(#未命名漸層_8);}.cls-2{fill:url(#未命名漸層_8-2);}.cls-3{fill:url(#未命名漸層_8-3);}</style><linearGradient id="未命名漸層_8" x1="60" y1="128.42" x2="60" y2="-1.53" gradientUnits="userSpaceOnUse"><stop offset="0.04" stop-color="#101010"/><stop offset="0.93" stop-color="#101010"/></linearGradient><linearGradient id="未命名漸層_8-2" x1="49.63" y1="128.42" x2="49.63" y2="-1.53" xlink:href="#未命名漸層_8"/><linearGradient id="未命名漸層_8-3" x1="73.67" y1="128.42" x2="73.67" y2="-1.53" xlink:href="#未命名漸層_8"/></defs><title>ICON</title><g id="圖層_1" data-name="圖層 1"><path class="cls-1" d="M61,119.27a11.78,11.78,0,0,1-5,.73c-2.13-.73-4.26-1.45-5.68-3.63,0-.73-.71-.73-.71-1.46-10-18.17-19.89-35.61-29.12-53a13.34,13.34,0,0,1-1.42-11.63c2.13-8,5-16,7.1-24C27.61,21.89,29.74,19.71,34,19h2.84A2.56,2.56,0,0,0,39,18.26c3.56-5.09,7.11-9.45,12.08-13.08A24.5,24.5,0,0,1,61.7.09C68.09-.63,72.35,3,73.06,9.54c0,5.09-1.42,9.45-2.84,13.81a11.74,11.74,0,0,0-2.84,5.08c3.55,3.64,5.68,8,7.81,12.36,8.53,14.53,16.34,29.79,24.86,44.33,2.13,3.63,2.13,7.26,0,10.17l-2.13,2.18C85.14,105.47,73.06,112,61,119.27ZM48.92,38.61a.71.71,0,0,0,.71-.73h0C56,32.07,61.7,24.8,64.54,16.08a16.33,16.33,0,0,0,.71-5.81c0-1.46-.71-1.46-2.13-1.46-2.13,0-3.55.73-5.68,2.18-2.84.73-5.68,3.64-8.52,6.54-.71,1.46-2.13,2.18-2.84,3.64,3.55.72,6.39,2.18,9.94,2.9h0A124.06,124.06,0,0,1,46.79,35c-.71.73-.71.73-1.42,0a8.14,8.14,0,0,0-7.11,1.46,8.45,8.45,0,0,0-2.84,8.72,8.73,8.73,0,0,0,7.82,5.08,7.61,7.61,0,0,0,6.39-6.54C50.34,42.24,49.63,40.06,48.92,38.61ZM56,72c-2.13-3.64-6.39-5.09-9.94-2.91-4.26,2.18-5,7.27-3.55,10.9a7.92,7.92,0,0,0,10.65,2.91A8.31,8.31,0,0,0,56,72Zm13.49-1.46c-3.55,2.18-5,6.54-2.84,10.9,2.13,3.64,6.39,5.09,10.66,2.91,3.55-2.18,5-6.54,2.84-10.9A7.75,7.75,0,0,0,69.51,70.58ZM66,59.68c-.71,0-1.42-.72-2.13-.72s-1.42.72-1.42,2.18c-2.13,10.17-3.55,20.34-5.68,31.24v1.46c0,.72.71,1.45,2.13,1.45.71,0,1.42-.73,2.13-1.45,2.13-10.18,3.55-21.08,5.68-31.25A5.6,5.6,0,0,1,66,59.68Z"/><path class="cls-2" d="M48.21,73.49a3.37,3.37,0,0,1,4.26,1.45,3.53,3.53,0,0,1-1.42,4.36,3.37,3.37,0,0,1-4.26-1.45C46.08,75.67,46.79,74.22,48.21,73.49Z"/><path class="cls-3" d="M75.91,75.67A2.77,2.77,0,0,1,75.19,80c-1.42.73-3.55.73-4.26-1.45a3.53,3.53,0,0,1,1.42-4.36C73.06,73.49,75.19,74.22,75.91,75.67Z"/></g></svg>