<svg xmlns="http://www.w3.org/2000/svg" xmlns:xlink="http://www.w3.org/1999/xlink" viewBox="0 0 120 120"><defs><style>.cls-1{fill:url(#未命名漸層_8);}.cls-2{fill:url(#未命名漸層_8-2);}</style><linearGradient id="未命名漸層_8" x1="59.97" y1="120.14" x2="59.97" y2="2.36" gradientUnits="userSpaceOnUse"><stop offset="0.04" stop-color="#bc9c64"/><stop offset="0.93" stop-color="#f3d197"/></linearGradient><linearGradient id="未命名漸層_8-2" x1="60" y1="120.14" x2="60" y2="2.36" xlink:href="#未命名漸層_8"/></defs><title>ICON</title><g id="圖層_1" data-name="圖層 1"><path class="cls-1" d="M90.39,54.69a3.94,3.94,0,0,0-3.5-2.21H71.47V3.73A3.78,3.78,0,0,0,67.65,0H52.29a3.78,3.78,0,0,0-3.82,3.73V52.48H33.05a3.94,3.94,0,0,0-3.5,2.21,3.73,3.73,0,0,0,.58,4.05l27,30A3.9,3.9,0,0,0,60,90a4,4,0,0,0,2.92-1.26l27-30A3.85,3.85,0,0,0,90.39,54.69Z"/><path class="cls-2" d="M102.31,82.48V105H17.63V82.48H2.27v30A7.6,7.6,0,0,0,10,120H110a7.6,7.6,0,0,0,7.71-7.52v-30Z"/></g></svg>