<svg xmlns="http://www.w3.org/2000/svg" xmlns:xlink="http://www.w3.org/1999/xlink" viewBox="0 0 120 120"><defs><style>.cls-1{fill:url(#未命名漸層_8);}.cls-2{fill:url(#未命名漸層_8-2);}</style><linearGradient id="未命名漸層_8" x1="49.66" y1="118.92" x2="49.66" y2="5.25" gradientUnits="userSpaceOnUse"><stop offset="0.04" stop-color="#bc9c64"/><stop offset="0.93" stop-color="#f3d197"/></linearGradient><linearGradient id="未命名漸層_8-2" x1="73.34" y1="118.92" x2="73.34" y2="5.25" xlink:href="#未命名漸層_8"/></defs><title>ICON</title><g id="圖層_1" data-name="圖層 1"><path class="cls-1" d="M79.28,6.74c7.55,1.63,11,6.16,12.49,12.64,2,8.62,4.61,17.15,7,25.71.19.75.35,1.51.57,2.51H95.91q-27-.14-53.91-.18c-10.12,0-18,3.68-22.32,11.86-1.52,2.89-1.83,6.32-2.37,9.56-.35,2-.07,4.06-.1,6.61-3.89-1.61-6.48-3.78-7.62-7s-2-6.7-2.91-10.06C4.6,50.88,2.42,43.33.46,35.71c-1.9-7.42,2.21-13.43,10.62-15.23C32.14,16,53.22,11.61,74.31,7.18a9,9,0,0,0,1.2-.44Zm-12.81,21c1.3,4.75,2.53,9.31,3.83,14l16-3.39c-1.33-4.79-2.6-9.32-3.89-14Z"/><path class="cls-2" d="M38.43,113A44.67,44.67,0,0,1,32,110.24a10.69,10.69,0,0,1-5.31-9.37c0-11-.06-22.06.12-33.07.13-6.92,6.14-12,14-11.95q32.45,0,64.88.25c7,0,12,3.62,13.79,9.59a4.54,4.54,0,0,0,.47.82q0,18.22-.16,36.4c-1.64,5.51-5.63,8.94-11.89,10.35Q73.24,113.13,38.43,113ZM34.07,84.32C34,89.38,34,94.2,34,99c0,5.66,2.06,7.49,8.51,7.52q27.32.09,54.66.22c3,0,5.91.09,8.89,0,3.7-.13,6.13-2.3,6.35-5.54.13-2,.07-3.93.07-5.91,0-3.53,0-7,0-10.64C86.23,84.51,60.34,84.41,34.07,84.32Zm78.28-12c1.11-6.67-.85-10.16-9.61-10-14.55.22-29.09,0-43.63-.1-6,0-12-.09-18.06,0-3.54,0-6.26,1.76-6.7,4.41a35.05,35.05,0,0,0-.06,5.44C60.4,72.18,86.3,72.27,112.35,72.36Z"/></g></svg>