<?xml version="1.0" encoding="utf-8"?>
<!-- Generator: Adobe Illustrator 25.3.1, SVG Export Plug-In . SVG Version: 6.00 Build 0)  -->
<svg version="1.1" id="圖層_1" xmlns="http://www.w3.org/2000/svg" xmlns:xlink="http://www.w3.org/1999/xlink" x="0px" y="0px"
	 viewBox="0 0 19 20.9" style="enable-background:new 0 0 19 20.9;" xml:space="preserve">
<style type="text/css">
	.st0{fill:#BC1111;}
</style>
<g id="home">
	<path class="st0" d="M0.7,20.9c-0.2,0-0.4-0.1-0.5-0.2C0.1,20.6,0,20.4,0,20.2c0-1.8,0.5-3.5,1.4-5.1c0.8-1.4,1.8-2.6,3.1-3.5
		c0.8-0.5,1.7-1,2.6-1.2l0.4-0.1l-0.4-0.2C5.8,9.4,4.9,8.3,4.4,6.9c-0.4-1.1-0.4-2.3,0-3.3C5.2,1.4,7.2,0,9.5,0h0.1
		c2.3,0.1,4.3,1.6,5,3.8c0.7,2.5-0.4,5.1-2.7,6.3l-0.4,0.2l0.6,0.2l0.5,0.2c1.3,0.5,2.4,1.2,3.3,2.2c1.4,1.4,2.3,3.1,2.8,5
		c0.2,0.8,0.3,1.5,0.3,2.3c0,0.4-0.2,0.7-0.6,0.7c0,0-0.1,0-0.1,0H0.7z M13.5,16.3c0.2,0,0.4,0.2,0.4,0.4l0.5,2.9h3.3
		c0,0,0-0.4,0-0.5c-0.2-1.6-0.8-3.1-1.8-4.4c-0.6-0.8-1.3-1.5-2.1-2c-0.3-0.2-0.7-0.4-1.1-0.6c-0.7-0.4-1.5-0.6-2.4-0.7l-0.5-0.1
		l0.8,0.8L9.7,13l1.2,4l-1.4,2.1L8.1,17l1.2-4l-0.8-0.8l0.8-0.8l-0.6,0.1c-2,0.3-3.9,1.3-5.1,2.9c-1,1.2-1.7,2.7-2,4.3
		c0,0.1,0,0.3-0.1,0.5l-0.1,0.4h3.3L5,17.5c0-0.3,0.1-0.6,0.2-0.9c0-0.2,0.2-0.3,0.4-0.3h0.1c0.2,0,0.3,0.2,0.3,0.4c0,0,0,0,0,0
		l-0.5,2.8h8.2l-0.4-2.1c0-0.2-0.1-0.5-0.1-0.7C13.1,16.6,13.2,16.4,13.5,16.3C13.4,16.3,13.4,16.3,13.5,16.3L13.5,16.3z M9.5,1.3
		c-2.2,0-4,1.8-4,4c0,1.1,0.4,2.1,1.2,2.9c0.7,0.8,1.8,1.2,2.8,1.2c2.2,0,4-1.8,4-4S11.7,1.3,9.5,1.3L9.5,1.3z"/>
</g>
</svg>
