<svg xmlns="http://www.w3.org/2000/svg" xmlns:xlink="http://www.w3.org/1999/xlink" viewBox="0 0 120 120"><defs><style>.cls-1{fill:url(#未命名漸層_8);}.cls-2{fill:url(#未命名漸層_8-2);}.cls-3,.cls-4{fill-rule:evenodd;opacity:0.35;}.cls-3{fill:url(#未命名漸層_19);}.cls-4{fill:url(#未命名漸層_19-2);}</style><linearGradient id="未命名漸層_8" x1="60" y1="111.98" x2="60" y2="2.97" gradientUnits="userSpaceOnUse"><stop offset="0.04" stop-color="#bc9c64"/><stop offset="0.93" stop-color="#f3d197"/></linearGradient><linearGradient id="未命名漸層_8-2" x1="90.03" y1="111.98" x2="90.03" y2="2.97" xlink:href="#未命名漸層_8"/><linearGradient id="未命名漸層_19" x1="72.16" y1="101.06" x2="57.51" y2="56.06" gradientUnits="userSpaceOnUse"><stop offset="0.04" stop-color="#fffdf0"/><stop offset="1" stop-color="#fffdf0" stop-opacity="0"/></linearGradient><linearGradient id="未命名漸層_19-2" x1="54.05" y1="46.02" x2="43.23" y2="20.55" xlink:href="#未命名漸層_19"/></defs><title>ICON</title><g id="圖層_1" data-name="圖層 1"><path class="cls-1" d="M102.69,11H17.31A17.25,17.25,0,0,0,0,28.07V91.93A17.25,17.25,0,0,0,17.31,109h85.38A17.25,17.25,0,0,0,120,91.93V28.07A17.22,17.22,0,0,0,102.69,11Zm-15,59.31a10.28,10.28,0,1,1,0-20.56h26.87V70.24H87.69Z"/><path class="cls-2" d="M92.33,56.59h-4.6a3.41,3.41,0,1,0,0,6.82h4.6a3.41,3.41,0,1,0,0-6.82Z"/><path class="cls-3" d="M100.91,11H18.72L0,42.05V91.93A17.24,17.24,0,0,0,17.3,109H29.64c8.13-10.92,25.29-14.11,25.29-14.11,31.6-1.84,52-6.8,65.07-12.43V32.81Zm13.65,59.27H87.69v0a10.28,10.28,0,1,1,0-20.55h26.87Z"/><path class="cls-4" d="M95.22,12.52S95,42.28,6.37,47.44A50.06,50.06,0,0,0,0,49.2V28.07A17.25,17.25,0,0,1,17.31,11H93.86Z"/></g></svg>