<svg xmlns="http://www.w3.org/2000/svg" xmlns:xlink="http://www.w3.org/1999/xlink" viewBox="0 0 120 120"><defs><style>.cls-1{fill:url(#未命名漸層_8);}.cls-2{fill:url(#未命名漸層_8-2);}</style><linearGradient id="未命名漸層_8" x1="40.44" y1="121.15" x2="40.44" y2="0.03" gradientUnits="userSpaceOnUse"><stop offset="0.04" stop-color="#bc9c64"/><stop offset="0.93" stop-color="#f3d197"/></linearGradient><linearGradient id="未命名漸層_8-2" x1="91.8" y1="121.15" x2="91.8" y2="0.03" xlink:href="#未命名漸層_8"/></defs><title>ICON</title><g id="圖層_1" data-name="圖層 1"><path class="cls-1" d="M74.67,65a4.92,4.92,0,0,0-4.87,5V90a4.91,4.91,0,0,1-4.86,5H50.27V20a10,10,0,0,0-6.63-9.48L42.11,10H64.88a4.91,4.91,0,0,1,4.87,5V30a4.87,4.87,0,1,0,9.73,0V15A14.84,14.84,0,0,0,64.82,0H12.31a1.76,1.76,0,0,0-.53.12,2.85,2.85,0,0,0-.7-.12A9.88,9.88,0,0,0,1.34,10v90A10,10,0,0,0,8,109.5l29.39,10a11.18,11.18,0,0,0,3,.48,9.93,9.93,0,0,0,9.8-10v-5H64.88A14.84,14.84,0,0,0,79.54,90V70A5,5,0,0,0,74.67,65Z"/><path class="cls-2" d="M117.21,46.44l-19.54-20a4.81,4.81,0,0,0-5.34-1.08,5,5,0,0,0-3,4.62V45H69.8a5,5,0,0,0,0,10H89.34V70a5,5,0,0,0,3,4.62,4.81,4.81,0,0,0,5.34-1.08l19.54-20A5.05,5.05,0,0,0,117.21,46.44Z"/></g></svg>