<svg xmlns="http://www.w3.org/2000/svg" xmlns:xlink="http://www.w3.org/1999/xlink" viewBox="0 0 120 120"><defs><style>.cls-1{fill:url(#未命名漸層_8);}.cls-2{fill:url(#未命名漸層_8-2);}</style><linearGradient id="未命名漸層_8" x1="60" y1="118.51" x2="60" y2="-0.2" gradientUnits="userSpaceOnUse"><stop offset="0.04" stop-color="#101010"/><stop offset="0.93" stop-color="#101010"/></linearGradient><linearGradient id="未命名漸層_8-2" x1="27.81" y1="118.51" x2="27.81" y2="-0.2" xlink:href="#未命名漸層_8"/></defs><title>ICON</title><g id="圖層_1" data-name="圖層 1"><path class="cls-1" d="M114.51,64.25c-3.25-8.87-6.37-17.67-9.93-26.48L93.37,7.71A10.81,10.81,0,0,0,85.79.4a11.06,11.06,0,0,0-13.6,8,11.63,11.63,0,0,0-.28,4.55,2.16,2.16,0,0,1-.38,1.24A79.22,79.22,0,0,1,57.84,29.69,80.68,80.68,0,0,1,33.77,43.84c-7.39,3-14.78,5.93-22.1,9A11.37,11.37,0,0,0,5.19,67.35c0,.1.08.2.11.3C7,72.6,8.87,77.56,10.84,82.45a10.76,10.76,0,0,0,13.88,6.62L25,89c1.08-.39,2.17-.91,3.38-1.43l3.82,10.11c2,5.22,3.75,10.5,5.92,15.59a10.8,10.8,0,0,0,14.29,5.86,11.21,11.21,0,0,0,2.46-1.49,11.59,11.59,0,0,0,3.62-13c-1.27-3.65-2.8-7.24-4.26-11.09l3.12-1.11A11.68,11.68,0,0,0,64,77.43c-.08-.24-.18-.48-.28-.72a6.36,6.36,0,0,0-.7-1.89,72.14,72.14,0,0,1,31.26.33,2.86,2.86,0,0,1,1.21,1,10.85,10.85,0,0,0,12.74,3.72,11.68,11.68,0,0,0,6.54-15A6.44,6.44,0,0,0,114.51,64.25Zm-91.63,17a3.71,3.71,0,0,1-5.15-1.36,4,4,0,0,1-.45-1.25c-1.66-4.31-3.25-8.68-4.91-13a4,4,0,0,1,1.43-5.33,4.06,4.06,0,0,1,1-.41l22.35-9.13h1l8,21.33L45,72.6Zm27.83,29.48a3.56,3.56,0,0,1-6.05-1.18C41.54,101.3,38.29,93,35.17,84.41L36.63,84l5.29-2.15a2.07,2.07,0,0,1,.38.72c3.06,8,6.05,16,9,24.06A3.94,3.94,0,0,1,50.71,110.76Zm1-24.79c-.82-2.35-1.71-4.63-2.67-7.11l6.37-2.41C58.28,81.8,58.22,84,51.72,86Zm1.72-16.82C50.71,61.84,48,54.6,45.23,47.23A84.71,84.71,0,0,0,74.78,22.64L91.21,66.41A80.87,80.87,0,0,0,53.44,69.15Z"/><path class="cls-2" d="M31.44,63.51a3.19,3.19,0,0,1,1.65,2.65,2.74,2.74,0,0,1-1.56,2.66c-1.79.82-3.58,1.54-5.42,2.22a2.67,2.67,0,0,1-3.34-1.64A2.83,2.83,0,0,1,24,65.78c1.84-.82,3.68-1.55,5.56-2.22A5.72,5.72,0,0,1,31.44,63.51Z"/></g></svg>