<svg xmlns="http://www.w3.org/2000/svg" xmlns:xlink="http://www.w3.org/1999/xlink" viewBox="0 0 120 120"><defs><style>.cls-1{fill:url(#未命名漸層_8);}.cls-2{fill:url(#未命名漸層_8-2);}</style><linearGradient id="未命名漸層_8" x1="48.45" y1="120" x2="48.45" gradientUnits="userSpaceOnUse"><stop offset="0.04" stop-color="#bc9c64"/><stop offset="0.93" stop-color="#101010"/></linearGradient><linearGradient id="未命名漸層_8-2" x1="79.49" y1="86.82" x2="79.49" y2="33.18" xlink:href="#未命名漸層_8"/></defs><title>ICON</title><g id="圖層_1" data-name="圖層 1"><path class="cls-1" d="M79.13,92.82c-1.44,0-2.89-.35-4-.35v3.18H21.74V24.71H75.16v3.17a16.67,16.67,0,0,1,4-.35c1.44,0,2.89.35,4.33.35V14.12C83.46,5.29,78.05,0,69.38,0H27.15c-9,0-14.07,5.29-14.07,14.12v92.47c0,8.12,5.41,13.41,13.71,13.41h43c8.3,0,14.07-5.29,14.07-13.76V92.12A25.53,25.53,0,0,1,79.13,92.82ZM39.79,10.59H57.11c1.09,0,2.17.35,2.17,1.41,0,1.41-1.08,1.76-2.17,1.76H39.79c-1.09,0-2.17-.35-2.17-1.76C37.62,10.94,38.7,10.59,39.79,10.59Zm8.3,101.29a3.88,3.88,0,1,1,4-3.88C52.42,110.12,50.62,111.88,48.09,111.88Z"/><path class="cls-2" d="M79.49,33.18c-15.16,0-27.43,12-27.43,26.82a24.83,24.83,0,0,0,5,15.18l-2.89,7.41,8.31-1.77a28.16,28.16,0,0,0,17,6c15.16,0,27.43-12,27.43-26.82S94.65,33.18,79.49,33.18ZM65.05,63.53A3.53,3.53,0,1,1,68.66,60,3.84,3.84,0,0,1,65.05,63.53Zm15.16,0A3.53,3.53,0,1,1,83.82,60C83.46,61.76,82,63.53,80.21,63.53Zm14.8,0a3.53,3.53,0,1,1,0-7.06A3.37,3.37,0,0,1,98.62,60C98.26,61.76,96.82,63.53,95,63.53Z"/></g></svg>