<svg xmlns="http://www.w3.org/2000/svg" xmlns:xlink="http://www.w3.org/1999/xlink" viewBox="0 0 120 120"><defs><style>.cls-1{fill:url(#未命名漸層_8);}.cls-2{fill:url(#未命名漸層_8-2);}.cls-3{fill:url(#未命名漸層_8-3);}.cls-4{fill:url(#未命名漸層_8-4);}</style><linearGradient id="未命名漸層_8" x1="18.61" y1="109.57" x2="18.61" y2="13.92" gradientUnits="userSpaceOnUse"><stop offset="0.04" stop-color="#bc9c64"/><stop offset="0.93" stop-color="#f3d197"/></linearGradient><linearGradient id="未命名漸層_8-2" x1="60.06" y1="109.57" x2="60.06" y2="13.92" xlink:href="#未命名漸層_8"/><linearGradient id="未命名漸層_8-3" x1="60.12" y1="109.57" x2="60.12" y2="13.92" xlink:href="#未命名漸層_8"/><linearGradient id="未命名漸層_8-4" x1="101.39" y1="109.57" x2="101.39" y2="13.92" xlink:href="#未命名漸層_8"/></defs><title>ICON</title><g id="圖層_1" data-name="圖層 1"><path class="cls-1" d="M0,27l1-3L37.22,59.9.94,95.84,0,93.05Z"/><path class="cls-2" d="M6.07,18.66c1.42-.31,2.62-.59,3.83-.81a6.8,6.8,0,0,1,1.28,0q48.81,0,97.6,0a37.3,37.3,0,0,1,4.9.62l.37.76a4,4,0,0,0-1.15.58Q88.14,44.58,63.42,69.4c-2.3,2.31-4.52,2.32-6.8,0L7.08,19.73C6.81,19.46,6.55,19.17,6.07,18.66Z"/><path class="cls-3" d="M6.26,101.18,42.5,65.31c3,3,6.25,6.25,9.5,9.45A11,11,0,0,0,64.82,77a14,14,0,0,0,3.36-2.48c2.92-2.82,5.75-5.74,8.62-8.61.3-.3.61-.58.76-.73,12.09,12,24.12,23.89,36.42,36.09-1.44.32-2.62.61-3.8.84a8.53,8.53,0,0,1-1.52,0H11.32A10.68,10.68,0,0,1,6.26,101.18Z"/><path class="cls-4" d="M119.16,96.14,82.78,60.08l36.4-36a20.63,20.63,0,0,1,.78,4.11Q120,60,120,91.87A23.16,23.16,0,0,1,119.16,96.14Z"/></g></svg>