<svg xmlns="http://www.w3.org/2000/svg" xmlns:xlink="http://www.w3.org/1999/xlink" viewBox="0 0 120 120"><defs><style>.cls-1{fill:url(#未命名漸層_8);}.cls-2,.cls-3{fill-rule:evenodd;opacity:0.35;}.cls-2{fill:url(#未命名漸層_19);}.cls-3{fill:url(#未命名漸層_19-2);}</style><linearGradient id="未命名漸層_8" x1="60" y1="120" x2="60" gradientUnits="userSpaceOnUse"><stop offset="0.04" stop-color="#101010"/><stop offset="0.93" stop-color="#101010"/></linearGradient><linearGradient id="未命名漸層_19" x1="60.18" y1="49.91" x2="32.69" y2="6.14" gradientUnits="userSpaceOnUse"><stop offset="0.04" stop-color="#101010"/><stop offset="1" stop-color="#101010" stop-opacity="0"/></linearGradient><linearGradient id="未命名漸層_19-2" x1="65.99" y1="98.17" x2="57.89" y2="46.56" xlink:href="#未命名漸層_19"/></defs><title>ICON</title><g id="圖層_1" data-name="圖層 1"><path class="cls-1" d="M60,0a60,60,0,1,0,60,60A60,60,0,0,0,60,0ZM97.65,84H22.35V51.52l17.7,4.73L60,36,80,56.25l17.7-4.73Z"/><path class="cls-2" d="M104.79,20.34C99,26.57,87.26,34.24,63.14,39.45L59.77,36l-5,5a295.73,295.73,0,0,1-33.37,3.66S8.72,47.09,0,54.7A60,60,0,0,1,104.79,20.34Z"/><path class="cls-3" d="M60,0A60,60,0,0,0,27.17,110.23c6.53-14,27.55-17.87,27.55-17.87,28.74-1.67,48.19-5.93,61.34-10.93A60,60,0,0,0,60,0ZM97.65,84H22.35V51.53l17.7,4.72L60,36,80,56.25l17.7-4.72Z"/></g></svg>