<svg xmlns="http://www.w3.org/2000/svg" xmlns:xlink="http://www.w3.org/1999/xlink" viewBox="0 0 120 120"><defs><style>.cls-1{fill:url(#未命名漸層_8);}.cls-2{fill:url(#未命名漸層_8-2);}.cls-3{fill:url(#未命名漸層_8-3);}.cls-4{fill:url(#未命名漸層_8-4);}.cls-5{fill:url(#未命名漸層_8-6);}.cls-6{fill:url(#未命名漸層_8-7);}.cls-7{fill:url(#未命名漸層_8-8);}.cls-8{fill:url(#未命名漸層_8-10);}</style><linearGradient id="未命名漸層_8" x1="86.77" y1="125.03" x2="86.77" y2="1.13" gradientUnits="userSpaceOnUse"><stop offset="0.04" stop-color="#bc9c64"/><stop offset="0.93" stop-color="#f3d197"/></linearGradient><linearGradient id="未命名漸層_8-2" x1="60.31" y1="125.03" x2="60.31" y2="1.13" xlink:href="#未命名漸層_8"/><linearGradient id="未命名漸層_8-3" x1="60.31" y1="125.03" x2="60.31" y2="1.13" xlink:href="#未命名漸層_8"/><linearGradient id="未命名漸層_8-4" x1="101.85" y1="125.03" x2="101.85" y2="1.13" xlink:href="#未命名漸層_8"/><linearGradient id="未命名漸層_8-6" x1="60" y1="125.03" x2="60" y2="1.13" xlink:href="#未命名漸層_8"/><linearGradient id="未命名漸層_8-7" x1="18.15" y1="125.03" x2="18.15" y2="1.13" xlink:href="#未命名漸層_8"/><linearGradient id="未命名漸層_8-8" x1="33.85" y1="125.03" x2="33.85" y2="1.13" xlink:href="#未命名漸層_8"/><linearGradient id="未命名漸層_8-10" x1="86.15" y1="125.03" x2="86.15" y2="1.13" xlink:href="#未命名漸層_8"/></defs><title>ICON</title><g id="圖層_1" data-name="圖層 1"><path class="cls-1" d="M65.85.61a129.23,129.23,0,0,1,16,31.84,79.43,79.43,0,0,0,24-8l1.84-1.22A58.82,58.82,0,0,0,65.85.61Z"/><path class="cls-2" d="M75.08,42.24a117.79,117.79,0,0,1-14.77.62,117.63,117.63,0,0,1-14.77-.62,32.78,32.78,0,0,0-2.46,13.47H77.54A88.36,88.36,0,0,0,75.08,42.24Z"/><path class="cls-3" d="M60.31,85.71a90.31,90.31,0,0,0-12.93.62,116.17,116.17,0,0,0,12.93,26.32A104.87,104.87,0,0,0,73.23,86.33,99.11,99.11,0,0,0,60.31,85.71Z"/><path class="cls-4" d="M85.54,64.29c0,4.89-1.23,9.79-1.85,15.3,9.23,1.23,17.85,4.9,25.85,9.19L112,90a54.92,54.92,0,0,0,8-25.71Z"/><path class="cls-4" d="M112,30l-2.46,1.22a65.56,65.56,0,0,1-25.85,9.19A60.1,60.1,0,0,1,85.54,55.1H120A54.8,54.8,0,0,0,112,30Z"/><path class="cls-5" d="M43.08,64.29c0,4.89,1.23,9.18,1.84,13.47a123.72,123.72,0,0,1,30.16,0,50.83,50.83,0,0,0,1.84-13.47Z"/><path class="cls-6" d="M10.46,31.22,8,30A54.92,54.92,0,0,0,0,55.71H34.46c0-4.89,1.23-9.79,1.85-14.69A77.88,77.88,0,0,1,10.46,31.22Z"/><path class="cls-7" d="M38.77,87.55a79.25,79.25,0,0,0-24,8l-1.85,1.84A62.2,62.2,0,0,0,54.77,120,113.81,113.81,0,0,1,38.77,87.55Z"/><path class="cls-3" d="M60.31,7.35A116.17,116.17,0,0,0,47.38,33.67a90.31,90.31,0,0,0,12.93.62,90.17,90.17,0,0,0,12.92-.62A209,209,0,0,0,60.31,7.35Z"/><path class="cls-8" d="M105.23,96.12a65.48,65.48,0,0,0-24-8,119,119,0,0,1-16,31.84c16.62-1.22,31.39-9.8,41.85-22.65Z"/><path class="cls-7" d="M12.92,22.65l1.85,1.23a65.48,65.48,0,0,0,24,8A119,119,0,0,1,54.77,0C38.15,1.84,22.77,9.8,12.92,22.65Z"/><path class="cls-6" d="M34.46,64.29H0A54.92,54.92,0,0,0,8,90l2.46-1.22a65.56,65.56,0,0,1,25.85-9.19A69.16,69.16,0,0,1,34.46,64.29Z"/></g></svg>