<svg xmlns="http://www.w3.org/2000/svg" xmlns:xlink="http://www.w3.org/1999/xlink" viewBox="0 0 120 120"><defs><style>.cls-1{fill:url(#未命名漸層_8);}.cls-2{fill:url(#未命名漸層_8-2);}</style><linearGradient id="未命名漸層_8" x1="61.64" y1="131.05" x2="61.64" y2="-2.83" gradientUnits="userSpaceOnUse"><stop offset="0.04" stop-color="#bc9c64"/><stop offset="0.93" stop-color="#f3d197"/></linearGradient><linearGradient id="未命名漸層_8-2" x1="93.64" y1="131.05" x2="93.64" y2="-2.83" xlink:href="#未命名漸層_8"/></defs><title>ICON</title><g id="圖層_1" data-name="圖層 1"><path class="cls-1" d="M98.85,0h-74A13.15,13.15,0,0,0,11.36,13.2v93.6A13.15,13.15,0,0,0,24.82,120H98.43a13.16,13.16,0,0,0,13.47-13.2V13.2C112.32,5.77,106,0,98.85,0ZM29.44,22.68H94.23a3.71,3.71,0,1,1,0,7.42H29.44a3.71,3.71,0,1,1,0-7.42Zm0,32.58H94.23a3.71,3.71,0,1,1,0,7.42H29.44a3.71,3.71,0,1,1,0-7.42Zm28.61,40H29.44a3.71,3.71,0,1,1,0-7.42H58.05a3.71,3.71,0,1,1,0,7.42Zm47.11,2.47c-.84,3.71-2.1,7-4.62,9.49a18.86,18.86,0,0,1-22.3,3.71,17.65,17.65,0,0,1,9.68-33,18.63,18.63,0,0,1,17.24,14.43c0,.41.43.83.43,1.24A13.45,13.45,0,0,0,105.16,97.73Z"/><path class="cls-2" d="M97.59,96.91H87.08V85.36a2.2,2.2,0,0,1,2.52-2.47,3.12,3.12,0,0,1,2.94,2.47v6.19h4.63a2.85,2.85,0,0,1,3,2.88C100.54,96.08,99.28,96.91,97.59,96.91Z"/></g></svg>