<svg xmlns="http://www.w3.org/2000/svg" xmlns:xlink="http://www.w3.org/1999/xlink" viewBox="0 0 120 120"><defs><style>.cls-1{fill:url(#未命名漸層_8);}.cls-2{fill:url(#未命名漸層_8-2);}</style><linearGradient id="未命名漸層_8" x1="60.04" y1="122.63" x2="60.04" y2="2.02" gradientUnits="userSpaceOnUse"><stop offset="0.04" stop-color="#bc9c64"/><stop offset="0.93" stop-color="#f3d197"/></linearGradient><linearGradient id="未命名漸層_8-2" x1="60" y1="122.63" x2="60" y2="2.02" xlink:href="#未命名漸層_8"/></defs><title>ICON</title><g id="圖層_1" data-name="圖層 1"><path class="cls-1" d="M81.79,0a3,3,0,0,1,1.68,3c-.07,2.73,0,5.47,0,8.2,0,1.95-.84,2.82-2.75,2.82H39.37c-1.84,0-2.72-.88-2.74-2.74,0-2.85,0-5.7,0-8.55A3.1,3.1,0,0,1,38.2,0Z"/><path class="cls-2" d="M90.47,6.91a55.85,55.85,0,0,1,7.09.45A10.34,10.34,0,0,1,105.68,17c0,.31,0,.63,0,.94q0,45.41-.08,90.8c0,4.79-2,8.37-6.46,10.33a10.58,10.58,0,0,1-4.08.86q-35.14.08-70.29,0a10.42,10.42,0,0,1-10.47-10.54q0-45.75.09-91.5C14.41,11.46,19,7.05,25.46,7H29.6c0,1.5,0,2.93,0,4.36.06,4.56,2.63,8.12,6.79,9.3a11.17,11.17,0,0,0,2.88.39q20.8,0,41.59,0a9.33,9.33,0,0,0,9.6-9.52C90.49,10.12,90.47,8.68,90.47,6.91ZM73.68,96.09H85.86c2.28,0,3.87-1.44,3.89-3.48s-1.59-3.55-4-3.55q-12.12,0-24.23,0a3.58,3.58,0,0,0-3.9,3.48c0,2.07,1.6,3.54,3.95,3.55Zm0-46.87h12c2.38,0,4-1.41,4-3.49S88,42.19,85.68,42.19h-24c-2.37,0-4,1.42-4,3.49s1.61,3.53,4,3.53Zm-.08,16.4h-12c-2.37,0-4,1.42-4,3.49s1.61,3.54,4,3.54h24c2.38,0,4-1.41,4-3.49S88,65.63,85.69,65.62ZM38.05,69.53c-.71-.76-1.27-1.47-1.93-2.07a3.51,3.51,0,0,0-4.87.11,3.42,3.42,0,0,0-.11,4.77q2.27,2.44,4.72,4.71a3.26,3.26,0,0,0,4.57,0Q46,71.66,51.35,66.13a3.17,3.17,0,0,0,.61-3.6,3.33,3.33,0,0,0-3-2.17,3.65,3.65,0,0,0-3,1.24C43.41,64.2,40.81,66.78,38.05,69.53Zm0,23.45c-.68-.74-1.23-1.41-1.85-2a3.51,3.51,0,0,0-4.95,0,3.46,3.46,0,0,0,0,5c1.42,1.5,2.88,3,4.38,4.39a3.43,3.43,0,0,0,5-.06c3.53-3.48,7-7,10.51-10.51A3.51,3.51,0,0,0,49.83,84a3.43,3.43,0,0,0-3.66.91ZM38,44.34c-.61-.7-1.12-1.4-1.73-2a3.5,3.5,0,1,0-4.91,5c1.37,1.44,2.78,2.84,4.21,4.22a3.45,3.45,0,0,0,5.2,0q5.2-5.14,10.34-10.35a3.48,3.48,0,0,0,.09-5.11,3.57,3.57,0,0,0-5.13.23c-2.35,2.34-4.68,4.69-7,7C38.74,43.63,38.45,43.89,38,44.34Z"/></g></svg>