<?xml version="1.0" encoding="utf-8"?>
<!-- Generator: Adobe Illustrator 25.3.1, SVG Export Plug-In . SVG Version: 6.00 Build 0)  -->
<svg version="1.1" id="圖層_1" xmlns="http://www.w3.org/2000/svg" xmlns:xlink="http://www.w3.org/1999/xlink" x="0px" y="0px"
	 viewBox="0 0 41.9 41.9" style="enable-background:new 0 0 41.9 41.9;" xml:space="preserve">
<style type="text/css">
	.st0{fill:url(#SVGID_1_);}
	.st1{fill:url(#SVGID_2_);}
</style>
<g>
	<g>
		<linearGradient id="SVGID_1_" gradientUnits="userSpaceOnUse" x1="13.2691" y1="-9.3199" x2="13.9939" y2="43.8343">
			<stop  offset="0" style="stop-color:#EF0C29"/>
			<stop  offset="0.5185" style="stop-color:#E73832"/>
			<stop  offset="1" style="stop-color:#950000"/>
		</linearGradient>
		<path class="st0" d="M13.5,21.1c5.8,0,10.5-4.7,10.5-10.5C24.1,4.7,19.4,0,13.5,0S3,4.7,3,10.5S7.7,21.1,13.5,21.1z M9.9,14.7
			c0.1-0.4,0.2-0.7,0.3-1c0.1-0.4,0.2-0.4,0.6-0.2c0.6,0.3,1.3,0.5,2,0.6c0.4,0.1,0.9,0,1.3-0.2c0.8-0.3,0.9-1.2,0.2-1.8
			c-0.2-0.2-0.5-0.3-0.7-0.4c-0.7-0.3-1.4-0.5-2-0.9c-1-0.6-1.7-1.5-1.6-2.8c0.1-1.4,0.9-2.3,2.2-2.8C12.7,5,12.7,5,12.7,4.4
			c0-0.2,0-0.4,0-0.6c0-0.4,0.1-0.5,0.5-0.5c0.1,0,0.3,0,0.4,0c0.9,0,0.9,0,0.9,0.9c0,0.6,0,0.7,0.6,0.7c0.5,0.1,0.9,0.2,1.4,0.4
			c0.2,0.1,0.3,0.3,0.3,0.6c-0.1,0.4-0.2,0.8-0.4,1.2c-0.1,0.4-0.2,0.4-0.6,0.2c-0.7-0.3-1.4-0.5-2.2-0.4c-0.2,0-0.4,0-0.6,0.1
			c-0.7,0.3-0.8,1-0.2,1.5c0.3,0.2,0.6,0.4,1,0.5c0.6,0.2,1.2,0.5,1.8,0.8c1.8,1,2.3,3.3,1,4.8c-0.5,0.6-1.1,0.9-1.8,1.1
			c-0.3,0.1-0.4,0.2-0.4,0.6c0,0.3,0,0.6,0,0.9c0,0.3-0.1,0.4-0.4,0.4c-0.3,0-0.7,0-1,0c-0.3,0-0.4-0.2-0.4-0.5c0-0.2,0-0.5,0-0.7
			c0-0.5,0-0.5-0.5-0.6c-0.6-0.1-1.2-0.2-1.8-0.5C9.8,15.3,9.7,15.2,9.9,14.7z"/>
		<linearGradient id="SVGID_2_" gradientUnits="userSpaceOnUse" x1="21.3136" y1="-9.4296" x2="22.0384" y2="43.7246">
			<stop  offset="0" style="stop-color:#EF0C29"/>
			<stop  offset="0.5185" style="stop-color:#E73832"/>
			<stop  offset="1" style="stop-color:#950000"/>
		</linearGradient>
		<path class="st1" d="M37.2,22h-1.2l0,0c-0.8-2.5-2.4-4.7-4.5-6.4c0-0.1,0-0.2,0-0.2c-0.4-1.6,0.1-3,0.7-4c0.4-0.7-0.1-1.6-1-1.5
			c-1.9,0.2-3.2,0.9-4.1,1.7c-0.6,0.5-1,1.2-1.2,2c-1.3,5.6-6.4,9.7-12.3,9.7c-2.9,0-5.6-1-7.7-2.6c-0.7,1.6-1.1,3.4-1.1,5.2
			c0,1,0.1,2,0.3,2.9l0,0c0,0,0,0,0,0c0.2,1,0.6,1.9,1.1,2.8c0.6,1.3,1.5,2.8,2.7,4c1.7,1.8,2,4,2.1,5V41c0,0,0,0,0,0c0,0,0,0,0,0
			l0,0c0,0.5,0.4,0.8,0.9,0.8h5.5c0.5,0,0.9-0.4,0.9-0.9v-1.4c0.8,0.1,1.6,0.2,2.5,0.2c0.6,0,1.3,0,1.9-0.1V41
			c0,0.5,0.4,0.9,0.9,0.9H29c0.5,0,0.9-0.4,0.9-0.9v-1.4c0-0.5,0.2-2.3,1.9-3.8c0.1,0,0.1-0.1,0.2-0.2c0,0,0,0,0,0l0,0
			c1.9-1.7,3.3-3.8,4-6.2h1.2c0.9,0,1.7-0.8,1.7-1.7v-4.1C38.8,22.7,38.1,22,37.2,22z M30.3,22.3c-0.8,0-1.4-0.6-1.4-1.4
			s0.6-1.4,1.4-1.4s1.4,0.6,1.4,1.4C31.6,21.6,31,22.3,30.3,22.3z"/>
	</g>
</g>
</svg>
