<?xml version="1.0" encoding="utf-8"?>
<!-- Generator: Adobe Illustrator 25.3.1, SVG Export Plug-In . SVG Version: 6.00 Build 0)  -->
<svg version="1.1" id="圖層_1" xmlns="http://www.w3.org/2000/svg" xmlns:xlink="http://www.w3.org/1999/xlink" x="0px" y="0px"
	 viewBox="0 0 41.9 41.9" style="enable-background:new 0 0 41.9 41.9;" xml:space="preserve">
<style type="text/css">
	.st0{fill:url(#SVGID_1_);}
	.st1{fill:url(#SVGID_2_);}
</style>
<g>
	<linearGradient id="SVGID_1_" gradientUnits="userSpaceOnUse" x1="24.02" y1="-5.6166" x2="24.02" y2="47.7815">
		<stop  offset="0" style="stop-color:#EF0C29"/>
		<stop  offset="0.5185" style="stop-color:#E73832"/>
		<stop  offset="1" style="stop-color:#950000"/>
	</linearGradient>
	<path class="st0" d="M24,1.2c-6.1,0-11,4.9-11,11s4.9,11,11,11s11-5,11-11C35,6.1,30.1,1.2,24,1.2z M25.2,17.2v0.2
		c0,0.6-0.5,1.2-1.2,1.2s-1.2-0.5-1.2-1.2v-0.1c-0.5-0.1-1-0.3-1.6-0.7c-0.5-0.4-0.7-1.1-0.3-1.6s1.1-0.7,1.6-0.3
		c0.6,0.4,0.8,0.4,1.5,0.4c0.7,0,1-0.6,1.1-0.9c0-0.3,0-0.7-0.6-0.9c-0.9-0.3-1.9-0.7-2.6-1.3c-1.6-1.2-1.1-4.1,1-4.8V7
		c0-0.6,0.5-1.2,1.2-1.2s1.2,0.5,1.2,1.2v0.1c0.8,0.2,1.3,0.7,1.3,0.7C27,8.2,27,8.9,26.6,9.4s-1.2,0.5-1.6,0.1
		c-0.3-0.2-0.8-0.3-1.2-0.2c-0.3,0.1-0.4,0.4-0.4,0.5c0,0.2,0,0.3,0,0.4c0.5,0.4,1.4,0.7,2,0.9C28.4,12.2,28,16.2,25.2,17.2
		L25.2,17.2z"/>
	<linearGradient id="SVGID_2_" gradientUnits="userSpaceOnUse" x1="20.94" y1="-5.6166" x2="20.94" y2="47.7815">
		<stop  offset="0" style="stop-color:#EF0C29"/>
		<stop  offset="0.5185" style="stop-color:#E73832"/>
		<stop  offset="1" style="stop-color:#950000"/>
	</linearGradient>
	<path class="st1" d="M34.6,23.7L23.4,27c0.4,0.9,0.5,1.8,0.5,2.8v0.4c0,2.9-3,4.8-5.6,3.6l-5.9-2.6c-0.6-0.3-0.8-1-0.6-1.5
		s0.9-0.8,1.5-0.6l5.9,2.6c1.1,0.5,2.3-0.3,2.3-1.5v-0.4c0-2-1.2-3.7-3-4.5L13.6,23c-2-0.9-4.2-0.9-6.2,0l-5.5,2.5
		c-0.4,0.2-0.7,0.6-0.7,1v12.3c0,0.9,0.8,1.4,1.6,1.1l7.7-2.9l9.2,3.2c2.1,0.7,4.4,0.5,6.3-0.6l12.5-7.3c1.4-0.8,2.3-2.4,2.3-4
		C40.7,25.1,37.7,22.8,34.6,23.7L34.6,23.7z"/>
</g>
</svg>
