<svg xmlns="http://www.w3.org/2000/svg" xmlns:xlink="http://www.w3.org/1999/xlink" viewBox="0 0 120 120"><defs><style>.cls-1{fill:url(#未命名漸層_15);}.cls-2{fill:url(#未命名漸層_15-2);}.cls-3{fill:url(#未命名漸層_15-4);}.cls-4{fill:url(#未命名漸層_15-5);}.cls-5{fill:url(#未命名漸層_15-6);}.cls-6{fill:url(#未命名漸層_15-7);}.cls-7{fill:url(#未命名漸層_15-8);}.cls-8{fill:url(#未命名漸層_15-9);}.cls-9{fill:url(#未命名漸層_15-10);}.cls-10{fill:url(#未命名漸層_15-11);}.cls-11,.cls-13,.cls-14,.cls-15,.cls-16,.cls-17,.cls-18,.cls-19,.cls-20,.cls-21,.cls-23,.cls-24,.cls-26,.cls-27,.cls-28,.cls-29,.cls-30{opacity:0.35;}.cls-12,.cls-19{fill:url(#未命名漸層_19);}.cls-13,.cls-14,.cls-15,.cls-16,.cls-17,.cls-18,.cls-19,.cls-20,.cls-21,.cls-23,.cls-24,.cls-26,.cls-27,.cls-28,.cls-29,.cls-30{fill-rule:evenodd;}.cls-13{fill:url(#未命名漸層_19-3);}.cls-14{fill:url(#未命名漸層_19-4);}.cls-15{fill:url(#未命名漸層_19-5);}.cls-16{fill:url(#未命名漸層_19-6);}.cls-17{fill:url(#未命名漸層_19-7);}.cls-18{fill:url(#未命名漸層_19-8);}.cls-20{fill:url(#未命名漸層_19-10);}.cls-21{fill:url(#未命名漸層_19-11);}.cls-22{fill:url(#未命名漸層_15-12);}.cls-23{fill:url(#未命名漸層_19-12);}.cls-24{fill:url(#未命名漸層_19-13);}.cls-25{fill:url(#未命名漸層_15-13);}.cls-26{fill:url(#未命名漸層_19-14);}.cls-27{fill:url(#未命名漸層_19-15);}.cls-28{fill:url(#未命名漸層_19-16);}.cls-29{fill:url(#未命名漸層_19-17);}.cls-30{fill:url(#未命名漸層_19-18);}</style><linearGradient id="未命名漸層_15" x1="57.09" y1="119.98" x2="57.09" y2="47.88" gradientUnits="userSpaceOnUse"><stop offset="0.04" stop-color="#bc9c64"/><stop offset="1" stop-color="#d7b67e"/></linearGradient><linearGradient id="未命名漸層_15-2" x1="68.89" y1="13.68" x2="68.89" y2="13.6" xlink:href="#未命名漸層_15"/><linearGradient id="未命名漸層_15-4" x1="35.54" y1="45.38" x2="35.54" y2="9.3" xlink:href="#未命名漸層_15"/><linearGradient id="未命名漸層_15-5" x1="104.33" y1="45.87" x2="104.33" y2="41.14" xlink:href="#未命名漸層_15"/><linearGradient id="未命名漸層_15-6" x1="10.67" y1="45.58" x2="10.67" y2="41.14" xlink:href="#未命名漸層_15"/><linearGradient id="未命名漸層_15-7" x1="100.09" y1="95.64" x2="100.09" y2="72.25" xlink:href="#未命名漸層_15"/><linearGradient id="未命名漸層_15-8" x1="69.43" y1="45.37" x2="69.43" y2="14.65" xlink:href="#未命名漸層_15"/><linearGradient id="未命名漸層_15-9" x1="67.09" y1="45.37" x2="67.09" y2="34.48" xlink:href="#未命名漸層_15"/><linearGradient id="未命名漸層_15-10" x1="71.55" y1="45.42" x2="71.55" y2="0.09" xlink:href="#未命名漸層_15"/><linearGradient id="未命名漸層_15-11" x1="36.66" y1="45.37" x2="36.66" y2="19.85" xlink:href="#未命名漸層_15"/><linearGradient id="未命名漸層_19" x1="83.16" y1="58.38" x2="79.15" y2="45.48" gradientUnits="userSpaceOnUse"><stop offset="0.04" stop-color="#fffdf0"/><stop offset="1" stop-color="#fffdf0" stop-opacity="0"/></linearGradient><linearGradient id="未命名漸層_19-3" x1="21.64" y1="77.51" x2="17.63" y2="64.62" xlink:href="#未命名漸層_19"/><linearGradient id="未命名漸層_19-4" x1="48.18" y1="69.26" x2="44.17" y2="56.36" xlink:href="#未命名漸層_19"/><linearGradient id="未命名漸層_19-5" x1="48.43" y1="69.18" x2="44.42" y2="56.28" xlink:href="#未命名漸層_19"/><linearGradient id="未命名漸層_19-6" x1="72.61" y1="61.66" x2="68.6" y2="48.76" xlink:href="#未命名漸層_19"/><linearGradient id="未命名漸層_19-7" x1="76.48" y1="60.45" x2="72.47" y2="47.56" xlink:href="#未命名漸層_19"/><linearGradient id="未命名漸層_19-8" x1="79.07" y1="59.65" x2="75.06" y2="46.75" xlink:href="#未命名漸層_19"/><linearGradient id="未命名漸層_19-10" x1="106.54" y1="51.1" x2="102.52" y2="38.21" xlink:href="#未命名漸層_19"/><linearGradient id="未命名漸層_19-11" x1="56.39" y1="66.71" x2="52.37" y2="53.81" xlink:href="#未命名漸層_19"/><linearGradient id="未命名漸層_15-12" x1="117.73" y1="95.88" x2="97.31" y2="69.31" xlink:href="#未命名漸層_15"/><linearGradient id="未命名漸層_19-12" x1="83.94" y1="121.85" x2="63.52" y2="95.27" xlink:href="#未命名漸層_19"/><linearGradient id="未命名漸層_19-13" x1="113.89" y1="98.84" x2="93.47" y2="72.26" xlink:href="#未命名漸層_19"/><linearGradient id="未命名漸層_15-13" x1="72.62" y1="26.84" x2="67.18" y2="7.64" xlink:href="#未命名漸層_15"/><linearGradient id="未命名漸層_19-14" x1="40.78" y1="35.87" x2="35.34" y2="16.67" xlink:href="#未命名漸層_19"/><linearGradient id="未命名漸層_19-15" x1="41.01" y1="35.8" x2="35.56" y2="16.6" xlink:href="#未命名漸層_19"/><linearGradient id="未命名漸層_19-16" x1="71.81" y1="27.07" x2="66.36" y2="7.87" xlink:href="#未命名漸層_19"/><linearGradient id="未命名漸層_19-17" x1="72.35" y1="26.92" x2="66.9" y2="7.72" xlink:href="#未命名漸層_19"/><linearGradient id="未命名漸層_19-18" x1="72.62" y1="26.84" x2="67.18" y2="7.64" xlink:href="#未命名漸層_19"/></defs><title>ICON</title><g id="圖層_1" data-name="圖層 1"><path class="cls-1" d="M112.17,107.7c0,2.31.07,4.63,0,7a5.62,5.62,0,0,1-4.65,5.33H6.66c-2.42-.94-4.23-2.49-4.6-5.17a34.32,34.32,0,0,1,0-4.65c0-.82,0-1.65,0-2.46v-.36C2,101,2,92.45,2,86.14c0-7.63,0-17.76,0-25.59v0c0-2.33-.19-4.65,0-7A5.89,5.89,0,0,1,6.61,48.1c1-.15,3.12-.2,3.12-.2l95.92,0a13.2,13.2,0,0,1,3.28.69,5.94,5.94,0,0,1,3.28,5.68c0,1.86,0,3.71,0,5.56v.94c0,2.57,0,6.47,0,9h0L93.1,70A13.85,13.85,0,0,0,79.75,83,10.13,10.13,0,0,0,80,86.9,14.21,14.21,0,0,0,94.18,98.13l7,0h11c0,2.63,0,6.7,0,9.18Z"/><path class="cls-2" d="M68.9,13.68h0s0,0,0-.08A.25.25,0,0,1,68.9,13.68Z"/><path class="cls-2" d="M68.9,13.68h0s0,0,0-.08A.25.25,0,0,1,68.9,13.68Z"/><path class="cls-3" d="M54.58,12.32c-2,2.87-3.54,5.15-3.7,5.4L50.05,19c-2.61-.24-5.22-.52-7.83-.78s-5.31-.42-7.95-.78a2.85,2.85,0,0,0-3.07,1.31A6,6,0,0,1,29,21a7.63,7.63,0,0,1-3,1.91,2.55,2.55,0,0,0-1.66,1.84A9.56,9.56,0,0,0,24,27.53c-.26,2.78-.49,5.55-.78,8.32-.34,3.18-.72,6.35-1,9.52H16.5c.14-1.41.27-2.84.4-4.25l2-20.62c.27-2.67.45-5.34.83-8A3.61,3.61,0,0,1,23.68,9.3c2.83.17,5.66.46,8.48.74,3.48.34,7,.74,10.43,1.1Z"/><path class="cls-4" d="M108.91,45.67v.2a10.12,10.12,0,0,0-3.14-.49h-.15c-2,0-3.9,0-5.87,0,.59-.87,1.06-1.56,1.59-2.24,0-.09.12-.17.22-.31l.41-.52.8-1.21h1.59A4.29,4.29,0,0,1,108.91,45.67Z"/><path class="cls-5" d="M14.71,41.14v.12c-.12,1.3-.24,2.61-.37,3.91a1.62,1.62,0,0,0,0,.22H9.5a23.21,23.21,0,0,0-2.88.19,4.2,4.2,0,0,1,4.56-4.43C12.35,41.14,13.54,41.13,14.71,41.14Z"/><path class="cls-6" d="M115.23,72.33c-1,0-3-.08-3-.08s-16.39.2-19.08.22A11.44,11.44,0,0,0,82.24,83.23a7.53,7.53,0,0,0,.16,3.1,11.69,11.69,0,0,0,11.79,9.3h18l2.92,0c2.08,0,2.91-.83,2.91-2.89q0-8.76,0-17.53C118,73.17,117.27,72.39,115.23,72.33ZM94.08,78.58A5.46,5.46,0,0,1,99.54,84a5.39,5.39,0,0,1-5.39,5.33A5.31,5.31,0,0,1,88.79,84,5.37,5.37,0,0,1,94.08,78.58Z"/><path class="cls-7" d="M45.73,44.55c.5-.72,1-1.45,1.5-2.18,2.29-3.43,4.63-6.83,7-10.23l3-4.31,6.58-9.64a2.67,2.67,0,0,0,.22-.41c.67-1.53,1.41-1.66,2-1.66a5,5,0,0,1,.73.07,4.47,4.47,0,0,0,.91.08c.31,0,.63,0,1-.06l.41,0a2.15,2.15,0,0,0,.5-.07,17.75,17.75,0,0,0,4.11-1.46l.3.19,13.85,9.41c1.35.92,2.7,1.83,4,2.77a1.46,1.46,0,0,1,.29.24.13.13,0,0,1,0,.06,8.75,8.75,0,0,0,.15,4.24,11.07,11.07,0,0,0,1.34,3.84c.18.3.21.35-.13.83-1.72,2.45-3.4,5-5,7.39l-1.18,1.75h-5a7.29,7.29,0,0,0-.08-.79A15.26,15.26,0,0,0,67,32,15.15,15.15,0,0,0,52,45.37H45.15Z"/><path class="cls-8" d="M79.67,45.37H54.51A12.72,12.72,0,0,1,79.63,45C79.65,45.1,79.66,45.24,79.67,45.37Z"/><path class="cls-9" d="M106.73,31.34c-2.2,3.25-4.37,6.53-6.57,9.79l-.31.41a4.4,4.4,0,0,0-.31.41c-.62.81-1.19,1.65-1.76,2.5-.22.32-.42.65-.64,1h-.76l-.82-.05H90.25c1.72-2.58,3.45-5.16,5.23-7.7a3,3,0,0,0,.23-3.56,8.81,8.81,0,0,1-1-3.05A6.46,6.46,0,0,1,94.51,28a2.59,2.59,0,0,0-1.28-3c-1.81-1.28-3.65-2.5-5.48-3.74L75.32,12.77a2.39,2.39,0,0,0-2.71-.42,15.24,15.24,0,0,1-3.71,1.34s0-.07,0-.09v.09a8.36,8.36,0,0,1-1.73,0c-2.68-.48-4.45.63-5.5,3.06l-6.58,9.62c-3.31,4.85-6.66,9.68-9.93,14.57-1,1.48-2,2.91-3,4.39H35.25l1.37-2q4.68-7,9.37-13.91c1.67-2.4,7-10.29,7-10.29S63.55,3.56,65.2,1.45A3.77,3.77,0,0,1,70.47.91q7.94,5.37,15.85,10.77,9.6,6.54,19.2,13.1C108.17,26.58,108.54,28.68,106.73,31.34Z"/><path class="cls-10" d="M24.77,45.37c.18-2.25.43-4.52.67-6.73l.27-2.52c.22-2,.39-4,.57-5.95l.22-2.41a2.22,2.22,0,0,0,0-.63A4.19,4.19,0,0,1,26.6,26q.07-.34.12-.69l.32-.17.57-.27A8.59,8.59,0,0,0,30.56,23a8.48,8.48,0,0,0,2.59-2.7l.11-.16a1,1,0,0,1,.22-.25.68.68,0,0,1,.17,0,1.33,1.33,0,0,1,.28,0c1.84.24,3.68.4,5.46.56.87.07,1.73.14,2.59.23l6.57.67Q47,23.57,45.47,25.79L43.94,28l-9.4,13.94-2.3,3.44Z"/><g class="cls-11"><path class="cls-12" d="M69.22,13.59h0v-.08S69.22,13.56,69.22,13.59Z"/><path class="cls-12" d="M69.22,13.59h0v-.08S69.22,13.56,69.22,13.59Z"/><path class="cls-13" d="M15,41.05v.12c-.12,1.29-.24,2.61-.37,3.9a1.77,1.77,0,0,0,0,.23H9.82a25.45,25.45,0,0,0-2.88.18,4.2,4.2,0,0,1,4.56-4.42C12.67,41.05,13.86,41,15,41.05Z"/><path class="cls-14" d="M48.87,21.24c-1,1.49-2,3-3.08,4.46l-1.53,2.2-9.4,13.93-2.3,3.45H25.08c.2-2.25.44-4.52.69-6.73L26,36c.21-2,.38-4,.57-6l.21-2.41a1.9,1.9,0,0,0,0-.63,5.22,5.22,0,0,1,.12-1.1q.07-.35.12-.69c.08,0,.18-.11.33-.18l.56-.26a8.55,8.55,0,0,0,2.95-1.92,8.39,8.39,0,0,0,2.59-2.71l.11-.15a1,1,0,0,1,.22-.25.37.37,0,0,1,.17,0l.28,0c1.84.25,3.68.4,5.46.56.86.07,1.73.15,2.59.24Z"/><path class="cls-15" d="M54.9,12.22c-2,2.87-3.54,5.16-3.7,5.41l-.83,1.24c-2.61-.24-5.22-.52-7.83-.78s-5.31-.43-7.95-.79a2.87,2.87,0,0,0-3.07,1.32,5.93,5.93,0,0,1-2.24,2.29,7.58,7.58,0,0,1-3,1.92,2.5,2.5,0,0,0-1.65,1.84,9.53,9.53,0,0,0-.28,2.77c-.26,2.77-.49,5.55-.78,8.32-.34,3.18-.72,6.34-1,9.52H16.82c.14-1.41.27-2.84.4-4.25l2-20.63c.28-2.66.45-5.34.83-8A3.6,3.6,0,0,1,24,9.21c2.83.16,5.65.46,8.47.74,3.48.34,7,.74,10.43,1.1Z"/><path class="cls-16" d="M80,45.28H54.83A12.72,12.72,0,0,1,80,44.88C80,45,80,45.15,80,45.28Z"/><path class="cls-17" d="M93.76,36.14c-1.72,2.45-3.4,5-5,7.39l-1.18,1.75h-5a6.87,6.87,0,0,0-.08-.78A15.26,15.26,0,0,0,67.33,31.89a14.68,14.68,0,0,0-4.06.56,15.21,15.21,0,0,0-11,12.83H45.48c.18-.27.38-.55.56-.83.52-.72,1-1.43,1.51-2.17,2.29-3.43,4.63-6.83,7-10.24l2.95-4.31,6.58-9.63a2.67,2.67,0,0,0,.22-.41c.67-1.53,1.41-1.66,2.06-1.66a3.8,3.8,0,0,1,.72.07,5.33,5.33,0,0,0,.91.07c.32,0,.63,0,1-.05l.41,0a2.14,2.14,0,0,0,.5-.06,17.81,17.81,0,0,0,4.11-1.47l.31.2,13.84,9.4c1.35.93,2.7,1.84,4,2.78a1.18,1.18,0,0,1,.29.24.11.11,0,0,1,0,0,8.87,8.87,0,0,0,.14,4.24,11.33,11.33,0,0,0,1.35,3.84C94.07,35.61,94.1,35.65,93.76,36.14Z"/><path class="cls-18" d="M107.05,31.25c-2.19,3.25-4.37,6.52-6.57,9.79-.09.13-.2.27-.31.41s-.21.26-.31.4c-.62.82-1.19,1.66-1.76,2.5-.22.33-.42.66-.64,1H96.7l-.82,0h-5.3c1.71-2.58,3.44-5.17,5.23-7.7A3,3,0,0,0,96,34,8.81,8.81,0,0,1,95,31a6.57,6.57,0,0,1-.17-3.11,2.59,2.59,0,0,0-1.27-3c-1.82-1.27-3.66-2.5-5.49-3.74L75.64,12.68a2.38,2.38,0,0,0-2.71-.42,14.67,14.67,0,0,1-3.71,1.33s0-.06,0-.08v.08a8.35,8.35,0,0,1-1.73.05c-2.67-.48-4.45.63-5.5,3.05L55.4,26.32c-3.31,4.85-6.66,9.68-9.93,14.56-1,1.48-2,2.92-3,4.4H35.57l1.37-2.05q4.68-7,9.38-13.91c1.66-2.39,7-10.29,7-10.29S63.87,3.47,65.53,1.36A3.76,3.76,0,0,1,70.79.81q8,5.37,15.85,10.77l19.21,13.11C108.49,26.48,108.86,28.58,107.05,31.25Z"/><path class="cls-19" d="M69.22,13.59h0v-.08S69.22,13.56,69.22,13.59Z"/><path class="cls-20" d="M109.23,45.57v.21a9.77,9.77,0,0,0-3.13-.49h-.16c-2,0-3.9,0-5.87,0,.59-.87,1.07-1.55,1.59-2.24a2.71,2.71,0,0,1,.23-.3s.38-.49.4-.53l.8-1.2h1.59A4.27,4.27,0,0,1,109.23,45.57Z"/><path class="cls-21" d="M111.89,51.1C95.77,61.92,66.67,73.85,14.17,82.31A79.17,79.17,0,0,0,2.34,87v-1c0-7.63,0-17.77,0-25.6v0c0-2.33-.18-4.66,0-7A5.88,5.88,0,0,1,6.93,48c1-.15,3.12-.21,3.12-.21H106a13.15,13.15,0,0,1,3.27.69A6.35,6.35,0,0,1,111.89,51.1Z"/></g><path class="cls-22" d="M114.89,95.64h.24c2,0,2.89-.82,2.91-2.81C117.08,93.76,116,94.7,114.89,95.64Z"/><path class="cls-23" d="M79.75,83A10.12,10.12,0,0,0,80,86.92,14.21,14.21,0,0,0,94.18,98.15l7,0h10.47c-9.49,7.08-24.1,14.75-46.59,21.83H6.66c-2.42-.94-4.23-2.49-4.6-5.17a36,36,0,0,1,0-4.65c0-.82,0-1.64,0-2.46v-.36C2,101,2,92.47,2,86.16,2,78.54,2,68.4,2,60.57v0c0-2.32-.18-4.65,0-7a5.89,5.89,0,0,1,4.57-5.43c1-.15,3.12-.2,3.12-.2H100.5l11.67,9.83c0,.7,0,1.39,0,2.09v.94c0,2.57,0,6.48,0,9h0S95.79,70,93.1,70A13.85,13.85,0,0,0,79.75,83Z"/><path class="cls-24" d="M115.23,72.35c-1,0-3-.07-3-.07l-19.08.21A11.44,11.44,0,0,0,82.24,83.25a7.54,7.54,0,0,0,.16,3.1,11.68,11.68,0,0,0,11.79,9.3l7,0h11l2.68,0c1.14-.94,2.19-1.88,3.15-2.81V75.22C118,73.2,117.27,72.41,115.23,72.35Zm-21.07,17A5.31,5.31,0,0,1,88.8,84a5.37,5.37,0,0,1,5.28-5.42A5.45,5.45,0,0,1,99.53,84,5.36,5.36,0,0,1,94.16,89.35Z"/><path class="cls-25" d="M68.92,13.77h0v-.09A.64.64,0,0,1,68.92,13.77Z"/><path class="cls-25" d="M68.92,13.77h0v-.09A.64.64,0,0,1,68.92,13.77Z"/><path class="cls-26" d="M48.56,21.42l-3.07,4.45-1.2,1.71c-5.46.15-11.38.12-17.77-.13a1.79,1.79,0,0,0,0-.24,4.09,4.09,0,0,1,.11-1.1c.05-.23.09-.45.12-.68l.33-.19.57-.26a8.52,8.52,0,0,0,2.94-1.91,8.28,8.28,0,0,0,2.59-2.71l.11-.15a.76.76,0,0,1,.22-.25.31.31,0,0,1,.17,0A2.85,2.85,0,0,1,34,20c1.83.25,3.67.4,5.46.56.86.07,1.73.14,2.58.23Z"/><path class="cls-27" d="M54.59,12.4l-3.7,5.4s-.32.5-.82,1.24c-2.61-.24-5.23-.52-7.84-.78s-5.3-.42-7.95-.78a2.84,2.84,0,0,0-3.06,1.31A6,6,0,0,1,29,21.09,7.66,7.66,0,0,1,26,23a2.56,2.56,0,0,0-1.65,1.84,12.39,12.39,0,0,0-.31,2.5c-1.86-.09-3.75-.18-5.69-.3l.64-6.45c.27-2.67.44-5.34.82-8A3.61,3.61,0,0,1,23.7,9.38c2.83.17,5.66.46,8.47.74,3.48.34,7,.74,10.43,1.1Z"/><path class="cls-28" d="M84.15,21.87a124.61,124.61,0,0,1-26.24,4.94l5.83-8.54a2.6,2.6,0,0,0,.23-.4c.66-1.54,1.4-1.67,2-1.67a4.85,4.85,0,0,1,.73.07,5.3,5.3,0,0,0,.91.09c.32,0,.63,0,.95-.07l.41,0a1.61,1.61,0,0,0,.49-.07,17.48,17.48,0,0,0,4.13-1.47l.29.2Z"/><path class="cls-29" d="M94.81,17.54a65.69,65.69,0,0,1-7.7,3.33q-5.88-4-11.78-8a2.39,2.39,0,0,0-2.71-.42,15.17,15.17,0,0,1-3.7,1.34.64.64,0,0,0,0-.09v.09a8.26,8.26,0,0,1-1.72,0c-2.68-.48-4.45.63-5.51,3.06q-3.27,4.81-6.58,9.62c-.13.2-.26.38-.4.58-2.34.17-4.77.32-7.31.41C49.6,24.24,53,19.21,53,19.21S63.56,3.64,65.22,1.53A3.76,3.76,0,0,1,70.48,1q8,5.37,15.85,10.76Z"/><path class="cls-30" d="M68.92,13.77h0v-.09A.64.64,0,0,1,68.92,13.77Z"/></g></svg>