<svg xmlns="http://www.w3.org/2000/svg" xmlns:xlink="http://www.w3.org/1999/xlink" viewBox="0 0 120 120"><defs><style>.cls-1{fill:url(#未命名漸層_15);}.cls-2{fill:url(#未命名漸層_15-2);}.cls-3{fill:url(#未命名漸層_15-3);}.cls-4{fill:url(#未命名漸層_15-4);}.cls-5{fill:url(#未命名漸層_15-5);}.cls-6{fill:url(#未命名漸層_15-6);}.cls-7{fill:url(#未命名漸層_15-7);}.cls-8{fill:url(#未命名漸層_15-8);}.cls-10,.cls-11,.cls-12,.cls-13,.cls-14,.cls-15,.cls-16,.cls-9{fill-rule:evenodd;opacity:0.35;}.cls-9{fill:url(#未命名漸層_19);}.cls-10{fill:url(#未命名漸層_19-2);}.cls-11{fill:url(#未命名漸層_19-3);}.cls-12{fill:url(#未命名漸層_19-4);}.cls-13{fill:url(#未命名漸層_19-5);}.cls-14{fill:url(#未命名漸層_19-6);}.cls-15{fill:url(#未命名漸層_19-7);}.cls-16{fill:url(#未命名漸層_19-8);}</style><linearGradient id="未命名漸層_15" x1="57.95" y1="113.13" x2="57.95" y2="-0.48" gradientUnits="userSpaceOnUse"><stop offset="0.04" stop-color="#bc9c64"/><stop offset="1" stop-color="#d7b67e"/></linearGradient><linearGradient id="未命名漸層_15-2" x1="35.19" y1="113.13" x2="35.19" y2="-0.48" xlink:href="#未命名漸層_15"/><linearGradient id="未命名漸層_15-3" x1="57.94" y1="113.13" x2="57.94" y2="-0.48" xlink:href="#未命名漸層_15"/><linearGradient id="未命名漸層_15-4" x1="45.33" y1="113.13" x2="45.33" y2="-0.48" xlink:href="#未命名漸層_15"/><linearGradient id="未命名漸層_15-5" x1="70.59" y1="113.13" x2="70.59" y2="-0.48" xlink:href="#未命名漸層_15"/><linearGradient id="未命名漸層_15-6" x1="20.1" y1="113.13" x2="20.1" y2="-0.48" xlink:href="#未命名漸層_15"/><linearGradient id="未命名漸層_15-7" x1="95.79" y1="113.13" x2="95.79" y2="-0.48" xlink:href="#未命名漸層_15"/><linearGradient id="未命名漸層_15-8" x1="91.45" y1="113.13" x2="91.45" y2="-0.48" xlink:href="#未命名漸層_15"/><linearGradient id="未命名漸層_19" x1="34.35" y1="105.74" x2="11.54" y2="106.09" gradientUnits="userSpaceOnUse"><stop offset="0.04" stop-color="#fffdf0"/><stop offset="1" stop-color="#fffdf0" stop-opacity="0"/></linearGradient><linearGradient id="未命名漸層_19-2" x1="24.16" y1="82.45" x2="14.69" y2="66.31" xlink:href="#未命名漸層_19"/><linearGradient id="未命名漸層_19-3" x1="45.76" y1="69.77" x2="36.29" y2="53.63" xlink:href="#未命名漸層_19"/><linearGradient id="未命名漸層_19-4" x1="54.72" y1="64.51" x2="45.24" y2="48.37" xlink:href="#未命名漸層_19"/><linearGradient id="未命名漸層_19-5" x1="69.45" y1="55.87" x2="59.97" y2="39.73" xlink:href="#未命名漸層_19"/><linearGradient id="未命名漸層_19-6" x1="68.18" y1="50.4" x2="28.03" y2="8.96" xlink:href="#未命名漸層_19"/><linearGradient id="未命名漸層_19-7" x1="52.25" y1="106.65" x2="74.66" y2="141.66" xlink:href="#未命名漸層_19"/><linearGradient id="未命名漸層_19-8" x1="86.31" y1="84.85" x2="108.72" y2="119.86" xlink:href="#未命名漸層_19"/></defs><title>ICON</title><g id="圖層_1" data-name="圖層 1"><path class="cls-1" d="M112.86,33.23Q85.86,16.6,58.84,0H57.07Q30,16.65,3,33.32a9.41,9.41,0,0,0-1.89,2.23v1.54a3.81,3.81,0,0,0,3.76,2.53q53.11-.06,106.24,0a3.34,3.34,0,0,0,3.61-2.49A3.37,3.37,0,0,0,112.86,33.23Zm-52.72-7c-.74,0-1.48,0-2.23,0s-1.47,0-2.21,0a3.3,3.3,0,0,1-.26-6.6,39.56,39.56,0,0,1,5,0,3.31,3.31,0,0,1-.29,6.62Z"/><path class="cls-2" d="M69.29,113.73H4.79a3.93,3.93,0,0,1-3.7-2.46V100.62c.89-1.91,2.42-2.48,4.48-2.47q27.85,0,55.72,0A30.4,30.4,0,0,0,69.29,113.73Z"/><path class="cls-3" d="M9.08,46.33h97.75c0,1.36.1,2.65,0,3.93A3.1,3.1,0,0,1,104,52.88a9.88,9.88,0,0,1-1.22,0q-44.86,0-89.72,0a4.21,4.21,0,0,1-2.32-.45,4.12,4.12,0,0,1-1.62-2.21A18.78,18.78,0,0,1,9.08,46.33Z"/><path class="cls-4" d="M38.74,59.65H51.92V91.46H38.74Z"/><path class="cls-5" d="M77.21,59.65v5.69a31.22,31.22,0,0,0-7.45,5.5,30.72,30.72,0,0,0-5.78,8V59.65Z"/><path class="cls-6" d="M26.69,91.45H13.52V59.66H26.69Z"/><path class="cls-7" d="M102.38,59.66v4.2a30.6,30.6,0,0,0-10.91-2q-1.14,0-2.28.09V59.66Z"/><path class="cls-8" d="M102.38,67.33a27.47,27.47,0,0,0-10.85-2.27c-.79,0-1.56,0-2.34.1A27.51,27.51,0,0,0,64,91.44c0,.36,0,.74,0,1.11a28,28,0,0,0,.58,5.62A27.53,27.53,0,0,0,74,113.73a27.46,27.46,0,1,0,28.36-46.4Zm-3.1,30.84a7.84,7.84,0,0,1-4.8,7.47l-1.06.44c0,1.23,0,2.46,0,3.68,0,1.57-.72,2.4-2,2.39s-1.92-.85-1.93-2.45a1,1,0,0,1,0-.24c.2-2,0-3.64-2.37-4.66-2.26-1-3.27-3.31-3.5-5.82a3.08,3.08,0,0,1,0-.81,1.88,1.88,0,0,1,1.72-1.68,1.91,1.91,0,0,1,2.09,1.68c0,.14,0,.29.07.44a3.92,3.92,0,0,0,7.83-.16,2.62,2.62,0,0,0,0-.28,3.94,3.94,0,0,0-4-3.67,7.87,7.87,0,0,1-7.68-6.63,7.78,7.78,0,0,1,5-8.49,1.3,1.3,0,0,0,.51-.3,1.06,1.06,0,0,0,.32-.94,30.86,30.86,0,0,1,0-3.19,1.87,1.87,0,0,1,1.95-2,1.9,1.9,0,0,1,2,2c0,1.05,0,2.13,0,3.18a1.07,1.07,0,0,0,.83,1.24,7.61,7.61,0,0,1,5,6.31,3.83,3.83,0,0,1-.33,2.11,1.69,1.69,0,0,1-2.12.76,2,2,0,0,1-1.41-2c-.26-2.79-2.51-4.44-5-3.71a4,4,0,0,0-1.18.57,3.89,3.89,0,0,0,0,6.37,4.14,4.14,0,0,0,2,.74,13.78,13.78,0,0,1,2.65.39,7.58,7.58,0,0,1,1.22.49,7.8,7.8,0,0,1,4.27,6.6A.4.4,0,0,1,99.28,98.17Z"/><path class="cls-9" d="M36.67,113.74H19.18L1.1,105.87v-5.25c.89-1.91,2.41-2.48,4.48-2.47H26.15A54.17,54.17,0,0,0,36.67,113.74Z"/><path class="cls-10" d="M26.71,75.56a24.61,24.61,0,0,0-2.54,15.89H13.53V59.65H26.71Z"/><path class="cls-11" d="M42.37,59.65q-1.83,1.16-3.62,2.51V59.65Z"/><path class="cls-12" d="M81.36,46.33Q70.94,49,58.88,51.49s-1.43.47-3.71,1.43q-21,0-42.06,0a4.23,4.23,0,0,1-2.33-.46,4.11,4.11,0,0,1-1.62-2.2,18.1,18.1,0,0,1-.07-3.91Z"/><path class="cls-13" d="M112.87,33.23Q85.85,16.6,58.85,0H57.07Q30,16.65,3,33.32A9.41,9.41,0,0,0,1.1,35.55v1.54a3.81,3.81,0,0,0,3.76,2.53q50-.06,100,0,5.26-1.71,10-3.45A3.53,3.53,0,0,0,112.87,33.23Zm-52.72-7c-.75,0-1.49,0-2.23,0s-1.47,0-2.21,0a3.3,3.3,0,0,1-.26-6.6,39.56,39.56,0,0,1,5,0,3.25,3.25,0,0,1,3.09,3.51A3.28,3.28,0,0,1,60.15,26.24Z"/><path class="cls-14" d="M58.83,0H57.06Q30,16.65,3,33.32a9.65,9.65,0,0,0-1.89,2.23v1.54a3.81,3.81,0,0,0,3.76,2.53h24.1l.9-.28C58.5,34.71,80.1,29,96.37,23.08Zm1.3,26.24c-.74,0-1.48,0-2.22,0s-1.47,0-2.22,0a3.3,3.3,0,0,1-.25-6.6,39.41,39.41,0,0,1,5,0,3.31,3.31,0,0,1-.29,6.62Z"/><path class="cls-15" d="M69.29,113.73h-25c5.62-3,11.91-6,19-9.09A30.8,30.8,0,0,0,69.29,113.73Z"/><path class="cls-16" d="M118.92,92.56A27.44,27.44,0,0,1,74,113.73a27.48,27.48,0,0,1-7.8-10.37c7.07-3,14.86-6,23.46-9.11a9.52,9.52,0,0,0,1.71.25,3.94,3.94,0,0,1,4,3.67,2.62,2.62,0,0,1,0,.28,3.92,3.92,0,0,1-7.83.16c0-.15,0-.3-.07-.44a1.91,1.91,0,0,0-2.09-1.68,1.88,1.88,0,0,0-1.72,1.68,3.08,3.08,0,0,0,0,.81c.23,2.51,1.24,4.86,3.5,5.82,2.42,1,2.57,2.61,2.37,4.66a1,1,0,0,0,0,.24c0,1.6.66,2.43,1.93,2.45s2-.82,2-2.39c0-1.22,0-2.45,0-3.68l1.06-.44a7.84,7.84,0,0,0,4.8-7.47.4.4,0,0,0,0-.11,7.75,7.75,0,0,0-3.3-6c2.71-.91,5.48-1.84,8.34-2.76a81.17,81.17,0,0,0,12.41-7.49A27.4,27.4,0,0,1,118.92,92.56Z"/></g></svg>