<svg xmlns="http://www.w3.org/2000/svg" xmlns:xlink="http://www.w3.org/1999/xlink" viewBox="0 0 120 120"><defs><style>.cls-1{fill:url(#未命名漸層_15);}.cls-2{fill:url(#未命名漸層_15-2);}.cls-3{fill:url(#未命名漸層_15-3);}.cls-4{fill:url(#未命名漸層_15-4);}.cls-5{fill:url(#未命名漸層_15-5);}.cls-6{fill:url(#未命名漸層_15-6);}.cls-7{fill:url(#未命名漸層_15-7);}.cls-8{fill:url(#未命名漸層_15-8);}.cls-9{opacity:0.47;}.cls-10,.cls-11,.cls-12,.cls-13,.cls-14,.cls-15,.cls-16,.cls-17,.cls-18,.cls-19,.cls-20,.cls-21,.cls-22,.cls-23,.cls-24,.cls-25,.cls-26,.cls-27,.cls-28,.cls-29,.cls-30{fill-rule:evenodd;opacity:0.35;}.cls-10{fill:url(#未命名漸層_19);}.cls-11{fill:url(#未命名漸層_19-2);}.cls-12{fill:url(#未命名漸層_19-3);}.cls-13{fill:url(#未命名漸層_19-4);}.cls-14{fill:url(#未命名漸層_19-5);}.cls-15{fill:url(#未命名漸層_19-6);}.cls-16{fill:url(#未命名漸層_19-7);}.cls-17{fill:url(#未命名漸層_19-8);}.cls-18{fill:url(#未命名漸層_19-9);}.cls-19{fill:url(#未命名漸層_19-10);}.cls-20{fill:url(#未命名漸層_19-11);}.cls-21{fill:url(#未命名漸層_19-12);}.cls-22{fill:url(#未命名漸層_19-13);}.cls-23{fill:url(#未命名漸層_19-14);}.cls-24{fill:url(#未命名漸層_19-15);}.cls-25{fill:url(#未命名漸層_19-16);}.cls-26{fill:url(#未命名漸層_19-17);}.cls-27{fill:url(#未命名漸層_19-18);}.cls-28{fill:url(#未命名漸層_19-19);}.cls-29{fill:url(#未命名漸層_19-20);}.cls-30{fill:url(#未命名漸層_19-21);}</style><linearGradient id="未命名漸層_15" x1="25.09" y1="109.96" x2="23.67" y2="6.64" gradientUnits="userSpaceOnUse"><stop offset="0.04" stop-color="#bc9c64"/><stop offset="1" stop-color="#d7b67e"/></linearGradient><linearGradient id="未命名漸層_15-2" x1="9.86" y1="110.17" x2="8.44" y2="6.86" xlink:href="#未命名漸層_15"/><linearGradient id="未命名漸層_15-3" x1="67.15" y1="109.39" x2="65.74" y2="6.07" xlink:href="#未命名漸層_15"/><linearGradient id="未命名漸層_15-4" x1="60.94" y1="109.47" x2="59.52" y2="6.16" xlink:href="#未命名漸層_15"/><linearGradient id="未命名漸層_15-5" x1="105.24" y1="108.87" x2="103.82" y2="5.56" xlink:href="#未命名漸層_15"/><linearGradient id="未命名漸層_15-6" x1="61.5" y1="109.47" x2="60.09" y2="6.15" xlink:href="#未命名漸層_15"/><linearGradient id="未命名漸層_15-7" x1="23" y1="109.99" x2="21.59" y2="6.68" xlink:href="#未命名漸層_15"/><linearGradient id="未命名漸層_15-8" x1="60.88" y1="109.48" x2="59.47" y2="6.16" xlink:href="#未命名漸層_15"/><linearGradient id="未命名漸層_19" x1="14.28" y1="85.2" x2="12.99" y2="71.52" gradientUnits="userSpaceOnUse"><stop offset="0.04" stop-color="#fffdf0"/><stop offset="1" stop-color="#fffdf0" stop-opacity="0"/></linearGradient><linearGradient id="未命名漸層_19-2" x1="25.88" y1="84.13" x2="24.59" y2="70.45" xlink:href="#未命名漸層_19"/><linearGradient id="未命名漸層_19-3" x1="25.18" y1="84.19" x2="23.89" y2="70.51" xlink:href="#未命名漸層_19"/><linearGradient id="未命名漸層_19-4" x1="33.47" y1="83.42" x2="32.18" y2="69.73" xlink:href="#未命名漸層_19"/><linearGradient id="未命名漸層_19-5" x1="45.67" y1="82.27" x2="44.37" y2="68.59" xlink:href="#未命名漸層_19"/><linearGradient id="未命名漸層_19-6" x1="63.15" y1="80.66" x2="61.86" y2="66.97" xlink:href="#未命名漸層_19"/><linearGradient id="未命名漸層_19-7" x1="63.01" y1="80.63" x2="61.72" y2="66.95" xlink:href="#未命名漸層_19"/><linearGradient id="未命名漸層_19-8" x1="66.69" y1="80.32" x2="65.4" y2="66.63" xlink:href="#未命名漸層_19"/><linearGradient id="未命名漸層_19-9" x1="86.58" y1="78.43" x2="85.29" y2="64.75" xlink:href="#未命名漸層_19"/><linearGradient id="未命名漸層_19-10" x1="96.2" y1="77.53" x2="94.91" y2="63.85" xlink:href="#未命名漸層_19"/><linearGradient id="未命名漸層_19-11" x1="107.57" y1="76.45" x2="106.28" y2="62.77" xlink:href="#未命名漸層_19"/><linearGradient id="未命名漸層_19-12" x1="42.03" y1="77.91" x2="17.07" y2="39" xlink:href="#未命名漸層_19"/><linearGradient id="未命名漸層_19-13" x1="33.13" y1="83.79" x2="8.09" y2="44.75" xlink:href="#未命名漸層_19"/><linearGradient id="未命名漸層_19-14" x1="46.41" y1="75.31" x2="21.39" y2="36.3" xlink:href="#未命名漸層_19"/><linearGradient id="未命名漸層_19-15" x1="43.01" y1="77.51" x2="17.95" y2="38.45" xlink:href="#未命名漸層_19"/><linearGradient id="未命名漸層_19-16" x1="65.24" y1="63.24" x2="40.21" y2="24.23" xlink:href="#未命名漸層_19"/><linearGradient id="未命名漸層_19-17" x1="63.23" y1="64.69" x2="38.08" y2="25.49" xlink:href="#未命名漸層_19"/><linearGradient id="未命名漸層_19-18" x1="68.71" y1="61.18" x2="43.66" y2="22.13" xlink:href="#未命名漸層_19"/><linearGradient id="未命名漸層_19-19" x1="85.63" y1="50.57" x2="60.48" y2="11.36" xlink:href="#未命名漸層_19"/><linearGradient id="未命名漸層_19-20" x1="97.79" y1="42.54" x2="72.74" y2="3.48" xlink:href="#未命名漸層_19"/><linearGradient id="未命名漸層_19-21" x1="103.94" y1="38.62" x2="78.97" y2="-0.32" xlink:href="#未命名漸層_19"/></defs><title>ICON</title><g id="圖層_1" data-name="圖層 1"><path class="cls-1" d="M47.56,100.74Q39.29,89.88,31,79L1.53,40.08l8.86,2.71a2.48,2.48,0,0,0,.2.4L11.74,45c1.5,2.38,3,4.76,4.53,7.13q11.1,17.28,22.22,34.55Z"/><path class="cls-2" d="M0,37.05l1.92-2.47,5.2-6.66q5.12-6.51,10.25-13Q15.13,23,12.85,31.15c-.65,2.33-2.51,9.05-2.51,9.05Z"/><path class="cls-3" d="M63.57,112.09q1.71-4.53,3.44-9L77.33,76.1q4.58-12,9.11-23.92c.09-.23.2-.45.3-.67a6.48,6.48,0,0,0,.63-1.74l3.43-1.06,7.31-2.26L105,44.29c4.32-1.37,8.65-2.74,13-4.07l.57-.19c-1.16,1.61-2.36,3.19-3.54,4.73l-1.84,2.43q-7,9.3-14,18.54l-4.55,6Q81.78,88.58,69,105.43l-2.47,3.26c-.58.77-1.18,1.56-1.79,2.3A6.9,6.9,0,0,1,63.57,112.09Zm-8.79-4.66q-4.8-7.52-9.65-15l-4.56-7.06Q29.45,68.1,18.35,50.82c-1.48-2.3-2.94-4.61-4.4-6.92l12.86,4,4.38,1.35,1.55.48a3.15,3.15,0,0,0,.19.43l.06.1c.75,2.05,1.54,4.1,2.32,6.14L45,81.73l2.68,7c1.9,5,3.8,9.91,5.66,14.88.43,1.13.87,2.26,1.32,3.38ZM34,46.59c-.14-.4-.27-.78-.42-1.15l-2-5.33q-4.46-11.85-8.95-23.69c-.16-.43-.31-.87-.46-1.31a22.15,22.15,0,0,0-1.16-2.92L25.2,13l8.69,1.77c7.27,1.49,14.78,3,22.18,4.48.36.07.72.16,1.08.25l.65.16c-.56.64-1.13,1.27-1.7,1.91l-1.92,2.14c-2.26,2.56-4.53,5.11-6.79,7.68L46,33q-4.12,4.66-8.21,9.35c-.48.57-1,1.11-1.48,1.66C35.55,44.84,34.78,45.69,34,46.59Zm52.05,0c-.19-.22-.39-.41-.58-.61s-.46-.47-.68-.71Q80,39.78,75.24,34.31l-2.38-2.72c-1.14-1.31-2.27-2.62-3.42-3.92l-3.5-4q-1.83-2-3.65-4.1c1.45-.34,2.92-.63,4.36-.91l1.69-.33,7.72-1.55c5.77-1.16,11.53-2.31,17.29-3.5L95.26,13a38.66,38.66,0,0,0,3.84-.81Z"/><path class="cls-4" d="M60.07,113.08a4,4,0,0,1-.6,0c-.76-2.37-1.68-4.69-2.56-6.94-.44-1.12-.88-2.23-1.3-3.35q-2.8-7.45-5.67-14.89l-2.67-7-9.65-25.3c-.72-1.88-1.44-3.77-2.14-5.66H84.76c-.07.17-.15.35-.25.55s-.27.57-.38.86q-4.51,12-9.11,23.91l-10.32,27q-2.09,5.43-4.14,10.87Z"/><path class="cls-5" d="M101.35,13.18c.27.32.53.67.79,1s.43.59.66.88c5.62,7.07,11.28,14.3,16.75,21.29L120,37c-.6.16-1.17.36-1.73.55-.35.13-.71.25-1.06.36-4.34,1.34-8.67,2.71-13,4.07q-3.42,1.1-6.84,2.16c-2.4.76-4.81,1.5-7.3,2.26l-1.43.45Z"/><path class="cls-6" d="M60,17.54a9.49,9.49,0,0,1-2.26-.39c-.4-.1-.81-.2-1.21-.28-7.39-1.46-14.9-3-22.16-4.47l-7.45-1.52,2.7-.37,5.92-.79c4.6-.61,9.35-1.24,14-2a69.58,69.58,0,0,1,10.59-.83,65.67,65.67,0,0,1,10,.77c4,.64,8.14,1.17,12.11,1.68l5,.65,6.08.8-.51.11q-8.62,1.77-17.27,3.49L67.85,16l-1.68.33c-1.72.34-3.51.69-5.26,1.13A3.62,3.62,0,0,1,60,17.54Z"/><path class="cls-7" d="M31.5,46.81l-3.95-1.22Q20.26,43.31,13,41l-.28-.08s1.88-6.8,2.54-9.13q2.25-8.1,4.52-16.2l.11.3c.15.47.31.93.49,1.39q4.5,11.84,9,23.69Z"/><path class="cls-8" d="M36.55,47.44c.51-.59,1-1.18,1.59-1.78s1-1.13,1.53-1.7c2.71-3.13,5.45-6.24,8.19-9.34L49.25,33c2.26-2.57,4.53-5.12,6.8-7.68l1.89-2.13c.72-.79,1.43-1.59,2.14-2.4,1.33,1.52,2.67,3,4,4.52q1.76,2,3.5,3.94L71,33.19l2.39,2.74L83,46.85c.18.2.36.4.55.59Z"/><g class="cls-9"><path class="cls-10" d="M17.38,14.91Q15.11,23,12.84,31.16l-2.52,9.05L0,37.06l1.92-2.47c1.73-2.22,3.48-4.44,5.21-6.65Q12.23,21.42,17.38,14.91Z"/><path class="cls-11" d="M31.49,46.82l-3.95-1.21L13,41l-.28-.08,2.54-9.13,4.53-16.19c0,.1.07.19.11.3.16.46.31.92.49,1.38Q24.85,29.14,29.29,41S31.42,46.65,31.49,46.82Z"/><path class="cls-12" d="M46,98.4a.46.46,0,0,0-.18.1Q38.42,88.75,31,79L1.52,40.09l8.85,2.72c.06.11.11.25.2.39L11.72,45q2.25,3.57,4.53,7.13L38.47,86.7Z"/><path class="cls-13" d="M50.49,96.27c-.74.33-1.49.66-2.24,1-1-1.61-2.09-3.23-3.13-4.84l-4.56-7.06L18.34,50.83c-1.48-2.3-2.94-4.6-4.4-6.92L26.8,48l4.37,1.34,1.55.48c.06.14.12.28.2.43l.06.11c.75,2,1.53,4.09,2.31,6.14L45,81.75l2.67,7C48.58,91.25,49.55,93.76,50.49,96.27Z"/><path class="cls-14" d="M57.78,19.7c-.56.64-1.13,1.27-1.7,1.91l-1.91,2.15q-3.41,3.82-6.8,7.67L46,33c-2.74,3.11-5.49,6.23-8.19,9.36-.5.55-1,1.11-1.5,1.65-.75.84-1.52,1.68-2.26,2.58-.14-.4-.28-.77-.42-1.15l-2-5.32q-4.44-11.85-8.94-23.7c-.17-.43-.31-.86-.46-1.3A23.15,23.15,0,0,0,21,12.2l4.15.84,8.69,1.78c7.26,1.48,14.77,3,22.17,4.47.37.07.73.16,1.1.25Z"/><path class="cls-15" d="M83.51,47.45h-47c.51-.58,1-1.17,1.6-1.77L39.66,44c2.71-3.13,5.45-6.24,8.18-9.34l1.39-1.58L56,25.37l1.9-2.12c.71-.8,1.43-1.59,2.13-2.41,1.33,1.52,2.68,3,4,4.52l3.49,3.94c1.15,1.3,2.28,2.6,3.42,3.9.8.92,1.58,1.83,2.39,2.74L83,46.87C83.14,47.07,83.32,47.26,83.51,47.45Z"/><path class="cls-16" d="M84.75,49.91c-.07.17-.16.35-.26.56s-.26.56-.37.86q-4.53,12-9.11,23.91L68.94,91.09a79.9,79.9,0,0,0-16.16,4.26c-.94-2.49-1.9-5-2.86-7.48l-2.66-7L37.6,55.57c-.72-1.88-1.44-3.77-2.14-5.66Z"/><path class="cls-17" d="M93.35,10.83a4.64,4.64,0,0,1-.51.11c-5.76,1.19-11.52,2.34-17.28,3.49L67.84,16l-1.69.33c-1.72.35-3.5.69-5.25,1.14a4.18,4.18,0,0,1-.89.1,9.41,9.41,0,0,1-2.26-.39c-.41-.1-.81-.21-1.22-.28-7.38-1.45-14.9-3-22.15-4.47l-7.45-1.52,2.7-.37,5.92-.79c4.6-.61,9.35-1.24,14-2a68.45,68.45,0,0,1,10.59-.84,65.45,65.45,0,0,1,10,.77c4,.63,8.14,1.17,12.12,1.68l5,.65Z"/><path class="cls-18" d="M99.08,12.17l-13,34.4c-.19-.22-.38-.41-.57-.6s-.46-.47-.68-.72Q80,39.79,75.23,34.32c-.8-.9-1.59-1.81-2.38-2.72q-1.71-2-3.43-3.92l-3.5-3.94-3.64-4.1c1.45-.35,2.92-.63,4.36-.91l1.69-.34,7.73-1.55c5.76-1.16,11.52-2.31,17.28-3.5l1.9-.35C96.51,12.76,97.8,12.53,99.08,12.17Z"/><path class="cls-19" d="M118.5,40.05c-1.16,1.6-2.37,3.18-3.54,4.72-.61.81-1.24,1.63-1.84,2.44q-7,9.28-14,18.53l-4.54,6L79.9,91c-2.69,0-5.45,0-8.26-.08l5.68-14.84q4.58-12,9.11-23.92c.09-.23.19-.44.3-.67a6.36,6.36,0,0,0,.63-1.74l3.42-1.05,7.32-2.27L105,44.3c4.32-1.36,8.64-2.73,13-4.07Z"/><path class="cls-20" d="M120,37c-.6.16-1.17.36-1.73.56-.36.12-.71.25-1.06.35-4.35,1.34-8.67,2.71-13,4.07l-6.85,2.17-7.3,2.26-1.43.44,12.72-33.63c.27.32.53.68.78,1s.44.6.67.89c5.61,7.06,11.28,14.29,16.75,21.28Z"/></g><path class="cls-21" d="M17.41,14.93Q15.15,23,12.86,31.17c-.64,2.33-2.51,9.06-2.51,9.06L0,37.07,2,34.6C3.68,32.38,5.43,30.16,7.16,28Q12.26,21.43,17.41,14.93Z"/><path class="cls-22" d="M29.36,72.48c-.66.52-1.34,1.07-2,1.64l-25.8-34,8.85,2.71a2.15,2.15,0,0,0,.21.39L11.75,45Q14,48.6,16.28,52.17,22.82,62.33,29.36,72.48Z"/><path class="cls-23" d="M31.52,46.84l-3.95-1.22Q20.27,43.34,13,41L12.71,41s1.89-6.8,2.54-9.12l4.53-16.2c0,.1.07.19.1.3.17.46.32.93.5,1.38Q24.88,29.15,29.32,41Z"/><path class="cls-24" d="M39,66.14l-.63.25A67,67,0,0,0,31.32,71L18.37,50.84c-1.48-2.3-2.94-4.6-4.4-6.92q6.42,2,12.86,4l4.37,1.35,1.55.47c.06.14.12.28.2.43l.06.11c.75,2,1.53,4.09,2.31,6.14Z"/><path class="cls-25" d="M57.82,19.71l-1.71,1.91L54.2,23.77q-3.41,3.82-6.8,7.67L46,33c-2.74,3.11-5.49,6.23-8.19,9.36-.5.56-1,1.11-1.5,1.66-.75.83-1.53,1.67-2.26,2.57l-.42-1.15-2-5.32q-4.44-11.85-8.94-23.7c-.17-.42-.31-.86-.46-1.3a24.75,24.75,0,0,0-1.16-2.93l4.15.85,8.69,1.77c7.26,1.48,14.77,3,22.17,4.48.37.06.73.16,1.1.25C57.38,19.6,57.6,19.67,57.82,19.71Z"/><path class="cls-26" d="M76,49.92c-9.91,5-21.39,10.14-34.7,15.32l-3.69-9.66c-.72-1.88-1.44-3.77-2.14-5.66Z"/><path class="cls-27" d="M82.63,46.47c-.61.34-1.23.68-1.86,1H36.56c.51-.59,1-1.18,1.6-1.78s1-1.13,1.53-1.71c2.7-3.13,5.45-6.22,8.19-9.33l1.38-1.58q3.39-3.86,6.8-7.69L58,23.26c.71-.8,1.43-1.59,2.13-2.41,1.33,1.52,2.68,3,4,4.52l3.49,3.95c1.15,1.29,2.28,2.59,3.42,3.89.8.92,1.58,1.83,2.39,2.74C76.47,39.45,79.55,43,82.63,46.47Z"/><path class="cls-28" d="M93.38,10.84a4.64,4.64,0,0,1-.51.11c-5.76,1.19-11.52,2.34-17.28,3.5L67.87,16l-1.69.34c-1.72.34-3.5.68-5.25,1.13a4.18,4.18,0,0,1-.89.1,9.89,9.89,0,0,1-2.26-.38c-.41-.11-.81-.2-1.22-.29-7.38-1.45-14.9-3-22.15-4.46L27,10.9l2.7-.36,5.92-.8c4.6-.6,9.35-1.23,14-2A68.33,68.33,0,0,1,60.19,7a65.53,65.53,0,0,1,10,.76c4,.65,8.14,1.17,12.12,1.68l5,.65Z"/><path class="cls-29" d="M99.11,12.18,87.06,44l-2.2,1.24h0L75.26,34.34l-2.38-2.73-3.43-3.92L66,23.75l-3.64-4.1c1.44-.34,2.92-.63,4.36-.91l1.7-.34,7.72-1.55q8.64-1.73,17.28-3.49c.64-.13,1.27-.25,1.91-.36C96.54,12.77,97.83,12.54,99.11,12.18Z"/><path class="cls-30" d="M112.37,27.22A178.61,178.61,0,0,1,90.45,42.1l10.92-28.89c.27.32.53.67.78,1s.44.6.67.89C106,19.12,109.19,23.18,112.37,27.22Z"/></g></svg>