<svg xmlns="http://www.w3.org/2000/svg" xmlns:xlink="http://www.w3.org/1999/xlink" viewBox="0 0 120 120"><defs><style>.cls-1{fill:url(#未命名漸層_15);}.cls-2{fill:url(#未命名漸層_15-2);}.cls-3{fill:url(#未命名漸層_15-3);}.cls-4,.cls-5,.cls-6,.cls-7{fill-rule:evenodd;opacity:0.35;}.cls-4{fill:url(#未命名漸層_19);}.cls-5{fill:url(#未命名漸層_19-2);}.cls-6{fill:url(#未命名漸層_19-3);}.cls-7{fill:url(#未命名漸層_19-4);}</style><linearGradient id="未命名漸層_15" x1="70.47" y1="100" x2="70.47" y2="50.38" gradientUnits="userSpaceOnUse"><stop offset="0.04" stop-color="#bc9c64"/><stop offset="1" stop-color="#d7b67e"/></linearGradient><linearGradient id="未命名漸層_15-2" x1="60.01" y1="55.99" x2="60.01" y2="0.01" xlink:href="#未命名漸層_15"/><linearGradient id="未命名漸層_15-3" x1="24.08" y1="119.99" x2="24.08" y2="71.96" xlink:href="#未命名漸層_15"/><linearGradient id="未命名漸層_19" x1="17.95" y1="96.58" x2="9.9" y2="79.64" gradientUnits="userSpaceOnUse"><stop offset="0.04" stop-color="#fffdf0"/><stop offset="1" stop-color="#fffdf0" stop-opacity="0"/></linearGradient><linearGradient id="未命名漸層_19-2" x1="57.54" y1="77.76" x2="49.49" y2="60.82" xlink:href="#未命名漸層_19"/><linearGradient id="未命名漸層_19-3" x1="102.81" y1="56.24" x2="94.75" y2="39.3" xlink:href="#未命名漸層_19"/><linearGradient id="未命名漸層_19-4" x1="72.71" y1="39.29" x2="44.93" y2="4.26" xlink:href="#未命名漸層_19"/></defs><title>ICON</title><g id="圖層_1" data-name="圖層 1"><path class="cls-1" d="M91.34,65.77c1.5-1.48,3-2.9,4.39-4.34,2.77-2.76,5.5-5.57,8.31-8.29a9.4,9.4,0,0,1,13.1-.2c2.9,2.76,3.48,6.15,2.25,9.85a13.88,13.88,0,0,1-1.75,3.43q-8.49,12.35-17.07,24.63c-3.14,4.49-7.24,7.67-12.74,8.73a23.88,23.88,0,0,1-4.47.38q-17,.06-34.1,0a1.9,1.9,0,0,1-1.19-.47Q34.62,86.13,21.21,72.68a2.12,2.12,0,0,1-.26-.36c4.34-4.71,9.37-8.22,16-8.27,14.4-.12,28.81-.09,43.22,0a10,10,0,0,1-.07,20c-7.21.06-14.41,0-21.61.06a2.92,2.92,0,0,0-2.05.81,2.2,2.2,0,0,0-.13,2,2.56,2.56,0,0,0,1.88,1.06q11.11.09,22.23,0a12.9,12.9,0,0,0,3.79-.66A13.91,13.91,0,0,0,92,66.8C91.81,66.51,91.63,66.24,91.34,65.77Z"/><path class="cls-2" d="M60,56A28,28,0,1,1,88,28,28,28,0,0,1,60,56ZM62,41.8l1.08-.45a7.95,7.95,0,0,0-.7-14.94,14.19,14.19,0,0,0-2.7-.41A4,4,0,0,1,56,22.48a4,4,0,0,1,2.86-4.29c2.53-.76,4.83.93,5.09,3.78a2,2,0,0,0,1.44,2,1.7,1.7,0,0,0,2.16-.78A3.86,3.86,0,0,0,67.92,21a7.74,7.74,0,0,0-5.07-6.42A1.11,1.11,0,0,1,62,13.34c.06-1.08,0-2.17,0-3.25a2,2,0,1,0-4,0c0,1.09-.05,2.17,0,3.25a1.1,1.1,0,0,1-.84,1.27,7.92,7.92,0,0,0-5.06,8.65A8,8,0,0,0,59.94,30,4,4,0,1,1,56,34.19c-.15-1.44-1-2.29-2.19-2.17A2.1,2.1,0,0,0,52,34.57c.22,2.56,1.26,5,3.57,5.94s2.61,2.65,2.4,4.74a2.09,2.09,0,0,0,0,.25c0,1.63.69,2.47,2,2.49s2-.83,2-2.43C62,44.31,62,43.07,62,41.8Z"/><path class="cls-3" d="M48.15,106a7.17,7.17,0,0,1-.93,1.54c-3.83,3.89-7.69,7.74-11.56,11.59-1.2,1.19-2.18,1.1-3.53-.25L3.5,90.29l-2.2-2.2c-1.72-1.71-1.73-2.48-.05-4.16L12,73.16c1.58-1.59,2.41-1.59,4,0L46.83,104a5.21,5.21,0,0,1,.68.73A14.36,14.36,0,0,1,48.15,106Z"/><path class="cls-4" d="M24.76,111.52,3.51,90.29,1.3,88.08c-1.72-1.7-1.73-2.48-.05-4.15L12,73.16c1.57-1.59,2.41-1.6,4,0l7.36,7.36C16.23,86.24,12.25,95.9,24.76,111.52Z"/><path class="cls-5" d="M85.91,65.91C75.34,69,60.82,71.61,40.85,72.83A47.23,47.23,0,0,0,26.7,78.16l-5.49-5.48a3.12,3.12,0,0,1-.26-.37c4.34-4.7,9.38-8.21,16-8.26,14.41-.12,28.83-.1,43.23,0A9.68,9.68,0,0,1,85.91,65.91Z"/><path class="cls-6" d="M112.17,50.49C109.89,54,104.91,58.82,94,63.14c.59-.56,1.17-1.14,1.75-1.71,2.76-2.77,5.49-5.57,8.3-8.29A9.58,9.58,0,0,1,112.17,50.49Z"/><path class="cls-7" d="M88,27.18a86.18,86.18,0,0,1-20.93,3.06,8,8,0,0,0-4.66-3.83,14.18,14.18,0,0,0-2.7-.4A4.05,4.05,0,0,1,56,22.48a4,4,0,0,1,2.87-4.29c2.53-.75,4.82.93,5.09,3.78a2,2,0,0,0,1.43,2,1.72,1.72,0,0,0,2.17-.78A4.11,4.11,0,0,0,67.92,21a7.74,7.74,0,0,0-5.07-6.43A1.11,1.11,0,0,1,62,13.34c.06-1.08,0-2.16,0-3.25a2,2,0,1,0-4,0c0,1.08,0,2.17,0,3.25a1.1,1.1,0,0,1-.84,1.27,7.92,7.92,0,0,0-5.06,8.65A8,8,0,0,0,60,30a5.32,5.32,0,0,1,1.63.36A230.69,230.69,0,0,1,32,28.31,2.81,2.81,0,0,1,32,28a28,28,0,0,1,56-.84Z"/></g></svg>