<?xml version="1.0" encoding="utf-8"?>
<!-- Generator: Adobe Illustrator 25.3.1, SVG Export Plug-In . SVG Version: 6.00 Build 0)  -->
<svg version="1.1" id="圖層_1" xmlns="http://www.w3.org/2000/svg" xmlns:xlink="http://www.w3.org/1999/xlink" x="0px" y="0px"
	 viewBox="0 0 17.5 21.4" style="enable-background:new 0 0 17.5 21.4;" xml:space="preserve">
<style type="text/css">
	.st0{fill:#BC1111;}
</style>
<g id="home">
	<path class="st0" d="M0.6,21.4c-0.2,0-0.3-0.1-0.4-0.2C0.1,21.1,0,20.9,0,20.8c0-1.6,0.5-3.3,1.2-4.7c0.7-1.3,1.7-2.4,2.9-3.2
		c0.7-0.5,1.5-0.9,2.4-1.1L7,11.6l-0.4-0.2C5.7,11,5,10.3,4.5,9.5V9.4H3.4c-0.8,0-1.4-0.6-1.4-1.4V6.4c0-0.4,0.2-0.8,0.5-1.1h0V5.2
		C3,2.2,5.7,0,8.7,0c3.1,0,5.7,2.1,6.3,5.2l0,0l0,0c0.3,0.3,0.4,0.6,0.4,1v1.7c0,0.8-0.6,1.4-1.4,1.4h-0.9L13,9.4
		c-0.5,0.9-1.2,1.6-2.1,2.1l-0.4,0.2l0.6,0.2l0.4,0.1c1.2,0.4,2.2,1.1,3.1,2c1.3,1.3,2.1,2.9,2.5,4.6c0.2,0.7,0.3,1.4,0.3,2.1
		c0,0.2,0,0.3-0.2,0.5c-0.1,0.1-0.3,0.2-0.5,0.2L0.6,21.4z M12.4,17.2c0.2,0,0.3,0.1,0.3,0.3l0.5,2.7h3c0,0,0-0.4,0-0.5
		c-0.2-1.4-0.8-2.8-1.6-4c-0.5-0.7-1.2-1.4-1.9-1.9c-0.3-0.2-0.7-0.4-1-0.6c-1.2-0.6-2.5-0.8-3.8-0.6c-1.9,0.3-3.6,1.2-4.7,2.7
		c-1,1.1-1.6,2.5-1.9,4c0,0.1,0,0.3-0.1,0.5l-0.1,0.4h3.1l0.3-1.9c0-0.3,0.1-0.6,0.2-0.9c0-0.2,0.2-0.3,0.3-0.3
		c0.3,0,0.4,0.2,0.3,0.4L5,20.2h7.5l-0.4-2c0-0.2-0.1-0.4-0.1-0.6C12,17.4,12.2,17.2,12.4,17.2C12.3,17.2,12.4,17.2,12.4,17.2
		L12.4,17.2z M8.7,3.3C6.7,3.3,5,5,5,7C5,8,5.4,9,6.1,9.6c0.7,0.7,1.6,1.1,2.6,1.1c1,0,1.9-0.4,2.6-1.1l-0.2-0.3
		c-0.6,0.2-1.3,0.3-2,0.3c-0.3,0-0.5-0.2-0.5-0.5c0,0,0,0,0,0c0-0.3,0.2-0.5,0.4-0.5c0,0,0,0,0,0c1.2,0,2.3-0.4,3.2-1.1h0.1V7.6
		c0.4-2-1-3.9-3-4.3C9.2,3.3,9,3.3,8.7,3.3L8.7,3.3z M3.4,5.9c-0.3,0-0.5,0.2-0.5,0.5v1.6c0,0.3,0.2,0.5,0.5,0.5h0.3V5.9H3.4z
		 M13.7,8.3H14c0.3,0,0.5-0.2,0.5-0.5V6.2c0-0.3-0.2-0.5-0.5-0.5l0,0h-0.3L13.7,8.3z M8.7,1C6.4,1,4.3,2.5,3.6,4.7L3.5,4.9h0.8V4.8
		c0.8-1.7,2.6-2.7,4.4-2.7h0.1c1.7,0.1,3.3,1,4.1,2.6l0.1,0.1h0.8l-0.1-0.2C13,2.4,11,1,8.7,1z"/>
</g>
</svg>
