<svg xmlns="http://www.w3.org/2000/svg" viewBox="0 0 120 120"><defs><style>.cls-1{fill:#fed792;}</style></defs><title>ICON</title><g id="圖層_1" data-name="圖層 1"><path class="cls-1" d="M46.8,120c-9.24-.91-18.11-2.94-25.78-8.49-7.47-5.41-10.15-13-9.67-21.92.36-6.56,3.05-12.16,6.9-17.3,1.34-1.78,2.64-3.59,4.11-5.25,3.86-4.34,4.55-9.4,3.56-14.87-.28-1.53-.74-3-1.15-4.72A57.08,57.08,0,0,1,34.11,54c3,2.59,4.21,6.13,5.75,9.61,0-2.8-.16-5.61,0-8.39.55-7.65,2.72-14.73,7.56-20.87,2.33-2.94,4.42-6.08,6.56-9.17A18.94,18.94,0,0,0,56.74,8.42c-.73-2.55-1.67-5-2.51-7.57a1.31,1.31,0,0,1-.1-.85c15.76,10.36,26.38,24,28.1,43.58,5.15-4.86,6.65-10.93,5.84-17.75.22,0,.33,0,.35.06,7.74,12.44,14.21,25.46,18.06,39.66a55.41,55.41,0,0,1,2.14,18c-.91,14.68-8,25.29-21,32a48.47,48.47,0,0,1-12.08,4.24,7.13,7.13,0,0,1-.89.1c9.17-6.59,10.46-15.85,8.55-25.94-1.39-7.32-4.91-13.82-9-20,0-.06-.11-.09-.33-.25.26,3.3-.28,6.26-2.94,8.71-.7-9.74-6.35-16.1-14-21.59,0,.69.08,1.07.11,1.44.71,8.92-1.55,16.7-8.46,22.84a80.2,80.2,0,0,0-6.4,6.63c-6.27,7-6.61,16-1,23.52A15.61,15.61,0,0,0,46.8,120Z"/></g></svg>