<svg xmlns="http://www.w3.org/2000/svg" viewBox="0 0 120 120"><defs><style>.cls-1{fill:#929292;}</style></defs><title>ICON</title><g id="圖層_1" data-name="圖層 1"><path class="cls-1" d="M63.73,120H56.24c-1.43-.17-2.85-.33-4.27-.53A58.37,58.37,0,0,1,22.6,106.75C8.29,95,.58,79.84.06,61.29-.33,46.9,4.23,34.07,13.13,22.76,29.68,1.71,58.76-5.91,83.27,4.87c19.7,8.67,31.65,23.86,35.79,45.06.41,2.09.61,4.23.9,6.35v7.5c-.3,2.15-.55,4.32-.91,6.46a60.33,60.33,0,0,1-48.74,48.84C68.13,119.46,65.93,119.7,63.73,120ZM60,14.35a45.68,45.68,0,1,0,45.63,45.7A45.75,45.75,0,0,0,60,14.35Z"/><path class="cls-1" d="M98.64,60.07A38.66,38.66,0,1,1,60,21.38,38.72,38.72,0,0,1,98.64,60.07Zm-57,25.13c.47-.15.81-.23,1.12-.36,5.31-2.14,10.63-4.28,15.92-6.47a3.19,3.19,0,0,1,2.65,0c5.25,2.19,10.53,4.29,15.81,6.42.33.14.69.23,1.15.39,0-.87-.06-1.56-.11-2.26-.38-5.49-.78-11-1.12-16.47a2.6,2.6,0,0,1,.54-1.66c3.68-4.45,7.41-8.87,11.12-13.29.29-.34.54-.7.87-1.12-.36-.11-.54-.18-.72-.22Q80.26,48,71.63,45.89a2.67,2.67,0,0,1-1.8-1.29c-3-4.92-6.09-9.8-9.16-14.7-.19-.31-.42-.61-.7-1-.3.46-.54.8-.76,1.16-3.06,4.89-6.1,9.8-9.2,14.66a2.8,2.8,0,0,1-1.5,1.1C42.74,47.3,37,48.73,31.16,50.18a5.94,5.94,0,0,0-.76.29c.29.37.51.65.73.91,3.71,4.43,7.41,8.86,11.15,13.27a2.46,2.46,0,0,1,.65,2c-.26,3.19-.46,6.38-.68,9.57C42.05,79.18,41.86,82.13,41.65,85.2Z"/><path class="cls-1" d="M49.43,74.5c.21-3,.32-5.86.65-8.72a5,5,0,0,0-1.35-4.43c-2-2.13-3.79-4.45-5.8-6.85l4-1c2-.5,4-.93,6-1.52a3.05,3.05,0,0,0,1.57-1.17c1.83-2.81,3.58-5.67,5.44-8.65.25.35.46.6.64.87,1.57,2.51,3.17,5,4.7,7.55a2.93,2.93,0,0,0,2,1.51c3.19.73,6.35,1.56,9.66,2.38-.22.31-.36.56-.55.78-2,2.33-3.88,4.69-5.87,7a2.74,2.74,0,0,0-.74,2.21c.27,3.3.48,6.61.73,10.1l-1.69-.66c-2.64-1.07-5.26-2.17-7.93-3.17a2.79,2.79,0,0,0-1.85,0c-2.91,1.1-5.79,2.3-8.68,3.46C50.12,74.28,49.82,74.37,49.43,74.5Z"/></g></svg>