<svg xmlns="http://www.w3.org/2000/svg" viewBox="0 0 119.92 120"><defs><style>.cls-1{fill:#101010;}.cls-2{fill:#bf9e67;}</style></defs><title>ICON</title><g id="圖層_1" data-name="圖層 1"><path class="cls-1" d="M59.76,111.69a1.93,1.93,0,0,1-1-.26l-.12-.06A145.19,145.19,0,0,1,38,99.74c-1.12-.81-2.29-1.62-3.47-2.43a93.47,93.47,0,0,1-7.66-5.67A114.89,114.89,0,0,1,18,82.86a66.44,66.44,0,0,1-15.48-27,28.7,28.7,0,0,1-1.06-7.72V40.71a29.36,29.36,0,0,1,.62-4.88A33.31,33.31,0,0,1,18.56,12.05,27.66,27.66,0,0,1,32.38,8.32h1a32.57,32.57,0,0,1,21.93,8.53l1.72,1.52a3.82,3.82,0,0,0,2.83,1.25,3.86,3.86,0,0,0,2.56-1,3,3,0,0,0,.25-.25l4.22-3.48a31.71,31.71,0,0,1,38.64,0,35.67,35.67,0,0,1,11.28,16.92,38,38,0,0,1,1.47,14.54v.14a23,23,0,0,1-.37,5.09l0,.11v.1a16.81,16.81,0,0,1-.49,2.82A68.08,68.08,0,0,1,109,73.59,85.84,85.84,0,0,1,92.48,91.75a128.73,128.73,0,0,1-20.93,14.06c-2.35,1.28-4.8,2.53-7.17,3.74l-3.6,1.85A2,2,0,0,1,59.76,111.69Z"/><path class="cls-2" d="M32.39,6.82v3h1a31.06,31.06,0,0,1,21,8.17L56,19.46a5.34,5.34,0,0,0,7.45.3l.26-.26,4.11-3.39a30.22,30.22,0,0,1,36.78,0,34.18,34.18,0,0,1,10.79,16.18,36.74,36.74,0,0,1,1.42,14l0,.13v.14a22.12,22.12,0,0,1-.33,4.76l0,.21,0,.21a14.35,14.35,0,0,1-.44,2.54,66.19,66.19,0,0,1-8.16,18.48A84.22,84.22,0,0,1,91.52,90.59a126.8,126.8,0,0,1-20.7,13.91c-2.32,1.26-4.75,2.51-7.11,3.71l-3.62,1.86-.05,0,0,0a.39.39,0,0,1-.23.07.44.44,0,0,1-.24-.07l-.11-.06-.11,0A142.66,142.66,0,0,1,38.89,98.52c-1.17-.83-2.35-1.65-3.5-2.45a89.54,89.54,0,0,1-7.51-5.55,112.11,112.11,0,0,1-8.77-8.67l0,0,0,0A64.82,64.82,0,0,1,4,55.51a27.12,27.12,0,0,1-1-7.33V40.77a28.73,28.73,0,0,1,.58-4.63l0-.06V36A31.8,31.8,0,0,1,19.33,13.34,26.13,26.13,0,0,1,32.39,9.82v-3m0,0a29,29,0,0,0-14.56,3.93A34.9,34.9,0,0,0,.61,35.52,31.21,31.21,0,0,0,0,40.71v7.47a30.28,30.28,0,0,0,1.12,8.14A67.58,67.58,0,0,0,16.89,83.86a113.31,113.31,0,0,0,9,8.92c3.54,3,7.49,5.49,11.26,8.2a146.79,146.79,0,0,0,20.88,11.76,3.47,3.47,0,0,0,3.42,0c3.6-1.87,7.25-3.68,10.79-5.61A128.52,128.52,0,0,0,93.43,92.9,87.1,87.1,0,0,0,110.3,74.4a69.58,69.58,0,0,0,8.55-19.35,17.6,17.6,0,0,0,.53-3.07,24.25,24.25,0,0,0,.41-5.43,39.69,39.69,0,0,0-1.53-15.13,37.31,37.31,0,0,0-11.79-17.66,33.23,33.23,0,0,0-40.52,0l-4.3,3.56-.21.21a2.33,2.33,0,0,1-3.33-.21l-1.77-1.57A34.07,34.07,0,0,0,33.4,6.83h-1Z"/></g></svg>