<svg xmlns="http://www.w3.org/2000/svg" xmlns:xlink="http://www.w3.org/1999/xlink" viewBox="0 0 120 120"><defs><style>.cls-1{fill:url(#未命名漸層_8);}</style><linearGradient id="未命名漸層_8" x1="60" y1="113.18" x2="60" y2="-2.69" gradientUnits="userSpaceOnUse"><stop offset="0.04" stop-color="#bc9c64"/><stop offset="0.93" stop-color="#f3d197"/></linearGradient></defs><title>ICON</title><g id="圖層_1" data-name="圖層 1"><path class="cls-1" d="M33.26,6.83a34.06,34.06,0,0,1,23.12,8.92l1.77,1.57a2.33,2.33,0,0,0,3.33.21l.21-.21L66,13.76a33.22,33.22,0,0,1,40.52,0A37.31,37.31,0,0,1,118.3,31.42a39.67,39.67,0,0,1,1.53,15.13,24.25,24.25,0,0,1-.41,5.43,17,17,0,0,1-.53,3.07,69.58,69.58,0,0,1-8.55,19.35A87.1,87.1,0,0,1,93.47,92.9,129.15,129.15,0,0,1,72.3,107.13c-3.54,1.93-7.19,3.74-10.79,5.6a3.47,3.47,0,0,1-3.42,0A145.76,145.76,0,0,1,37.21,101c-3.77-2.71-7.72-5.18-11.26-8.2a113.31,113.31,0,0,1-9-8.92A67.55,67.55,0,0,1,1.12,56.31,30.15,30.15,0,0,1,0,48.18V40.7a31.22,31.22,0,0,1,.65-5.18A34.9,34.9,0,0,1,17.87,10.75,28.92,28.92,0,0,1,33.26,6.83Z"/></g></svg>