<svg xmlns="http://www.w3.org/2000/svg" viewBox="0 0 120 120"><defs><style>.cls-1{fill:#fed792;}</style></defs><title>ICON</title><g id="圖層_1" data-name="圖層 1"><path class="cls-1" d="M0,58.38a16.92,16.92,0,0,1,.91-3.23,18,18,0,0,1,2.86-4.77c6.82-7,13.78-13.81,20.75-20.74L37.86,43c.86-1,1.54-1.82,2.32-2.57a4.51,4.51,0,1,1,6.33,6.42c-.73.75-1.53,1.44-2.33,2.18L55.12,59.93c-1.68,1.67-3.31,3.13-4.73,4.76a3.07,3.07,0,0,1-3.82,1A10.73,10.73,0,0,0,34.77,69a11.05,11.05,0,0,0-2.18,12,1.48,1.48,0,0,1-.37,1.89c-2.58,2.5-5.09,5.07-7.67,7.66-.36-.35-.67-.63-1-.92C17.32,83.32,11.08,77,4.78,70.8A15,15,0,0,1,.19,62.2,3.46,3.46,0,0,0,0,61.66Z"/><path class="cls-1" d="M58.35,120a18,18,0,0,1-3.24-.91,17.54,17.54,0,0,1-4.68-2.79c-7-6.85-13.87-13.84-20.79-20.79L42.89,82.28c-1-.82-1.82-1.47-2.58-2.22a4.51,4.51,0,1,1,6.33-6.42c.76.74,1.48,1.5,2.31,2.33,3.63-3.7,7.23-7.35,10.92-11.1,2.11,2.12,4.06,4,5.93,6,.21.22.12.86,0,1.23a11.51,11.51,0,0,0,5,14.46,11.1,11.1,0,0,0,10,.64,1.32,1.32,0,0,1,1.72.33c2.58,2.66,5.22,5.26,7.89,8-.3.33-.57.63-.87.93C84,102,78.35,107.5,72.87,113.16c-3.19,3.29-6.51,6.18-11.24,6.84Z"/><path class="cls-1" d="M90.53,24.62,77,38.08c.81.79,1.6,1.53,2.36,2.3A4.52,4.52,0,1,1,73,46.81c-.79-.76-1.52-1.56-2.34-2.41C67.09,48,63.61,51.49,60,55.07c-2-2-4-3.93-5.84-5.91-.22-.23-.1-.92.05-1.33a11.53,11.53,0,0,0-5.06-14.35,11.11,11.11,0,0,0-10-.65,1.32,1.32,0,0,1-1.72-.31c-2.59-2.66-5.23-5.25-7.91-7.93.29-.32.53-.6.79-.86l19-19c6.36-6.34,15.06-6.35,21.43,0s12.7,12.69,19,19C90,24,90.17,24.25,90.53,24.62Z"/><path class="cls-1" d="M64.9,60c2-2,3.8-3.71,5.57-5.53.53-.55,1-.29,1.45-.09A11.53,11.53,0,0,0,87.82,43.3a27.51,27.51,0,0,0-.9-4.21c-.06-.35-.08-.89.13-1.1,2.75-2.82,5.55-5.6,8.38-8.44.32.3.61.54.87.81q9.49,9.48,19,19c6.29,6.31,6.29,15.07,0,21.36L95.73,90.24a2.29,2.29,0,0,1-.23.17L82.13,77c-.87,1-1.56,1.79-2.34,2.55a4.51,4.51,0,1,1-6.39-6.37c.76-.78,1.57-1.5,2.43-2.31Z"/></g></svg>