<svg xmlns="http://www.w3.org/2000/svg" xmlns:xlink="http://www.w3.org/1999/xlink" viewBox="0 0 120 120"><defs><style>.cls-1{fill:url(#未命名漸層_8);}.cls-2{fill:url(#未命名漸層_8-2);}.cls-3,.cls-4,.cls-5{fill-rule:evenodd;opacity:0.35;}.cls-3{fill:url(#未命名漸層_19);}.cls-4{fill:url(#未命名漸層_19-2);}.cls-5{fill:url(#未命名漸層_19-3);}</style><linearGradient id="未命名漸層_8" x1="38.68" y1="118.15" x2="38.68" y2="-0.24" gradientUnits="userSpaceOnUse"><stop offset="0.04" stop-color="#bc9c64"/><stop offset="0.93" stop-color="#f3d197"/></linearGradient><linearGradient id="未命名漸層_8-2" x1="62.42" y1="118.15" x2="62.42" y2="-0.24" xlink:href="#未命名漸層_8"/><linearGradient id="未命名漸層_19" x1="71.76" y1="87.27" x2="48.2" y2="49.7" gradientUnits="userSpaceOnUse"><stop offset="0.04" stop-color="#fffdf0"/><stop offset="1" stop-color="#fffdf0" stop-opacity="0"/></linearGradient><linearGradient id="未命名漸層_19-2" x1="80.99" y1="110.61" x2="67.12" y2="84.44" xlink:href="#未命名漸層_19"/><linearGradient id="未命名漸層_19-3" x1="45.05" y1="43.11" x2="23.12" y2="-1.46" xlink:href="#未命名漸層_19"/></defs><title>存款</title><g id="圖層_1" data-name="圖層 1"><path class="cls-1" d="M38.68,60.4A30.2,30.2,0,1,0,8.32,30.2,30.28,30.28,0,0,0,38.68,60.4ZM28.08,42.15c.29-1,.55-2,.87-3s.69-1.26,1.73-.72a16.63,16.63,0,0,0,5.73,1.69,7.24,7.24,0,0,0,3.74-.48,2.89,2.89,0,0,0,.69-5.1,10.21,10.21,0,0,0-2.13-1.26,47.69,47.69,0,0,1-5.84-2.61c-3-1.78-4.9-4.24-4.67-7.88.26-4.1,2.59-6.68,6.37-8,1.55-.58,1.55-.55,1.58-2.18V11c0-1.24.26-1.44,1.47-1.47h1.12c2.62,0,2.62,0,2.62,2.61,0,1.84,0,1.86,1.85,2.12a16.16,16.16,0,0,1,4,1.21A1.2,1.2,0,0,1,48,17c-.32,1.12-.64,2.24-1,3.35s-.69,1.21-1.67.72a12.9,12.9,0,0,0-6.43-1.26,4.4,4.4,0,0,0-1.69.34,2.41,2.41,0,0,0-.61,4.3A10.31,10.31,0,0,0,39.4,26a53.53,53.53,0,0,1,5.1,2.29c5.22,2.87,6.6,9.37,2.94,13.78a9.86,9.86,0,0,1-5.07,3.24,1.43,1.43,0,0,0-1.24,1.61c.06.88,0,1.77,0,2.66a1.12,1.12,0,0,1-1.21,1.26c-1,0-1.93,0-2.88,0a1.17,1.17,0,0,1-1.27-1.32c0-.66,0-1.29,0-1.95,0-1.43-.06-1.49-1.47-1.71a18.82,18.82,0,0,1-5.16-1.47C27.85,43.78,27.71,43.47,28.08,42.15Z"/><path class="cls-2" d="M106.75,62.92h-3.54a39.52,39.52,0,0,0-13-18.34,4.85,4.85,0,0,0-.09-.68c-1.27-4.47.29-8.54,2.13-11.46a2.88,2.88,0,0,0-2.79-4.39,21.45,21.45,0,0,0-11.7,4.87,11.33,11.33,0,0,0-3.57,5.85A36.58,36.58,0,0,1,16.45,59.08,35.27,35.27,0,0,0,13.16,74a34.82,34.82,0,0,0,1,8.31h0a.3.3,0,0,0,0,.12,35.59,35.59,0,0,0,3,8A41.54,41.54,0,0,0,24.94,102a22.11,22.11,0,0,1,6,14.21v1.35h0A2.62,2.62,0,0,0,33.56,120H49.43a2.6,2.6,0,0,0,2.62-2.61v-3.89a58.52,58.52,0,0,0,7.06.48,51.5,51.5,0,0,0,5.56-.28v3.72A2.6,2.6,0,0,0,67.29,120H83.22a2.61,2.61,0,0,0,2.62-2.61v-3.92a15.6,15.6,0,0,1,5.41-10.89,5.53,5.53,0,0,0,.52-.46.36.36,0,0,1,.15-.11h0a39,39,0,0,0,11.6-17.65h3.35a4.81,4.81,0,0,0,4.81-4.79V67.74A5,5,0,0,0,106.75,62.92Zm-19.85.86a3.93,3.93,0,1,1,3.95-3.92A4,4,0,0,1,86.9,63.78Z"/><path class="cls-3" d="M98.11,52.77a41.84,41.84,0,0,0-7.92-8.33,4.8,4.8,0,0,0-.09-.69c-1.27-4.47.29-8.53,2.13-11.46a2.88,2.88,0,0,0-2.79-4.38,21.45,21.45,0,0,0-11.7,4.87,11.33,11.33,0,0,0-3.57,5.85A36.58,36.58,0,0,1,16.45,58.94a35.24,35.24,0,0,0-3.29,14.9,34.82,34.82,0,0,0,1,8.31.24.24,0,0,0,0,.11,35.67,35.67,0,0,0,3,8A44.83,44.83,0,0,0,23,99.68C18.18,81.82,44.22,75,44.22,75c30.63-4.36,47.58-11,57-17.11A38.57,38.57,0,0,0,98.11,52.77ZM86.9,63.64a3.93,3.93,0,1,1,3.95-3.93A4,4,0,0,1,86.9,63.64Z"/><path class="cls-4" d="M106.75,62.94H103.2a36.49,36.49,0,0,0-4.77-9.55l-15.68-14-8.55-.75,0,.1A36.59,36.59,0,0,1,17.83,60.11L13.68,68a35.72,35.72,0,0,0-.52,6,34.88,34.88,0,0,0,1,8.31.24.24,0,0,0,0,.11,35.67,35.67,0,0,0,3,8A41.5,41.5,0,0,0,24.94,102a22.09,22.09,0,0,1,6,14.21v1.35A2.64,2.64,0,0,0,33.55,120h6.28c6.34-7.09,17.56-10,17.56-10a232.06,232.06,0,0,0,33.46-7l.4-.37c.17-.14.35-.28.52-.45a.69.69,0,0,1,.14-.12A40.55,40.55,0,0,0,99,93.91a37,37,0,0,0,4.53-9.54h3.34a4.81,4.81,0,0,0,4.81-4.78V67.75A4.94,4.94,0,0,0,106.75,62.94ZM86.9,63.8a3.93,3.93,0,1,1,3.95-3.93A3.93,3.93,0,0,1,86.9,63.8Z"/><path class="cls-5" d="M69,28.52a95.67,95.67,0,0,1-19.51,8.07,9.33,9.33,0,0,0-5-8.31c-1.67-.88-3.4-1.6-5.1-2.29a10.22,10.22,0,0,1-2.8-1.55,2.41,2.41,0,0,1,.61-4.29,4.27,4.27,0,0,1,1.7-.35,12.84,12.84,0,0,1,6.42,1.26c1,.49,1.33.35,1.67-.71s.69-2.24,1-3.36a1.2,1.2,0,0,0-.78-1.57,16,16,0,0,0-4-1.2c-1.84-.26-1.84-.29-1.84-2.13,0-2.6,0-2.6-2.62-2.6H37.64c-1.21,0-1.44.23-1.47,1.46v1.66c0,1.63,0,1.61-1.58,2.18-3.77,1.34-6.11,3.92-6.37,8-.23,3.64,1.67,6.1,4.67,7.88a47.82,47.82,0,0,0,5.85,2.61,10.21,10.21,0,0,1,2.13,1.26,2.85,2.85,0,0,1,.43,4.32q-2.47.63-5.16,1.23a16.57,16.57,0,0,1-5.44-1.65c-1-.55-1.38-.43-1.73.71-.28.86-.5,1.71-.74,2.57Q22,42.91,14.84,43.94s-1.06.28-2.71.87A29.94,29.94,0,0,1,8.35,30.2,30.36,30.36,0,0,1,69,28.52Z"/></g></svg>