<?xml version="1.0" encoding="utf-8"?>
<!-- Generator: Adobe Illustrator 25.3.1, SVG Export Plug-In . SVG Version: 6.00 Build 0)  -->
<svg version="1.1" id="圖層_1" xmlns="http://www.w3.org/2000/svg" xmlns:xlink="http://www.w3.org/1999/xlink" x="0px" y="0px"
	 viewBox="0 0 30.2 25" style="enable-background:new 0 0 30.2 25;" xml:space="preserve">
<style type="text/css">
	.st0{fill:url(#SVGID_1_);}
	.st1{fill:url(#SVGID_2_);}
</style>
<g>
	<g>
		<g>
			
				<linearGradient id="SVGID_1_" gradientUnits="userSpaceOnUse" x1="15.115" y1="29.3898" x2="15.115" y2="5.036" gradientTransform="matrix(1 0 0 -1 0 25.8898)">
				<stop  offset="0" style="stop-color:#EF0C29"/>
				<stop  offset="0.5185" style="stop-color:#E73832"/>
				<stop  offset="1" style="stop-color:#950000"/>
			</linearGradient>
			<path class="st0" d="M25.9,0H4.4C2,0,0,2,0,4.4v16.3C0,23,2,25,4.4,25h21.5c2.4,0,4.4-2,4.4-4.4V4.4C30.2,2,28.3,0,25.9,0z
				 M22.1,15.1c-1.4,0-2.6-1.2-2.6-2.6s1.2-2.6,2.6-2.6h6.8v5.2L22.1,15.1L22.1,15.1z"/>
		</g>
	</g>
	<g>
		<g>
			
				<linearGradient id="SVGID_2_" gradientUnits="userSpaceOnUse" x1="22.68" y1="29.3901" x2="22.68" y2="5.0357" gradientTransform="matrix(1 0 0 -1 0 25.8898)">
				<stop  offset="0" style="stop-color:#EF0C29"/>
				<stop  offset="0.5185" style="stop-color:#E73832"/>
				<stop  offset="1" style="stop-color:#950000"/>
			</linearGradient>
			<path class="st1" d="M23.3,11.6h-1.2c-0.5,0-0.9,0.4-0.9,0.9s0.4,0.9,0.9,0.9h1.2c0.5,0,0.9-0.4,0.9-0.9
				C24.1,12,23.7,11.6,23.3,11.6z"/>
		</g>
	</g>
</g>
</svg>
