<svg xmlns="http://www.w3.org/2000/svg" xmlns:xlink="http://www.w3.org/1999/xlink" viewBox="0 0 120 120"><defs><style>.cls-1{fill:url(#未命名漸層_8);}.cls-2{fill:url(#未命名漸層_8-2);}.cls-3{fill:url(#未命名漸層_8-3);}.cls-4{fill:url(#未命名漸層_8-4);}.cls-5,.cls-6,.cls-7,.cls-8,.cls-9{fill-rule:evenodd;}.cls-5,.cls-7,.cls-8{opacity:0.35;}.cls-5{fill:url(#未命名漸層_19);}.cls-6{fill:url(#未命名漸層_14);}.cls-7{fill:url(#未命名漸層_19-2);}.cls-8{fill:url(#未命名漸層_19-3);}.cls-9{fill:url(#未命名漸層_7);}</style><linearGradient id="未命名漸層_8" x1="59.99" y1="118.1" x2="59.99" y2="-1.36" gradientUnits="userSpaceOnUse"><stop offset="0.04" stop-color="#bc9c64"/><stop offset="0.93" stop-color="#f3d197"/></linearGradient><linearGradient id="未命名漸層_8-2" x1="84.47" y1="118.1" x2="84.47" y2="-1.36" xlink:href="#未命名漸層_8"/><linearGradient id="未命名漸層_8-3" x1="23.32" y1="118.1" x2="23.32" y2="-1.36" xlink:href="#未命名漸層_8"/><linearGradient id="未命名漸層_8-4" x1="72.27" y1="118.1" x2="72.27" y2="-1.36" xlink:href="#未命名漸層_8"/><linearGradient id="未命名漸層_19" x1="22.01" y1="72.11" x2="6.81" y2="22.42" gradientUnits="userSpaceOnUse"><stop offset="0.04" stop-color="#fffdf0"/><stop offset="1" stop-color="#fffdf0" stop-opacity="0"/></linearGradient><linearGradient id="未命名漸層_14" x1="60.77" y1="54.54" x2="54.39" y2="26.29" gradientUnits="userSpaceOnUse"><stop offset="0" stop-color="#fffdf0" stop-opacity="0.65"/><stop offset="0.34" stop-color="#fffdf0" stop-opacity="0.35"/><stop offset="1" stop-color="#fffdf0" stop-opacity="0"/></linearGradient><linearGradient id="未命名漸層_19-2" x1="81.82" y1="53.82" x2="66.62" y2="4.13" xlink:href="#未命名漸層_19"/><linearGradient id="未命名漸層_19-3" x1="111.99" y1="59.92" x2="110.14" y2="51.88" xlink:href="#未命名漸層_19"/><linearGradient id="未命名漸層_7" x1="63.1" y1="75.48" x2="58.84" y2="47.61" gradientUnits="userSpaceOnUse"><stop offset="0" stop-color="#fffdf0" stop-opacity="0.6"/><stop offset="0.15" stop-color="#fffdf0" stop-opacity="0.35"/><stop offset="1" stop-color="#fffdf0" stop-opacity="0"/></linearGradient></defs><title>ICON</title><g id="圖層_1" data-name="圖層 1"><path class="cls-1" d="M60,26C43.45,26,30,39,30,55.13S43.42,84.29,60,84.29,90,71.2,90,55.13,76.53,26,60,26Zm-.63,25.5h1.26A9.27,9.27,0,0,1,70,60.59a9.1,9.1,0,0,1-6.25,8.55v1.78a3.76,3.76,0,0,1-7.51,0V69.7h-2.5a3.65,3.65,0,1,1,0-7.3h6.88a1.81,1.81,0,1,0,0-3.62H59.36A9.26,9.26,0,0,1,50,49.67a9.11,9.11,0,0,1,6.25-8.55V39.34a3.76,3.76,0,0,1,7.51,0v1.23h2.49a3.65,3.65,0,1,1,0,7.29H59.36a1.81,1.81,0,1,0,0,3.62Z"/><path class="cls-2" d="M111.36,51.6a3.72,3.72,0,0,0-3.76,3.64C107.6,77,92,95.29,71.09,100.19V95.65a3.76,3.76,0,0,0-6.4-2.56l-9.77,9.49a3.59,3.59,0,0,0,0,5.16l9.77,9.49a3.76,3.76,0,0,0,6.4-2.56v-7c25.08-5,44-26.62,44-52.44a3.72,3.72,0,0,0-3.76-3.67Z"/><path class="cls-3" d="M44.11,98.8A46.26,46.26,0,0,1,12.38,55.24a44.85,44.85,0,0,1,2.95-16l4.5,2.5a3.73,3.73,0,0,0,5.51-4.09L21.55,23.89A3.75,3.75,0,0,0,17,21.32L2.78,25a3.61,3.61,0,0,0-.89,6.68L8.8,35.55A51.42,51.42,0,0,0,4.93,55.24c0,22.67,14.76,42.94,36.74,50.44a3.82,3.82,0,0,0,4.79-2.23A3.69,3.69,0,0,0,44.11,98.8Z"/><path class="cls-4" d="M115.29,25.59l-8.09,2.08A55.8,55.8,0,0,0,60,1.69a54.84,54.84,0,0,0-34,11.59,3.58,3.58,0,0,0-.58,5.12,3.83,3.83,0,0,0,5.28.56A47.14,47.14,0,0,1,60,9,48.36,48.36,0,0,1,99.61,29.62l-4.36,1.15a3.62,3.62,0,0,0-.92,6.68L107,44.58a3.9,3.9,0,0,0,2.84.36,3.68,3.68,0,0,0,2.26-1.7l7.34-12.34a3.64,3.64,0,0,0-4.18-5.31Z"/><path class="cls-5" d="M19.83,41.73l-4.5-2.5a44.85,44.85,0,0,0-2.95,16,43.24,43.24,0,0,0,.28,5A20.93,20.93,0,0,0,7,69.73a52,52,0,0,1,1.8-34.21L1.88,31.65A3.61,3.61,0,0,1,2.77,25L17,21.29a3.76,3.76,0,0,1,4.59,2.57l3.78,13.78A3.72,3.72,0,0,1,19.83,41.73Z"/><path class="cls-6" d="M70,44.19a3.71,3.71,0,0,0-3.75-3.65h-2.5V39.31a3.76,3.76,0,0,0-7.51,0v1.78A9.1,9.1,0,0,0,50,49.44q-5.81.08-12.2,0A52,52,0,0,0,30.3,50.9c2.09-14.1,14.62-25,29.69-25A30,30,0,0,1,88.5,46a207.32,207.32,0,0,1-31,3.24,1.85,1.85,0,0,1,1.82-1.42h6.88A3.71,3.71,0,0,0,70,44.19Z"/><path class="cls-7" d="M119.47,30.87l-3.38,5.67a66.5,66.5,0,0,1-13,5.77l-8.71-4.89a3.63,3.63,0,0,1,.92-6.69l4.35-1.14A48.33,48.33,0,0,0,60,8.93a47.11,47.11,0,0,0-29.35,10,3.83,3.83,0,0,1-5.28-.56,3.59,3.59,0,0,1,.57-5.12A54.84,54.84,0,0,1,60,1.66a55.8,55.8,0,0,1,47.21,26l8.08-2.08A3.64,3.64,0,0,1,119.47,30.87Z"/><path class="cls-8" d="M114.91,54.07a63.11,63.11,0,0,1-7.44,4.75c.09-1.18.14-2.37.14-3.57a3.71,3.71,0,0,1,3.75-3.65A3.75,3.75,0,0,1,114.91,54.07Z"/><path class="cls-9" d="M90,55.14a28.26,28.26,0,0,1-2.65,12,205.78,205.78,0,0,1-24.22,5.81,3.6,3.6,0,0,0,.61-2V69.14A9.09,9.09,0,0,0,70,60.6a9.27,9.27,0,0,0-9.38-9.11H59.36a1.81,1.81,0,1,1,0-3.62h6.88a3.65,3.65,0,1,0,0-7.3H63.75V39.35a3.76,3.76,0,0,0-7.51,0v1.78A9.09,9.09,0,0,0,50,49.68a9.27,9.27,0,0,0,9.37,9.11h1.26a1.81,1.81,0,1,1,0,3.62H53.74a3.65,3.65,0,1,0,0,7.29h2.5v1.23a3.6,3.6,0,0,0,1.52,2.92q-8.37,1.37-18.14,2.43l-.22,0A28.68,28.68,0,0,1,30,55.14C30,39,43.45,26,60,26S90,39.07,90,55.14Z"/></g></svg>