<svg xmlns="http://www.w3.org/2000/svg" xmlns:xlink="http://www.w3.org/1999/xlink" viewBox="0 0 120 120"><defs><style>.cls-1{fill:url(#未命名漸層_8);}.cls-2{fill:url(#未命名漸層_8-2);}.cls-3,.cls-4{fill-rule:evenodd;}.cls-3{opacity:0.5;fill:url(#未命名漸層_19);}.cls-4{opacity:0.35;fill:url(#未命名漸層_19-2);}</style><linearGradient id="未命名漸層_8" x1="69.49" y1="67.03" x2="69.49" gradientUnits="userSpaceOnUse"><stop offset="0.04" stop-color="#bc9c64"/><stop offset="0.93" stop-color="#f3d197"/></linearGradient><linearGradient id="未命名漸層_8-2" x1="60" y1="120" x2="60" y2="64.23" xlink:href="#未命名漸層_8"/><linearGradient id="未命名漸層_19" x1="65.45" y1="113.65" x2="56.21" y2="86.24" gradientUnits="userSpaceOnUse"><stop offset="0.04" stop-color="#fffdf0"/><stop offset="1" stop-color="#fffdf0" stop-opacity="0"/></linearGradient><linearGradient id="未命名漸層_19-2" x1="79.78" y1="50.54" x2="52.68" y2="2.8" xlink:href="#未命名漸層_19"/></defs><title>提款</title><g id="圖層_1" data-name="圖層 1"><path class="cls-1" d="M69.49,0C51.43,0,36.73,15,36.73,33.51S51.43,67,69.49,67s32.77-15,32.77-33.52S87.56,0,69.49,0Zm3.45,48.71v.73a3.45,3.45,0,1,1-6.89,0V49.1A11.84,11.84,0,0,1,61.2,47a3.59,3.59,0,0,1-1-4.87,3.41,3.41,0,0,1,4.76-1c1.66,1.13,2.23,1.22,4.51,1.19a3.31,3.31,0,0,0,3.27-2.83A2.36,2.36,0,0,0,71,36.67a27.93,27.93,0,0,1-7.85-3.88c-4.72-3.8-3.26-12.43,2.89-14.74v-.49a3.45,3.45,0,1,1,6.89,0v.31A11.24,11.24,0,0,1,76.83,20,3.57,3.57,0,0,1,77,25a3.38,3.38,0,0,1-4.84.21,4,4,0,0,0-3.66-.52,2,2,0,0,0-1.22,1.55,1.67,1.67,0,0,0,.12,1.1,24.94,24.94,0,0,0,5.92,2.79c9,3.25,7.9,15.56-.42,18.63Z"/><path class="cls-2" d="M100.64,68.43l-33.36,10A22.69,22.69,0,0,1,68.91,87v1.25a11.82,11.82,0,0,1-16.63,11l-17.5-8a3.56,3.56,0,0,1-1.73-4.65,3.43,3.43,0,0,1,4.55-1.77l17.5,8.06a4.94,4.94,0,0,0,6.95-4.59V87A15.2,15.2,0,0,0,53.2,73.2l-15.12-7a21.8,21.8,0,0,0-18.45.09L3.38,73.9a3.53,3.53,0,0,0-2,3.19v37.4A3.45,3.45,0,0,0,6,117.86L28.9,109l27.21,9.75a21.71,21.71,0,0,0,18.65-1.88l37-22.3a14.46,14.46,0,0,0,6.86-12.31c0-9.6-9-16.5-18-13.79Z"/><path class="cls-3" d="M118.64,82.22a14.39,14.39,0,0,1-.2,2.37C110.33,91.25,93,99.16,55.84,103c0,0-11.19,2.5-17.82,9.24L28.9,109,6,117.87a3.45,3.45,0,0,1-4.66-3.38V77.09a3.54,3.54,0,0,1,2-3.19l2.68-1.25,13.57-6.32a21.8,21.8,0,0,1,18.45-.09l15.12,7A15.18,15.18,0,0,1,62.05,87v1.24a4.93,4.93,0,0,1-6.95,4.59l-17.5-8a3.41,3.41,0,0,0-4.54,1.76,3.56,3.56,0,0,0,1.72,4.65l17.5,8c7.78,3.59,16.63-2.25,16.63-11V87a22.65,22.65,0,0,0-1.63-8.51l33.36-10.06A14.1,14.1,0,0,1,118.64,82.22Z"/><path class="cls-4" d="M102.18,30.29A99,99,0,0,1,79.55,37a9.14,9.14,0,0,0-6.11-6.93,24.69,24.69,0,0,1-5.91-2.79,1.59,1.59,0,0,1-.12-1.1,1.93,1.93,0,0,1,1.21-1.55,4,4,0,0,1,3.66.52A3.37,3.37,0,0,0,77.12,25,3.55,3.55,0,0,0,76.91,20a11.17,11.17,0,0,0-3.86-2.13v-.31a3.45,3.45,0,1,0-6.89,0v.49C60,20.36,58.55,29,63.28,32.79a28.3,28.3,0,0,0,7.84,3.89,2.42,2.42,0,0,1,1.62,1.46,258.28,258.28,0,0,1-26.39,2.4,47.06,47.06,0,0,0-8.25,2.33,34.28,34.28,0,0,1-1.29-9.35C36.81,15,51.51,0,69.58,0,86.58,0,100.57,13.3,102.18,30.29Z"/></g></svg>